<svg id="Layer_1" data-name="Layer 1" xmlns="http://www.w3.org/2000/svg" xmlns:xlink="http://www.w3.org/1999/xlink" viewBox="0 0 925.47 1052.23"><defs><style>.cls-1{fill:url(#New_Gradient_Swatch);}.cls-2{fill:#be4a14;}.cls-3{fill:#fff;}.cls-4{fill:#474c53;}.cls-5{fill:#ec6323;}.cls-6{fill:#ffa137;}</style><linearGradient id="New_Gradient_Swatch" x1="85.17" y1="-3.5" x2="837.35" y2="1057.21" gradientUnits="userSpaceOnUse"><stop offset="0" stop-color="#474c53"/><stop offset="1" stop-color="#0e0f11"/></linearGradient></defs><rect class="cls-1" x="-14.47" y="-10.4" width="950.39" height="1073.01"/><polygon class="cls-2" points="309.25 241.58 278.25 256.91 322.74 415.13 575.88 415.13 666.78 254.33 620.25 237.23 309.25 241.58"/><rect class="cls-3" x="305.77" y="128.92" width="332.75" height="272.29" rx="7.5"/><rect class="cls-4" x="349.27" y="189.82" width="124.4" height="12.18" rx="4.67"/><rect class="cls-4" x="349.27" y="243.75" width="256.5" height="12.18" rx="4.67"/><rect class="cls-4" x="349.27" y="294.64" width="256.5" height="12.18" rx="4.67"/><rect class="cls-4" x="349.27" y="348.14" width="256.5" height="12.18" rx="4.67"/><path class="cls-5" d="M331,510.39H639.64a27.15,27.15,0,0,0,27.14-27.14V254.33L299.42,493.4Z"/><path class="cls-6" d="M643.88,510.39H305.12a26.87,26.87,0,0,1-26.87-26.87V256.91L657.57,503.83C654.28,507.68,646.65,510.58,643.88,510.39Z"/><path class="cls-3" d="M136.52,636.17h-7.06V588.79h7.06Z"/><path class="cls-3" d="M148.1,636.17V607.93l-3.49-.43a3,3,0,0,1-1.24-.55,1.32,1.32,0,0,1-.48-1.1v-2.68h5.21v-3a14.78,14.78,0,0,1,.83-5.12,10.58,10.58,0,0,1,2.36-3.81,10,10,0,0,1,3.69-2.38,14.05,14.05,0,0,1,4.87-.8,12.74,12.74,0,0,1,4.19.66l-.13,3.23a.92.92,0,0,1-.26.64,1.42,1.42,0,0,1-.61.32,4.75,4.75,0,0,1-.93.11l-1.17,0a9.61,9.61,0,0,0-2.71.36,4.81,4.81,0,0,0-2.07,1.22,5.53,5.53,0,0,0-1.32,2.26,11.24,11.24,0,0,0-.47,3.49v2.83h9.41v4.69h-9.21v28.31Z"/><path class="cls-3" d="M212.26,602.64l-18.62,43.27a2.63,2.63,0,0,1-.79,1.12,2.3,2.3,0,0,1-1.45.4h-4.79l6.14-13.37L179,602.64h5.61a2,2,0,0,1,1.29.4,2.23,2.23,0,0,1,.66.89l8.51,20.13c.18.51.35,1,.51,1.54a15.21,15.21,0,0,1,.42,1.53c.15-.53.31-1,.49-1.57s.36-1,.56-1.53l8.22-20.1A2.11,2.11,0,0,1,206,603a1.86,1.86,0,0,1,1.12-.37Z"/><path class="cls-3" d="M230.5,602.12a17.8,17.8,0,0,1,6.69,1.2,14,14,0,0,1,5.08,3.47,15.38,15.38,0,0,1,3.22,5.44,23.41,23.41,0,0,1,0,14.31,15.2,15.2,0,0,1-3.22,5.44,14,14,0,0,1-5.08,3.45,19.3,19.3,0,0,1-13.4,0,14.14,14.14,0,0,1-5.1-3.45,15.26,15.26,0,0,1-3.25-5.44,23,23,0,0,1,0-14.31,15.44,15.44,0,0,1,3.25-5.44,14.18,14.18,0,0,1,5.1-3.47A17.86,17.86,0,0,1,230.5,602.12Zm0,29.5q4.75,0,7.1-3.2t2.34-9q0-5.8-2.34-9t-7.1-3.21q-4.81,0-7.17,3.21c-1.58,2.15-2.36,5.16-2.36,9s.78,6.87,2.36,9S227.29,631.62,230.5,631.62Z"/><path class="cls-3" d="M281.65,602.64v33.53h-3.86a1.64,1.64,0,0,1-1.71-1.28l-.47-3.37a22.43,22.43,0,0,1-2.27,2.11,14.49,14.49,0,0,1-2.54,1.64,13.93,13.93,0,0,1-2.88,1.05,13.55,13.55,0,0,1-3.26.38,12.09,12.09,0,0,1-4.87-.92,9.63,9.63,0,0,1-3.51-2.59,11.12,11.12,0,0,1-2.15-4,17.57,17.57,0,0,1-.73-5.18V602.64h6.47V624a8.55,8.55,0,0,0,1.65,5.59,6.19,6.19,0,0,0,5.05,2,9.4,9.4,0,0,0,4.62-1.18,15.9,15.9,0,0,0,4-3.21V602.64Z"/><path class="cls-3" d="M313.76,606.9a18.26,18.26,0,0,1,4.67-3.46,12.65,12.65,0,0,1,5.89-1.32,12.09,12.09,0,0,1,4.87.92,9.71,9.71,0,0,1,3.51,2.59,11.27,11.27,0,0,1,2.15,4,17.58,17.58,0,0,1,.72,5.18v21.35h-6.46V614.82a8.58,8.58,0,0,0-1.65-5.59,6.2,6.2,0,0,0-5-2,9.6,9.6,0,0,0-4.64,1.17,15.48,15.48,0,0,0-4,3.19v24.58h-6.43v-48.7h6.43Z"/><path class="cls-3" d="M343.39,607.33a18.43,18.43,0,0,1,13.3-5.31,12.79,12.79,0,0,1,5.08.94,10.44,10.44,0,0,1,3.73,2.62,11.12,11.12,0,0,1,2.3,4,16.61,16.61,0,0,1,.77,5.18v21.38H365.7a2.72,2.72,0,0,1-1.45-.31,2.18,2.18,0,0,1-.79-1.17l-.7-2.94a27.36,27.36,0,0,1-2.54,2.1,16.55,16.55,0,0,1-2.62,1.55,13.35,13.35,0,0,1-2.92,1,16.5,16.5,0,0,1-3.43.33,12.37,12.37,0,0,1-3.71-.54,8.31,8.31,0,0,1-3-1.67,7.76,7.76,0,0,1-2-2.81,9.55,9.55,0,0,1-.75-3.92,7.39,7.39,0,0,1,1.08-3.81,9.69,9.69,0,0,1,3.49-3.29,22.59,22.59,0,0,1,6.34-2.37,47.19,47.19,0,0,1,9.62-1.06v-2.44q0-3.79-1.62-5.68a5.93,5.93,0,0,0-4.75-1.88,10.42,10.42,0,0,0-3.55.53,13.56,13.56,0,0,0-2.47,1.17c-.69.43-1.3.82-1.82,1.17a2.74,2.74,0,0,1-1.6.53,1.85,1.85,0,0,1-1.14-.36,3.15,3.15,0,0,1-.77-.86Zm18.88,14a49.37,49.37,0,0,0-6.67.61,18.27,18.27,0,0,0-4.45,1.27,6.1,6.1,0,0,0-2.48,1.87,4.06,4.06,0,0,0-.75,2.39,5.14,5.14,0,0,0,.41,2.16,4,4,0,0,0,1.12,1.48,4.48,4.48,0,0,0,1.67.85,8,8,0,0,0,2.08.26,11.62,11.62,0,0,0,2.72-.3,11,11,0,0,0,2.32-.84,11.81,11.81,0,0,0,2.08-1.33,19.25,19.25,0,0,0,1.95-1.82Z"/><path class="cls-3" d="M405.6,602.64,392,636.17h-5.8l-13.6-33.53h5.31a2.09,2.09,0,0,1,1.26.37,1.73,1.73,0,0,1,.66.92l8,20.59c.28.86.53,1.71.74,2.56s.4,1.69.58,2.53c.17-.84.37-1.68.59-2.51s.48-1.7.79-2.58l8.12-20.59a1.9,1.9,0,0,1,.69-.92,2,2,0,0,1,1.19-.37Z"/><path class="cls-3" d="M437.31,631.39a12.56,12.56,0,0,1-2.74,2.39,15.36,15.36,0,0,1-3.3,1.63,19.92,19.92,0,0,1-3.61.93,23.09,23.09,0,0,1-3.68.29,17.28,17.28,0,0,1-6.42-1.17,14.17,14.17,0,0,1-5.11-3.43,15.68,15.68,0,0,1-3.37-5.61,22.76,22.76,0,0,1-1.2-7.7A18.94,18.94,0,0,1,409,612.2a15.71,15.71,0,0,1,3.11-5.27,14.54,14.54,0,0,1,5-3.53,16.43,16.43,0,0,1,6.6-1.28,15.52,15.52,0,0,1,5.66,1,12.7,12.7,0,0,1,4.47,2.92,13.55,13.55,0,0,1,3,4.72,18,18,0,0,1,1.07,6.41,4,4,0,0,1-.33,2,1.35,1.35,0,0,1-1.22.51h-22a17.7,17.7,0,0,0,.86,5.23,10.47,10.47,0,0,0,2.09,3.72,8.34,8.34,0,0,0,3.19,2.21,11.24,11.24,0,0,0,4.12.72,12.36,12.36,0,0,0,3.71-.49A18.45,18.45,0,0,0,431,630c.76-.39,1.4-.75,1.91-1.08a2.66,2.66,0,0,1,1.37-.49,1.45,1.45,0,0,1,1.23.59ZM432,615.68a11.07,11.07,0,0,0-.54-3.53,8.13,8.13,0,0,0-1.61-2.81,7.25,7.25,0,0,0-2.57-1.84,8.71,8.71,0,0,0-3.5-.66,8.59,8.59,0,0,0-6.38,2.34,11.35,11.35,0,0,0-3,6.5Z"/><path class="cls-3" d="M489.48,602.64v44.79H483v-16a17.29,17.29,0,0,1-4.72,3.81,12.56,12.56,0,0,1-6.11,1.43,11.76,11.76,0,0,1-5.19-1.12,10.8,10.8,0,0,1-4-3.28,15.61,15.61,0,0,1-2.54-5.36,27.33,27.33,0,0,1-.89-7.36,23.31,23.31,0,0,1,1-6.93,16.51,16.51,0,0,1,2.87-5.55,13.64,13.64,0,0,1,4.55-3.68,13.34,13.34,0,0,1,6-1.33,14.38,14.38,0,0,1,3,.29,11.6,11.6,0,0,1,2.51.86,11.18,11.18,0,0,1,2.13,1.36,13,13,0,0,1,1.83,1.81l.43-2.41a1.57,1.57,0,0,1,1.68-1.29ZM483,610.76a8.68,8.68,0,0,0-3.39-2.87,9.93,9.93,0,0,0-4.14-.86,8.12,8.12,0,0,0-6.85,3.19q-2.42,3.18-2.42,9.29a23.86,23.86,0,0,0,.54,5.46,10.44,10.44,0,0,0,1.59,3.7,6.27,6.27,0,0,0,2.56,2.11,8.33,8.33,0,0,0,3.43.67,9.07,9.07,0,0,0,4.85-1.25,14.78,14.78,0,0,0,3.83-3.53Z"/><path class="cls-3" d="M526.34,602.64v33.53h-3.86a1.64,1.64,0,0,1-1.71-1.28l-.46-3.37a23.65,23.65,0,0,1-2.28,2.11,14.49,14.49,0,0,1-2.54,1.64,13.84,13.84,0,0,1-2.87,1.05,13.64,13.64,0,0,1-3.27.38,12.09,12.09,0,0,1-4.87-.92,9.71,9.71,0,0,1-3.51-2.59,11.27,11.27,0,0,1-2.15-4,17.58,17.58,0,0,1-.72-5.18V602.64h6.46V624a8.49,8.49,0,0,0,1.66,5.59,6.15,6.15,0,0,0,5,2,9.4,9.4,0,0,0,4.62-1.18,15.73,15.73,0,0,0,4-3.21V602.64Z"/><path class="cls-3" d="M562.88,631.39a13,13,0,0,1-2.74,2.39,15.83,15.83,0,0,1-3.3,1.63,20,20,0,0,1-3.62.93,23.09,23.09,0,0,1-3.68.29,17.19,17.19,0,0,1-6.41-1.17A14.21,14.21,0,0,1,538,632a15.83,15.83,0,0,1-3.37-5.61,22.76,22.76,0,0,1-1.2-7.7,18.94,18.94,0,0,1,1.09-6.52,15.57,15.57,0,0,1,3.12-5.27,14.5,14.5,0,0,1,5-3.53,16.43,16.43,0,0,1,6.6-1.28,15.48,15.48,0,0,1,5.66,1,12.7,12.7,0,0,1,4.47,2.92,13.55,13.55,0,0,1,3,4.72,18,18,0,0,1,1.07,6.41,4,4,0,0,1-.33,2,1.35,1.35,0,0,1-1.22.51h-22a18,18,0,0,0,.86,5.23,10.48,10.48,0,0,0,2.1,3.72,8.38,8.38,0,0,0,3.18,2.21,11.28,11.28,0,0,0,4.12.72,12.47,12.47,0,0,0,3.72-.49,18.74,18.74,0,0,0,2.7-1.07q1.14-.59,1.92-1.08a2.6,2.6,0,0,1,1.37-.49A1.44,1.44,0,0,1,561,629Zm-5.32-15.71a11.07,11.07,0,0,0-.54-3.53,8.27,8.27,0,0,0-1.6-2.81,7.29,7.29,0,0,0-2.58-1.84,9.78,9.78,0,0,0-9.88,1.68,11.28,11.28,0,0,0-3,6.5Z"/><path class="cls-3" d="M590.07,608.42a1.87,1.87,0,0,1-.56.61,1.45,1.45,0,0,1-.76.18,2.45,2.45,0,0,1-1.17-.36c-.43-.24-1-.51-1.55-.79a16,16,0,0,0-2.13-.8,10.42,10.42,0,0,0-2.91-.36,8.67,8.67,0,0,0-2.52.35,5.91,5.91,0,0,0-1.93,1,4.12,4.12,0,0,0-1.22,1.45,3.85,3.85,0,0,0-.43,1.8,3,3,0,0,0,.74,2.08,6.24,6.24,0,0,0,2,1.41,18.2,18.2,0,0,0,2.74,1.08l3.13,1c1.07.35,2.11.76,3.14,1.21a11.37,11.37,0,0,1,2.73,1.68,7.7,7.7,0,0,1,1.95,2.43,7.31,7.31,0,0,1,.74,3.46,11.08,11.08,0,0,1-.84,4.34,9.49,9.49,0,0,1-2.47,3.45,11.74,11.74,0,0,1-4,2.28,17,17,0,0,1-5.52.82,17.34,17.34,0,0,1-6.4-1.15,15.94,15.94,0,0,1-4.91-2.94l1.51-2.48a2,2,0,0,1,.66-.7,2,2,0,0,1,1.06-.25,2.24,2.24,0,0,1,1.29.46c.44.31,1,.64,1.58,1a12.47,12.47,0,0,0,2.24,1,10.67,10.67,0,0,0,3.3.44,9.22,9.22,0,0,0,2.88-.41,6.08,6.08,0,0,0,2-1.12,4.63,4.63,0,0,0,1.2-1.64A4.92,4.92,0,0,0,586,627a3.26,3.26,0,0,0-.75-2.2,6.39,6.39,0,0,0-1.94-1.5,16,16,0,0,0-2.76-1.09c-1-.31-2.09-.64-3.17-1a32.88,32.88,0,0,1-3.17-1.22,10.65,10.65,0,0,1-2.75-1.75,8.21,8.21,0,0,1-2-2.57,8.47,8.47,0,0,1-.74-3.7,8.92,8.92,0,0,1,.81-3.73,9.23,9.23,0,0,1,2.34-3.13,11.38,11.38,0,0,1,3.8-2.16,15.19,15.19,0,0,1,5.16-.81,16.42,16.42,0,0,1,6,1,13.78,13.78,0,0,1,4.61,2.91Z"/><path class="cls-3" d="M630.76,636.17h-6.47V607.86H607.46v19.63a4,4,0,0,0,1,3,3.37,3.37,0,0,0,2.49,1,4.67,4.67,0,0,0,1.54-.23,5.38,5.38,0,0,0,1.1-.51l.8-.51a1,1,0,0,1,.59-.23.84.84,0,0,1,.51.14,1.86,1.86,0,0,1,.38.48l1.91,3.11a11.22,11.22,0,0,1-3.76,2.24,13.07,13.07,0,0,1-4.52.79,8.27,8.27,0,0,1-6.25-2.28q-2.21-2.26-2.2-6.5V607.86h-3.89a1.26,1.26,0,0,1-1.32-1.39v-2.6l5.48-.76,1.42-10a1.41,1.41,0,0,1,1.48-1.19h3.27v11.25h23.3Zm1.45-44.08a4.07,4.07,0,0,1-.36,1.69,4.74,4.74,0,0,1-1,1.42,4.39,4.39,0,0,1-1.43,1,4.44,4.44,0,0,1-1.72.35,4.18,4.18,0,0,1-1.68-.35,4.48,4.48,0,0,1-2.36-2.38,4.23,4.23,0,0,1-.35-1.69,4.48,4.48,0,0,1,.35-1.75,4.57,4.57,0,0,1,1-1.44,4.7,4.7,0,0,1,1.41-1,4.17,4.17,0,0,1,1.68-.34,4.43,4.43,0,0,1,1.72.34,4.55,4.55,0,0,1,1.43,1,4.83,4.83,0,0,1,1,1.44A4.32,4.32,0,0,1,632.21,592.09Z"/><path class="cls-3" d="M654.38,602.12a17.83,17.83,0,0,1,6.69,1.2,14,14,0,0,1,5.08,3.47,15.53,15.53,0,0,1,3.22,5.44,23.41,23.41,0,0,1,0,14.31,15.35,15.35,0,0,1-3.22,5.44,14,14,0,0,1-5.08,3.45,19.3,19.3,0,0,1-13.4,0,14.14,14.14,0,0,1-5.1-3.45,15.26,15.26,0,0,1-3.25-5.44,23,23,0,0,1,0-14.31,15.44,15.44,0,0,1,3.25-5.44,14.18,14.18,0,0,1,5.1-3.47A17.86,17.86,0,0,1,654.38,602.12Zm0,29.5q4.75,0,7.1-3.2t2.34-9q0-5.8-2.34-9t-7.1-3.21q-4.82,0-7.17,3.21c-1.58,2.15-2.36,5.16-2.36,9s.78,6.87,2.36,9S651.17,631.62,654.38,631.62Z"/><path class="cls-3" d="M683.69,607.3a21.34,21.34,0,0,1,2.27-2.11,14.58,14.58,0,0,1,2.53-1.64,13.43,13.43,0,0,1,2.87-1,13.29,13.29,0,0,1,3.28-.38,12.09,12.09,0,0,1,4.87.92,9.63,9.63,0,0,1,3.51,2.59,11.12,11.12,0,0,1,2.15,4,17.57,17.57,0,0,1,.73,5.18v21.35h-6.47V614.82a8.53,8.53,0,0,0-1.65-5.59,6.19,6.19,0,0,0-5-2,9.6,9.6,0,0,0-4.64,1.17,15.48,15.48,0,0,0-4,3.19v24.58h-6.43V602.64h3.86a1.57,1.57,0,0,1,1.68,1.29Z"/><path class="cls-3" d="M734.34,608.42a1.68,1.68,0,0,1-.56.61,1.45,1.45,0,0,1-.76.18,2.45,2.45,0,0,1-1.17-.36c-.43-.24-1-.51-1.55-.79a16,16,0,0,0-2.13-.8,10.3,10.3,0,0,0-2.9-.36,8.69,8.69,0,0,0-2.53.35,5.91,5.91,0,0,0-1.93,1,4.23,4.23,0,0,0-1.22,1.45,3.85,3.85,0,0,0-.43,1.8,3,3,0,0,0,.74,2.08,6.36,6.36,0,0,0,2,1.41,18.63,18.63,0,0,0,2.74,1.08c1,.32,2.07.65,3.13,1s2.12.76,3.14,1.21a11.43,11.43,0,0,1,2.74,1.68,8,8,0,0,1,1.95,2.43,7.44,7.44,0,0,1,.74,3.46,11.08,11.08,0,0,1-.84,4.34A9.52,9.52,0,0,1,733,633.6a11.74,11.74,0,0,1-4,2.28,17,17,0,0,1-5.51.82,17.3,17.3,0,0,1-6.4-1.15,16,16,0,0,1-4.92-2.94l1.52-2.48a1.86,1.86,0,0,1,.66-.7,1.9,1.9,0,0,1,1.05-.25,2.24,2.24,0,0,1,1.29.46c.44.31,1,.64,1.58,1a12.59,12.59,0,0,0,2.25,1,10.67,10.67,0,0,0,3.3.44,9.11,9.11,0,0,0,2.87-.41,6.08,6.08,0,0,0,2-1.12,4.52,4.52,0,0,0,1.2-1.64,4.75,4.75,0,0,0,.4-1.94,3.31,3.31,0,0,0-.74-2.2,6.56,6.56,0,0,0-2-1.5,15.41,15.41,0,0,0-2.76-1.09c-1-.31-2.09-.64-3.16-1a31.91,31.91,0,0,1-3.17-1.22,10.71,10.71,0,0,1-2.76-1.75,8,8,0,0,1-1.94-2.57A8.33,8.33,0,0,1,713,612a8.92,8.92,0,0,1,.81-3.73,9.23,9.23,0,0,1,2.34-3.13,11.48,11.48,0,0,1,3.8-2.16,15.27,15.27,0,0,1,5.16-.81,16.48,16.48,0,0,1,6,1,13.84,13.84,0,0,1,4.6,2.91Z"/><path class="cls-3" d="M774.2,602.12a17.8,17.8,0,0,1,6.69,1.2,14,14,0,0,1,5.08,3.47,15.38,15.38,0,0,1,3.22,5.44,23.41,23.41,0,0,1,0,14.31A15.2,15.2,0,0,1,786,632a14,14,0,0,1-5.08,3.45,19.3,19.3,0,0,1-13.4,0,14.14,14.14,0,0,1-5.1-3.45,15.26,15.26,0,0,1-3.25-5.44,23,23,0,0,1,0-14.31,15.44,15.44,0,0,1,3.25-5.44,14.18,14.18,0,0,1,5.1-3.47A17.86,17.86,0,0,1,774.2,602.12Zm0,29.5q4.75,0,7.1-3.2t2.34-9q0-5.8-2.34-9t-7.1-3.21q-4.82,0-7.17,3.21c-1.58,2.15-2.36,5.16-2.36,9s.78,6.87,2.36,9S771,631.62,774.2,631.62Z"/><path class="cls-3" d="M803.54,609.08a15.42,15.42,0,0,1,3.89-5.18,8.31,8.31,0,0,1,5.48-1.88,8,8,0,0,1,2.06.25,5.16,5.16,0,0,1,1.7.74l-.42,4.85a1.06,1.06,0,0,1-1.09.89,8,8,0,0,1-1.39-.18,10.41,10.41,0,0,0-2-.18,8,8,0,0,0-2.74.44,6.55,6.55,0,0,0-2.13,1.32,9.16,9.16,0,0,0-1.66,2.15,20.93,20.93,0,0,0-1.36,2.88v21h-6.43V602.64h3.69a2.06,2.06,0,0,1,1.44.38,2.55,2.55,0,0,1,.54,1.34Z"/><path class="cls-3" d="M162.14,681.84l-10.79,33.53h-5.14c-.62,0-1-.4-1.26-1.22l-7.06-21.84c-.18-.55-.33-1.1-.46-1.64s-.26-1.08-.36-1.63a24.56,24.56,0,0,1-.83,3.33l-7.16,21.78a1.4,1.4,0,0,1-1.42,1.22h-4.88L112,681.84H117a2.14,2.14,0,0,1,1.27.37,1.66,1.66,0,0,1,.68.92l6,20.59c.2.84.37,1.65.53,2.45s.29,1.58.43,2.37c.19-.79.41-1.58.64-2.37s.47-1.61.71-2.45L134,683a1.72,1.72,0,0,1,.63-.91,1.8,1.8,0,0,1,1.12-.34h2.8a2,2,0,0,1,1.21.34,1.68,1.68,0,0,1,.64.91L147,703.72q.36,1.26.69,2.46c.22.81.42,1.61.59,2.43.13-.79.29-1.59.46-2.39s.38-1.64.6-2.5l6.14-20.59a1.69,1.69,0,0,1,.67-.92,2,2,0,0,1,1.17-.37Z"/><path class="cls-3" d="M166.37,686.53a18.43,18.43,0,0,1,13.3-5.31,12.82,12.82,0,0,1,5.08.94,10.53,10.53,0,0,1,3.73,2.62,11.1,11.1,0,0,1,2.29,4,16.32,16.32,0,0,1,.78,5.18v21.38h-2.87a2.76,2.76,0,0,1-1.46-.31,2.18,2.18,0,0,1-.79-1.17l-.69-2.94a30.26,30.26,0,0,1-2.54,2.1,16.64,16.64,0,0,1-2.63,1.55,13.18,13.18,0,0,1-2.92,1,16.43,16.43,0,0,1-3.43.33,12.42,12.42,0,0,1-3.71-.54,8.4,8.4,0,0,1-3-1.67,7.88,7.88,0,0,1-2-2.81,9.72,9.72,0,0,1-.74-3.92,7.48,7.48,0,0,1,1.07-3.81,9.73,9.73,0,0,1,3.5-3.29,22.59,22.59,0,0,1,6.34-2.37,47.09,47.09,0,0,1,9.61-1.06V694c0-2.53-.53-4.42-1.61-5.68a5.93,5.93,0,0,0-4.75-1.88,10.42,10.42,0,0,0-3.55.53,13.67,13.67,0,0,0-2.48,1.17c-.69.43-1.3.82-1.81,1.17a2.76,2.76,0,0,1-1.6.53,1.85,1.85,0,0,1-1.14-.36,3,3,0,0,1-.78-.86Zm18.87,14a49.21,49.21,0,0,0-6.66.61,18.37,18.37,0,0,0-4.46,1.27,6,6,0,0,0-2.47,1.87,4,4,0,0,0-.76,2.39,5.27,5.27,0,0,0,.41,2.16,4.09,4.09,0,0,0,1.12,1.48,4.55,4.55,0,0,0,1.67.85,8.06,8.06,0,0,0,2.08.26,11.5,11.5,0,0,0,2.72-.3,11.12,11.12,0,0,0,2.33-.84,12.19,12.19,0,0,0,2.08-1.33,18.17,18.17,0,0,0,1.94-1.82Z"/><path class="cls-3" d="M206.23,686.5a22.44,22.44,0,0,1,2.28-2.11,14.13,14.13,0,0,1,2.52-1.64,13.54,13.54,0,0,1,6.16-1.43,12.09,12.09,0,0,1,4.87.92,9.8,9.8,0,0,1,3.51,2.59,11.27,11.27,0,0,1,2.15,4,17.58,17.58,0,0,1,.72,5.18v21.35H222V694a8.53,8.53,0,0,0-1.65-5.59,6.17,6.17,0,0,0-5-2,9.56,9.56,0,0,0-4.63,1.17,15.48,15.48,0,0,0-4,3.19v24.58h-6.44V681.84h3.86a1.57,1.57,0,0,1,1.69,1.29Z"/><path class="cls-3" d="M247.15,715.9a8.27,8.27,0,0,1-6.25-2.28,9,9,0,0,1-2.2-6.5V687.06h-3.89a1.26,1.26,0,0,1-1.32-1.39v-2.6l5.45-.76,1.45-10a1.58,1.58,0,0,1,.51-.88,1.47,1.47,0,0,1,1-.31h3.27v11.25h9.5v4.69h-9.5v19.63a4,4,0,0,0,1,3,3.37,3.37,0,0,0,2.49,1,4.67,4.67,0,0,0,1.54-.23,5.38,5.38,0,0,0,1.1-.51l.8-.51a1,1,0,0,1,.59-.23.84.84,0,0,1,.51.14,1.86,1.86,0,0,1,.38.48l1.92,3.11a11.27,11.27,0,0,1-3.77,2.24A13.07,13.07,0,0,1,247.15,715.9Z"/><path class="cls-3" d="M287.71,715.9a8.26,8.26,0,0,1-6.25-2.28q-2.2-2.26-2.2-6.5V687.06h-3.89a1.33,1.33,0,0,1-.94-.35,1.32,1.32,0,0,1-.38-1v-2.6l5.44-.76,1.45-10a1.54,1.54,0,0,1,.52-.88,1.45,1.45,0,0,1,1-.31h3.27v11.25h9.5v4.69h-9.5v19.63a4,4,0,0,0,1,3,3.37,3.37,0,0,0,2.49,1,4.71,4.71,0,0,0,1.54-.23,5.94,5.94,0,0,0,1.1-.51c.31-.19.57-.36.79-.51a1,1,0,0,1,.6-.23.84.84,0,0,1,.51.14,1.86,1.86,0,0,1,.38.48l1.91,3.11a11.22,11.22,0,0,1-3.76,2.24A13.07,13.07,0,0,1,287.71,715.9Z"/><path class="cls-3" d="M315.2,681.32a17.78,17.78,0,0,1,6.68,1.2A13.94,13.94,0,0,1,327,686a15.38,15.38,0,0,1,3.22,5.44,23.41,23.41,0,0,1,0,14.31,15.2,15.2,0,0,1-3.22,5.44,13.89,13.89,0,0,1-5.08,3.45,19.15,19.15,0,0,1-13.4,0,14.14,14.14,0,0,1-5.1-3.45,15.41,15.41,0,0,1-3.25-5.44,23.22,23.22,0,0,1,0-14.31,15.59,15.59,0,0,1,3.25-5.44,14.18,14.18,0,0,1,5.1-3.47A17.88,17.88,0,0,1,315.2,681.32Zm0,29.5q4.76,0,7.09-3.2c1.56-2.14,2.35-5.14,2.35-9s-.79-6.88-2.35-9-3.92-3.21-7.09-3.21-5.61,1.07-7.18,3.21-2.36,5.16-2.36,9,.79,6.87,2.36,9S312,710.82,315.2,710.82Z"/><path class="cls-3" d="M383.7,683.1v2.41c0,.79-.49,1.29-1.48,1.48l-3.6.53a11.67,11.67,0,0,1,.73,2.16,11,11,0,0,1,.26,2.4,10.35,10.35,0,0,1-.95,4.47A10,10,0,0,1,376,700a11.78,11.78,0,0,1-4,2.18,16.28,16.28,0,0,1-5.1.76,17.52,17.52,0,0,1-4.26-.5,4.91,4.91,0,0,0-1.5,1.31,2.39,2.39,0,0,0-.51,1.4,1.86,1.86,0,0,0,1,1.72,7.45,7.45,0,0,0,2.54.8,29.73,29.73,0,0,0,3.6.32c1.35,0,2.73.11,4.12.21a37.28,37.28,0,0,1,4.13.53,12.41,12.41,0,0,1,3.6,1.22,7,7,0,0,1,2.54,2.31,6.77,6.77,0,0,1,1,3.81,9.06,9.06,0,0,1-1.07,4.23,11.33,11.33,0,0,1-3.12,3.63,16.65,16.65,0,0,1-5,2.54,21.44,21.44,0,0,1-6.67,1,25.75,25.75,0,0,1-6.48-.72,15,15,0,0,1-4.59-1.95,8.29,8.29,0,0,1-2.74-2.84,6.71,6.71,0,0,1-.91-3.36,6,6,0,0,1,1.52-4.14,10,10,0,0,1,4.19-2.66,5.83,5.83,0,0,1-2.31-1.8,4.9,4.9,0,0,1-.86-3,4.58,4.58,0,0,1,.27-1.5,5.78,5.78,0,0,1,.81-1.55,7.69,7.69,0,0,1,1.35-1.47,10.23,10.23,0,0,1,1.86-1.25,10.52,10.52,0,0,1-3.89-3.68,10,10,0,0,1-1.42-5.36,10.1,10.1,0,0,1,1-4.46,10.2,10.2,0,0,1,2.65-3.4,12.26,12.26,0,0,1,4.06-2.18,17,17,0,0,1,5.17-.76,14.71,14.71,0,0,1,7.49,1.82Zm-6.53,34a2.7,2.7,0,0,0-.66-1.9,4.58,4.58,0,0,0-1.8-1.12,12.2,12.2,0,0,0-2.66-.59c-1-.12-2.07-.22-3.18-.28s-2.25-.13-3.41-.18-2.29-.16-3.37-.32a9.62,9.62,0,0,0-2.82,2.08,4.14,4.14,0,0,0-1.11,2.87,3.74,3.74,0,0,0,.55,2,4.56,4.56,0,0,0,1.68,1.6,9.68,9.68,0,0,0,2.87,1.06,19.87,19.87,0,0,0,4.14.38,19.31,19.31,0,0,0,4.19-.41,10.51,10.51,0,0,0,3.06-1.16,5.52,5.52,0,0,0,1.88-1.76A4.15,4.15,0,0,0,377.17,717.12Zm-10.26-18.48a9,9,0,0,0,3-.46,5.93,5.93,0,0,0,2.17-1.3,5.26,5.26,0,0,0,1.32-2,7.34,7.34,0,0,0,.45-2.61,6.2,6.2,0,0,0-1.77-4.64,8.62,8.62,0,0,0-10.36,0,6.23,6.23,0,0,0-1.76,4.64,7.37,7.37,0,0,0,.44,2.59,5.5,5.5,0,0,0,1.32,2,6.24,6.24,0,0,0,2.18,1.32A8.64,8.64,0,0,0,366.91,698.64Z"/><path class="cls-3" d="M416.57,710.59a12.56,12.56,0,0,1-2.74,2.39,15.36,15.36,0,0,1-3.3,1.63,19.92,19.92,0,0,1-3.61.93,23.11,23.11,0,0,1-3.68.3,17.29,17.29,0,0,1-6.42-1.18,14.17,14.17,0,0,1-5.11-3.43,15.54,15.54,0,0,1-3.37-5.61,22.76,22.76,0,0,1-1.2-7.7,19.18,19.18,0,0,1,1.08-6.52,15.9,15.9,0,0,1,3.12-5.27,14.54,14.54,0,0,1,5-3.53,16.43,16.43,0,0,1,6.6-1.28,15.52,15.52,0,0,1,5.66,1,12.7,12.7,0,0,1,4.47,2.92A13.39,13.39,0,0,1,416,690a17.76,17.76,0,0,1,1.08,6.41,4,4,0,0,1-.33,2,1.35,1.35,0,0,1-1.22.51h-22a17.7,17.7,0,0,0,.86,5.23,10.47,10.47,0,0,0,2.09,3.72,8.34,8.34,0,0,0,3.19,2.21,11.24,11.24,0,0,0,4.12.72,12.36,12.36,0,0,0,3.71-.49,18.45,18.45,0,0,0,2.71-1.07c.76-.39,1.4-.75,1.91-1.08a2.66,2.66,0,0,1,1.37-.49,1.42,1.42,0,0,1,1.22.59Zm-5.31-15.71a10.8,10.8,0,0,0-.55-3.53,8,8,0,0,0-1.6-2.81,7.25,7.25,0,0,0-2.57-1.84A8.71,8.71,0,0,0,403,686a8.59,8.59,0,0,0-6.38,2.34,11.35,11.35,0,0,0-3,6.5Z"/><path class="cls-3" d="M434.23,715.9a8.3,8.3,0,0,1-6.26-2.28,9,9,0,0,1-2.19-6.5V687.06h-3.9a1.37,1.37,0,0,1-.94-.35,1.35,1.35,0,0,1-.38-1v-2.6l5.45-.76,1.45-10a1.58,1.58,0,0,1,.51-.88,1.49,1.49,0,0,1,1-.31h3.26v11.25h9.51v4.69h-9.51v19.63a4,4,0,0,0,1,3,3.37,3.37,0,0,0,2.49,1,4.65,4.65,0,0,0,1.53-.23,5.75,5.75,0,0,0,1.11-.51c.31-.19.57-.36.79-.51a1,1,0,0,1,.59-.23.89.89,0,0,1,.52.14,2.1,2.1,0,0,1,.38.48l1.91,3.11a11.32,11.32,0,0,1-3.76,2.24A13.07,13.07,0,0,1,434.23,715.9Z"/><path class="cls-3" d="M472.24,671.48a4.12,4.12,0,0,1-.36,1.7,4.68,4.68,0,0,1-1,1.42,4.29,4.29,0,0,1-1.43,1,4.41,4.41,0,0,1-1.72.35,4.18,4.18,0,0,1-1.68-.35,4.37,4.37,0,0,1-1.4-1,4.45,4.45,0,0,1-1-1.42,4.27,4.27,0,0,1-.35-1.7,4.38,4.38,0,0,1,.35-1.73,4.45,4.45,0,0,1,1-1.42,4.51,4.51,0,0,1,1.4-1,4,4,0,0,1,1.68-.35,4.24,4.24,0,0,1,1.72.35,4.42,4.42,0,0,1,1.43,1,4.68,4.68,0,0,1,1,1.42A4.22,4.22,0,0,1,472.24,671.48ZM471,681.84v33.53h-6.43V681.84Z"/><path class="cls-3" d="M486.4,686.5a20.51,20.51,0,0,1,2.28-2.11,14.13,14.13,0,0,1,2.52-1.64,13.43,13.43,0,0,1,2.87-1,13.29,13.29,0,0,1,3.28-.38,12.09,12.09,0,0,1,4.87.92,9.75,9.75,0,0,1,3.52,2.59,11.25,11.25,0,0,1,2.14,4,17.25,17.25,0,0,1,.73,5.18v21.35h-6.47V694a8.53,8.53,0,0,0-1.65-5.59,6.17,6.17,0,0,0-5.05-2,9.6,9.6,0,0,0-4.64,1.17,15.65,15.65,0,0,0-4,3.19v24.58h-6.43V681.84h3.86a1.57,1.57,0,0,1,1.68,1.29Z"/><path class="cls-3" d="M544.44,715.9a8.27,8.27,0,0,1-6.25-2.28,9,9,0,0,1-2.19-6.5V687.06h-3.9a1.26,1.26,0,0,1-1.32-1.39v-2.6l5.45-.76,1.45-10a1.58,1.58,0,0,1,.51-.88,1.47,1.47,0,0,1,1-.31h3.27v11.25h9.5v4.69h-9.5v19.63a4.07,4.07,0,0,0,1,3,3.38,3.38,0,0,0,2.5,1,4.65,4.65,0,0,0,1.53-.23,5.75,5.75,0,0,0,1.11-.51l.79-.51a1,1,0,0,1,.59-.23.84.84,0,0,1,.51.14,1.86,1.86,0,0,1,.38.48l1.92,3.11a11.32,11.32,0,0,1-3.76,2.24A13.13,13.13,0,0,1,544.44,715.9Z"/><path class="cls-3" d="M571.93,681.32a17.83,17.83,0,0,1,6.69,1.2A14,14,0,0,1,583.7,686a15.53,15.53,0,0,1,3.22,5.44,23.41,23.41,0,0,1,0,14.31,15.35,15.35,0,0,1-3.22,5.44,14,14,0,0,1-5.08,3.45,19.15,19.15,0,0,1-13.4,0,14.14,14.14,0,0,1-5.1-3.45,15.26,15.26,0,0,1-3.25-5.44,23,23,0,0,1,0-14.31,15.44,15.44,0,0,1,3.25-5.44,14.18,14.18,0,0,1,5.1-3.47A17.86,17.86,0,0,1,571.93,681.32Zm0,29.5q4.76,0,7.1-3.2t2.34-9q0-5.8-2.34-9t-7.1-3.21q-4.81,0-7.17,3.21c-1.58,2.15-2.36,5.16-2.36,9s.78,6.87,2.36,9S568.72,710.82,571.93,710.82Z"/><path class="cls-3" d="M623.08,681.84v33.53h-3.86a1.64,1.64,0,0,1-1.71-1.28l-.47-3.37a22.43,22.43,0,0,1-2.27,2.11,14.87,14.87,0,0,1-2.54,1.64,14.05,14.05,0,0,1-2.87,1,13.7,13.7,0,0,1-3.27.38,12.09,12.09,0,0,1-4.87-.92,9.63,9.63,0,0,1-3.51-2.59,11.12,11.12,0,0,1-2.15-4,17.58,17.58,0,0,1-.72-5.18V681.84h6.46V703.2a8.55,8.55,0,0,0,1.65,5.59,6.19,6.19,0,0,0,5,2,9.4,9.4,0,0,0,4.62-1.18,15.9,15.9,0,0,0,4-3.21V681.84Z"/><path class="cls-3" d="M655.59,688.12a3.42,3.42,0,0,1-.58.57,1.28,1.28,0,0,1-.81.22,1.88,1.88,0,0,1-1.1-.42,15.76,15.76,0,0,0-1.46-.89,14,14,0,0,0-2.11-.89,9.87,9.87,0,0,0-3-.41,9.74,9.74,0,0,0-4.19.86,8,8,0,0,0-3,2.44,11.34,11.34,0,0,0-1.83,3.86,19.19,19.19,0,0,0-.63,5.12,19,19,0,0,0,.66,5.23,11.4,11.4,0,0,0,1.88,3.86,7.92,7.92,0,0,0,3,2.37,9.2,9.2,0,0,0,3.9.81,9.85,9.85,0,0,0,3.43-.51,11.4,11.4,0,0,0,2.24-1.1,16,16,0,0,0,1.49-1.11,1.85,1.85,0,0,1,1.22-.51,1.43,1.43,0,0,1,1.22.59l1.85,2.38a12.79,12.79,0,0,1-2.59,2.41,14.43,14.43,0,0,1-3.06,1.61,17,17,0,0,1-3.38.93,21.36,21.36,0,0,1-3.58.3,14.87,14.87,0,0,1-5.86-1.16,13.25,13.25,0,0,1-4.72-3.37,16.09,16.09,0,0,1-3.15-5.42,23.61,23.61,0,0,1-.11-14.21,15.22,15.22,0,0,1,3.07-5.46,14.17,14.17,0,0,1,5-3.6,16.72,16.72,0,0,1,6.79-1.3,16.23,16.23,0,0,1,6.34,1.15,15.39,15.39,0,0,1,4.88,3.27Z"/><path class="cls-3" d="M670.11,686.1a18.09,18.09,0,0,1,4.67-3.46,12.62,12.62,0,0,1,5.89-1.32,12,12,0,0,1,4.86.92,9.75,9.75,0,0,1,3.52,2.59,11.25,11.25,0,0,1,2.14,4,17.25,17.25,0,0,1,.73,5.18v21.35h-6.47V694a8.53,8.53,0,0,0-1.65-5.59,6.17,6.17,0,0,0-5-2,9.56,9.56,0,0,0-4.63,1.17,15.31,15.31,0,0,0-4,3.19v24.58h-6.44v-48.7h6.44Z"/><path class="cls-3" d="M703.5,715.37a4,4,0,0,1-1.63-.33,4,4,0,0,1-1.29-.9,4.25,4.25,0,0,1-.84-1.37,4.82,4.82,0,0,1-.3-1.72,3.83,3.83,0,0,1,1.14-2.74,4.21,4.21,0,0,1,1.31-.84,4.3,4.3,0,0,1,1.68-.31,4.24,4.24,0,0,1,1.86.38,3.8,3.8,0,0,1,1.36,1.05,4.49,4.49,0,0,1,.8,1.57,6.53,6.53,0,0,1,.27,1.91,12.33,12.33,0,0,1-.43,3.14,16.68,16.68,0,0,1-1.25,3.26,18.35,18.35,0,0,1-2,3.14,19.86,19.86,0,0,1-2.77,2.81l-1.09-1a1.39,1.39,0,0,1-.5-1,1,1,0,0,1,.15-.48,3.19,3.19,0,0,1,.38-.48l.86-.95a13.24,13.24,0,0,0,1-1.37,14.61,14.61,0,0,0,1-1.72,8.35,8.35,0,0,0,.64-2Z"/><path class="cls-3" d="M760.26,681.84v33.53H756.4a1.66,1.66,0,0,1-1.72-1.28l-.46-3.37a21.51,21.51,0,0,1-2.28,2.11,14.13,14.13,0,0,1-2.54,1.64,13.84,13.84,0,0,1-2.87,1,13.55,13.55,0,0,1-3.26.38,12.09,12.09,0,0,1-4.87-.92,9.75,9.75,0,0,1-3.52-2.59,11.25,11.25,0,0,1-2.14-4,17.25,17.25,0,0,1-.73-5.18V681.84h6.47V703.2a8.55,8.55,0,0,0,1.65,5.59,6.17,6.17,0,0,0,5,2,9.4,9.4,0,0,0,4.62-1.18,15.9,15.9,0,0,0,4-3.21V681.84Z"/><path class="cls-3" d="M789,687.62a1.87,1.87,0,0,1-.56.61,1.47,1.47,0,0,1-.76.18,2.45,2.45,0,0,1-1.18-.36c-.42-.24-.94-.51-1.55-.79a14.17,14.17,0,0,0-2.12-.79,10,10,0,0,0-2.91-.37,8.67,8.67,0,0,0-2.52.35,5.82,5.82,0,0,0-1.93,1,4.12,4.12,0,0,0-1.22,1.45,3.85,3.85,0,0,0-.43,1.8,3,3,0,0,0,.74,2.08,6.13,6.13,0,0,0,1.95,1.41,18.49,18.49,0,0,0,2.73,1.08l3.14,1c1.07.36,2.11.76,3.13,1.21a11.24,11.24,0,0,1,2.74,1.68,7.7,7.7,0,0,1,2,2.43A7.31,7.31,0,0,1,791,705a11.08,11.08,0,0,1-.84,4.34,9.49,9.49,0,0,1-2.47,3.45,11.69,11.69,0,0,1-4,2.28,16.94,16.94,0,0,1-5.51.82,17.34,17.34,0,0,1-6.4-1.15,16,16,0,0,1-4.92-2.94l1.52-2.48a2,2,0,0,1,.66-.7,2,2,0,0,1,1.06-.25,2.26,2.26,0,0,1,1.29.46c.44.31,1,.64,1.58,1a12.16,12.16,0,0,0,2.24,1,10.67,10.67,0,0,0,3.3.44,9.11,9.11,0,0,0,2.87-.41,6,6,0,0,0,2-1.12,4.66,4.66,0,0,0,1.21-1.64,4.91,4.91,0,0,0,.39-1.94,3.26,3.26,0,0,0-.74-2.2,6.31,6.31,0,0,0-2-1.5,15.6,15.6,0,0,0-2.75-1.09c-1-.31-2.09-.64-3.17-1a32.88,32.88,0,0,1-3.17-1.22,10.65,10.65,0,0,1-2.75-1.75,8.07,8.07,0,0,1-1.95-2.57,8.44,8.44,0,0,1-.74-3.7,8.92,8.92,0,0,1,.81-3.73,9.23,9.23,0,0,1,2.34-3.13,11.43,11.43,0,0,1,3.79-2.16,15.29,15.29,0,0,1,5.17-.81,16.42,16.42,0,0,1,6,1,14,14,0,0,1,4.61,2.91Z"/><path class="cls-3" d="M825.47,710.59a12.79,12.79,0,0,1-2.74,2.39,15.83,15.83,0,0,1-3.3,1.63,20.14,20.14,0,0,1-3.61.93,23.21,23.21,0,0,1-3.68.3,17.29,17.29,0,0,1-6.42-1.18,14.21,14.21,0,0,1-5.12-3.43,15.67,15.67,0,0,1-3.36-5.61,22.51,22.51,0,0,1-1.21-7.7,19.18,19.18,0,0,1,1.09-6.52,15.9,15.9,0,0,1,3.12-5.27,14.45,14.45,0,0,1,5-3.53,16.36,16.36,0,0,1,6.6-1.28,15.55,15.55,0,0,1,5.66,1,12.88,12.88,0,0,1,4.47,2.92,13.53,13.53,0,0,1,2.95,4.72,17.77,17.77,0,0,1,1.07,6.41,4,4,0,0,1-.33,2,1.34,1.34,0,0,1-1.22.51h-22a18.37,18.37,0,0,0,.86,5.23,10.64,10.64,0,0,0,2.1,3.72,8.38,8.38,0,0,0,3.18,2.21,11.29,11.29,0,0,0,4.13.72,12.4,12.4,0,0,0,3.71-.49,18.9,18.9,0,0,0,2.71-1.07c.75-.39,1.39-.75,1.91-1.08a2.63,2.63,0,0,1,1.37-.49,1.43,1.43,0,0,1,1.22.59Zm-5.32-15.71a11.07,11.07,0,0,0-.54-3.53,8.11,8.11,0,0,0-1.6-2.81,7.25,7.25,0,0,0-2.57-1.84,8.74,8.74,0,0,0-3.5-.66,8.6,8.6,0,0,0-6.39,2.34,11.35,11.35,0,0,0-2.95,6.5Z"/><path class="cls-3" d="M123.27,795.1a8.27,8.27,0,0,1-6.25-2.28q-2.2-2.27-2.2-6.5V766.26h-3.89a1.26,1.26,0,0,1-1.32-1.39v-2.6l5.44-.76,1.46-10a1.41,1.41,0,0,1,1.48-1.19h3.27v11.25h9.5v4.69h-9.5v19.63a4,4,0,0,0,1,3,3.37,3.37,0,0,0,2.49,1,4.67,4.67,0,0,0,1.54-.23,5.38,5.38,0,0,0,1.1-.51l.8-.51a1,1,0,0,1,.59-.23.84.84,0,0,1,.51.14,1.86,1.86,0,0,1,.38.48l1.91,3.11a11.13,11.13,0,0,1-3.76,2.24A13.07,13.07,0,0,1,123.27,795.1Z"/><path class="cls-3" d="M143.11,765.3a18.21,18.21,0,0,1,4.66-3.46,12.69,12.69,0,0,1,5.9-1.32,12.07,12.07,0,0,1,4.86.92,9.75,9.75,0,0,1,3.52,2.59,11.25,11.25,0,0,1,2.14,4,17.25,17.25,0,0,1,.73,5.18v21.35h-6.47V773.22a8.53,8.53,0,0,0-1.65-5.59,6.17,6.17,0,0,0-5.05-2,9.63,9.63,0,0,0-4.64,1.17,15.65,15.65,0,0,0-4,3.19v24.58h-6.44v-48.7h6.44Z"/><path class="cls-3" d="M201.12,789.79a12.79,12.79,0,0,1-2.74,2.39,15.36,15.36,0,0,1-3.3,1.63,20.14,20.14,0,0,1-3.61.93,23.21,23.21,0,0,1-3.68.3,17.29,17.29,0,0,1-6.42-1.18,14.21,14.21,0,0,1-5.12-3.43,15.58,15.58,0,0,1-3.36-5.61,22.51,22.51,0,0,1-1.21-7.7,19.18,19.18,0,0,1,1.09-6.52,15.76,15.76,0,0,1,3.12-5.26,14.34,14.34,0,0,1,5-3.54,16.36,16.36,0,0,1,6.6-1.28,15.55,15.55,0,0,1,5.66,1,12.88,12.88,0,0,1,4.47,2.92,13.53,13.53,0,0,1,2.95,4.72,17.77,17.77,0,0,1,1.07,6.41,4,4,0,0,1-.33,2,1.34,1.34,0,0,1-1.22.51h-22a18.37,18.37,0,0,0,.86,5.23A10.64,10.64,0,0,0,181,787a8.38,8.38,0,0,0,3.18,2.21,11.29,11.29,0,0,0,4.13.72,12.4,12.4,0,0,0,3.71-.49,18.9,18.9,0,0,0,2.71-1.07c.76-.39,1.39-.75,1.91-1.08a2.63,2.63,0,0,1,1.37-.49,1.43,1.43,0,0,1,1.22.59Zm-5.31-15.71a11.07,11.07,0,0,0-.55-3.53,8.11,8.11,0,0,0-1.6-2.81,7.25,7.25,0,0,0-2.57-1.84,8.74,8.74,0,0,0-3.5-.66,8.6,8.6,0,0,0-6.39,2.34,11.35,11.35,0,0,0-2.95,6.5Z"/><path class="cls-3" d="M227.42,794.57V766.33l-3.5-.43a3,3,0,0,1-1.24-.55,1.32,1.32,0,0,1-.48-1.1v-2.68h5.22v-3a14.79,14.79,0,0,1,.82-5.12,10.72,10.72,0,0,1,2.36-3.81,10.16,10.16,0,0,1,3.7-2.38,14,14,0,0,1,4.87-.8,12.83,12.83,0,0,1,4.19.66l-.13,3.23a.93.93,0,0,1-.27.64,1.37,1.37,0,0,1-.61.32,4.54,4.54,0,0,1-.92.11l-1.17,0a9.56,9.56,0,0,0-2.71.36,4.85,4.85,0,0,0-2.08,1.22,5.76,5.76,0,0,0-1.32,2.26,11.27,11.27,0,0,0-.46,3.49v2.83h9.4v4.69h-9.2v28.31Z"/><path class="cls-3" d="M261.74,760.52a17.78,17.78,0,0,1,6.68,1.2,13.94,13.94,0,0,1,5.08,3.47,15.38,15.38,0,0,1,3.22,5.44,23.41,23.41,0,0,1,0,14.31,15.2,15.2,0,0,1-3.22,5.44,13.89,13.89,0,0,1-5.08,3.45,19.15,19.15,0,0,1-13.4,0,14.14,14.14,0,0,1-5.1-3.45,15.41,15.41,0,0,1-3.25-5.44,23.22,23.22,0,0,1,0-14.31,15.59,15.59,0,0,1,3.25-5.44,14.18,14.18,0,0,1,5.1-3.47A17.88,17.88,0,0,1,261.74,760.52Zm0,29.5q4.75,0,7.09-3.2t2.35-9q0-5.8-2.35-9t-7.09-3.21c-3.21,0-5.61,1.07-7.18,3.21s-2.36,5.16-2.36,9,.79,6.87,2.36,9S258.53,790,261.74,790Z"/><path class="cls-3" d="M291.07,767.48a15.31,15.31,0,0,1,3.9-5.18,8.34,8.34,0,0,1,5.48-1.88,8.13,8.13,0,0,1,2.06.25,5.25,5.25,0,0,1,1.7.74l-.43,4.85a1,1,0,0,1-1.09.89,8,8,0,0,1-1.39-.18,10.26,10.26,0,0,0-2-.18,7.89,7.89,0,0,0-2.73.44,6.35,6.35,0,0,0-2.13,1.32,8.93,8.93,0,0,0-1.67,2.15,22.34,22.34,0,0,0-1.35,2.89v21H285V761.05h3.7a2,2,0,0,1,1.43.38,2.4,2.4,0,0,1,.55,1.33Z"/><path class="cls-3" d="M309.19,794.57V761.05h3.86a1.56,1.56,0,0,1,1.68,1.28l.47,3.2a17.21,17.21,0,0,1,4.11-3.61,9.85,9.85,0,0,1,5.29-1.4,7.88,7.88,0,0,1,5.41,1.83,10.53,10.53,0,0,1,3,5,10.24,10.24,0,0,1,1.88-3.07,10.57,10.57,0,0,1,2.58-2.12,12,12,0,0,1,3-1.22,13.7,13.7,0,0,1,3.25-.39,12.68,12.68,0,0,1,4.77.84,9.37,9.37,0,0,1,3.55,2.46,10.72,10.72,0,0,1,2.21,4,17.63,17.63,0,0,1,.76,5.41v21.35h-6.47V773.22q0-3.76-1.63-5.67a5.92,5.92,0,0,0-4.77-1.92,7.35,7.35,0,0,0-2.64.48,6,6,0,0,0-2.19,1.44,6.7,6.7,0,0,0-1.49,2.37,9.28,9.28,0,0,0-.54,3.3v21.35h-6.47V773.22c0-2.59-.52-4.51-1.55-5.74a5.63,5.63,0,0,0-4.56-1.85,7.34,7.34,0,0,0-3.86,1.09,12.57,12.57,0,0,0-3.26,3v24.88Z"/><path class="cls-3" d="M363.77,790.71a4.34,4.34,0,0,1,.33-1.68,4.24,4.24,0,0,1,.93-1.39,4.44,4.44,0,0,1,1.38-.94,4.26,4.26,0,0,1,1.72-.34,4.17,4.17,0,0,1,1.68.34,4.42,4.42,0,0,1,2.33,2.33,4.17,4.17,0,0,1,.34,1.68,4.26,4.26,0,0,1-.34,1.72,4.44,4.44,0,0,1-.94,1.38,4.24,4.24,0,0,1-1.39.93,4.34,4.34,0,0,1-1.68.33,4.43,4.43,0,0,1-1.72-.33,4.35,4.35,0,0,1-2.31-2.31A4.43,4.43,0,0,1,363.77,790.71Zm7.53-43.52v18.87c0,1,0,2-.07,2.91s-.1,1.89-.18,2.85-.17,1.94-.28,2.95-.23,2.08-.36,3.2h-4.36c-.13-1.12-.25-2.18-.36-3.2s-.21-2-.28-2.95-.14-1.91-.19-2.85-.06-1.92-.06-2.91V747.19Z"/><path class="cls-3" d="M394.16,747.28H399a2,2,0,0,1,1.32.42,1.68,1.68,0,0,1,.6,1.07L406,782.23c0,.31.08.68.11,1.12s.07.87.12,1.29,0,1,.07,1.49c.21-.71.44-1.39.67-2s.47-1.28.71-1.85l14.16-33.46a2.72,2.72,0,0,1,.86-1,2.16,2.16,0,0,1,1.38-.47h1.42a2,2,0,0,1,1.32.42,1.81,1.81,0,0,1,.63,1.07l5.91,33.46c.11.57.19,1.18.26,1.82s.12,1.31.16,2c.22-.7.43-1.38.61-2s.39-1.25.62-1.82l13.29-33.46a2.45,2.45,0,0,1,.88-1,2.4,2.4,0,0,1,1.43-.47h4.82L436,794.57h-5.58l-6.4-36.4c-.06-.35-.12-.73-.18-1.15s-.1-.85-.15-1.29l-.44,1.29c-.15.42-.3.8-.45,1.15l-15.34,36.4H402Z"/><path class="cls-3" d="M477.62,768.31a9.06,9.06,0,0,1-.89,4,8.17,8.17,0,0,1-3.27,3.3,24.09,24.09,0,0,1-6.53,2.56,71.55,71.55,0,0,1-10.69,1.75c0,.24,0,.48,0,.71v.71c0,2.95.65,5.2,1.93,6.75a7.15,7.15,0,0,0,5.83,2.33,10.92,10.92,0,0,0,2.82-.33,11.86,11.86,0,0,0,2.21-.81,9.85,9.85,0,0,0,1.72-1.06c.49-.38,1-.74,1.37-1.05s.8-.59,1.15-.81a2,2,0,0,1,1.06-.33,1.43,1.43,0,0,1,1.09.56l1.45,1.81a31.12,31.12,0,0,1-3.28,3,19.71,19.71,0,0,1-3.29,2.06,15,15,0,0,1-3.51,1.21,19.69,19.69,0,0,1-3.95.38,13.08,13.08,0,0,1-5.14-1,10.69,10.69,0,0,1-3.86-2.72,12.15,12.15,0,0,1-2.45-4.28,17.3,17.3,0,0,1-.85-5.61,24.84,24.84,0,0,1,.54-5.13,24.12,24.12,0,0,1,1.58-4.87,22,22,0,0,1,2.55-4.29,16.79,16.79,0,0,1,3.43-3.41,15.89,15.89,0,0,1,4.25-2.26,14.86,14.86,0,0,1,5-.83,12,12,0,0,1,4.39.73,9.25,9.25,0,0,1,3,1.85,7.36,7.36,0,0,1,1.76,2.47A6.48,6.48,0,0,1,477.62,768.31Zm-10.1-3.4a8.56,8.56,0,0,0-3.82.85,10.42,10.42,0,0,0-3.11,2.36,14.76,14.76,0,0,0-2.31,3.53A21.69,21.69,0,0,0,456.8,776a64.16,64.16,0,0,0,8.15-1.44,20.12,20.12,0,0,0,4.72-1.75,4.52,4.52,0,0,0,2.7-4.3,3.17,3.17,0,0,0-.26-1.24,3.34,3.34,0,0,0-.84-1.17,4.72,4.72,0,0,0-1.5-.88A6.5,6.5,0,0,0,467.52,764.91Z"/><path class="cls-3" d="M494.62,794.57l5.9-48.61h5.78l-5.91,48.61Z"/><path class="cls-3" d="M521.64,795a12.93,12.93,0,0,1-5-.95,10.89,10.89,0,0,1-3.93-2.72,12.69,12.69,0,0,1-2.58-4.35,17.53,17.53,0,0,1-.92-5.88,23.68,23.68,0,0,1,1.32-7.95,21.73,21.73,0,0,1,3.61-6.53,17.2,17.2,0,0,1,5.42-4.43,14.52,14.52,0,0,1,6.75-1.61,13,13,0,0,1,5,.94,10.89,10.89,0,0,1,3.93,2.72,12.52,12.52,0,0,1,2.57,4.37,17.28,17.28,0,0,1,.93,5.86,23.59,23.59,0,0,1-1.32,7.92A21.53,21.53,0,0,1,533.8,789a17.29,17.29,0,0,1-5.43,4.44A14.34,14.34,0,0,1,521.64,795Zm.53-4.59a7.74,7.74,0,0,0,4.39-1.32,11.45,11.45,0,0,0,3.36-3.52,18,18,0,0,0,2.15-5.06,23.29,23.29,0,0,0,.76-6q0-4.62-1.82-7a6.24,6.24,0,0,0-5.24-2.34,7.79,7.79,0,0,0-4.41,1.3A11.59,11.59,0,0,0,518,770a18,18,0,0,0-2.14,5.06,23.29,23.29,0,0,0-.76,6q0,4.62,1.8,7A6.21,6.21,0,0,0,522.17,790.45Z"/><path class="cls-3" d="M554.81,795a13,13,0,0,1-5-.95,10.89,10.89,0,0,1-3.93-2.72,12.52,12.52,0,0,1-2.57-4.35,17.28,17.28,0,0,1-.93-5.88,23.68,23.68,0,0,1,1.32-7.95,21.53,21.53,0,0,1,3.62-6.53,17.16,17.16,0,0,1,5.41-4.43,14.54,14.54,0,0,1,6.75-1.61,12.92,12.92,0,0,1,5,.94,10.89,10.89,0,0,1,3.93,2.72,12.69,12.69,0,0,1,2.58,4.37,17.54,17.54,0,0,1,.92,5.86,23.59,23.59,0,0,1-1.32,7.92A21.51,21.51,0,0,1,567,789a17.29,17.29,0,0,1-5.43,4.44A14.37,14.37,0,0,1,554.81,795Zm.52-4.59a7.74,7.74,0,0,0,4.39-1.32,11.48,11.48,0,0,0,3.37-3.52,18,18,0,0,0,2.14-5.06,23.29,23.29,0,0,0,.76-6q0-4.62-1.81-7a6.24,6.24,0,0,0-5.25-2.34,7.74,7.74,0,0,0-4.4,1.3,11.47,11.47,0,0,0-3.35,3.5A18,18,0,0,0,549,775.1a23.29,23.29,0,0,0-.76,6q0,4.62,1.8,7A6.21,6.21,0,0,0,555.33,790.45Z"/><path class="cls-3" d="M588,746l-3.5,28.62h1a2.84,2.84,0,0,0,1.09-.19,2.88,2.88,0,0,0,1-.74l11-11.32a6.9,6.9,0,0,1,1-.86,2.31,2.31,0,0,1,1.28-.33h5.18l-12.9,13.11c-.33.35-.65.67-1,1a6,6,0,0,1-1,.77,4.12,4.12,0,0,1,.89.93c.24.35.48.74.72,1.15l10,16.5h-5a2.21,2.21,0,0,1-1.17-.26,2.37,2.37,0,0,1-.81-.89l-8.52-13.7a2.59,2.59,0,0,0-.84-.89,2.91,2.91,0,0,0-1.33-.23H584l-1.94,16h-5.81l6-48.61Z"/><path class="cls-3" d="M630.44,766l-3.33,27.45-1.52,6.84a2.84,2.84,0,0,1-3,2.47h-2.31l4.46-36.66-3.3-.43a2.33,2.33,0,0,1-.89-.46,1.11,1.11,0,0,1-.33-.86l.26-2.58h4.79l.39-3.23a16.33,16.33,0,0,1,1.44-5.1,12.48,12.48,0,0,1,2.7-3.76,11.33,11.33,0,0,1,3.73-2.33,12.84,12.84,0,0,1,4.51-.79,10,10,0,0,1,3.73.68l-.56,3a.66.66,0,0,1-.45.58,3.7,3.7,0,0,1-1,.11h-1.39a8.13,8.13,0,0,0-2.62.41,5.52,5.52,0,0,0-2.13,1.33,7.32,7.32,0,0,0-1.55,2.41,13.23,13.23,0,0,0-.89,3.61l-.4,3.06h8.35l-.56,4.23Z"/><path class="cls-3" d="M652.32,795a13,13,0,0,1-5-.95,10.85,10.85,0,0,1-3.92-2.72A12.69,12.69,0,0,1,640.8,787a17.53,17.53,0,0,1-.92-5.88,23.68,23.68,0,0,1,1.32-7.95,21.51,21.51,0,0,1,3.61-6.53,17.16,17.16,0,0,1,5.41-4.43,14.54,14.54,0,0,1,6.75-1.61,13,13,0,0,1,5,.94,10.85,10.85,0,0,1,3.92,2.72,12.69,12.69,0,0,1,2.58,4.37,17.54,17.54,0,0,1,.92,5.86,23.59,23.59,0,0,1-1.32,7.92,21.51,21.51,0,0,1-3.61,6.53,17.29,17.29,0,0,1-5.43,4.44A14.34,14.34,0,0,1,652.32,795Zm.53-4.59a7.76,7.76,0,0,0,4.39-1.32,11.45,11.45,0,0,0,3.36-3.52,18,18,0,0,0,2.15-5.06,23.74,23.74,0,0,0,.76-6q0-4.62-1.82-7a6.24,6.24,0,0,0-5.25-2.34,7.78,7.78,0,0,0-4.4,1.3,11.47,11.47,0,0,0-3.35,3.5,18,18,0,0,0-2.15,5.06,23.74,23.74,0,0,0-.76,6q0,4.62,1.8,7A6.23,6.23,0,0,0,652.85,790.45Z"/><path class="cls-3" d="M673.57,794.57l4-33.46h2.93a2.26,2.26,0,0,1,1.45.43,1.59,1.59,0,0,1,.53,1.32c0,.09,0,.22,0,.38s0,.34,0,.51,0,.33,0,.46,0,.21,0,.23l-.46,6.08a23.06,23.06,0,0,1,4.8-7.13,8.11,8.11,0,0,1,5.6-2.51,7.11,7.11,0,0,1,2.77.59l-1.06,5.65a7.92,7.92,0,0,0-3-.63,7.25,7.25,0,0,0-5.71,3.12q-2.51,3.12-4.19,9.45l-1.85,15.51Z"/><path class="cls-3" d="M697.07,761.14h4.38a1.76,1.76,0,0,1,1.08.33,1.34,1.34,0,0,1,.48.9l3.06,21.51a19.55,19.55,0,0,1,.19,2.23c0,.71,0,1.42,0,2.13.26-.71.53-1.42.8-2.13s.57-1.46.88-2.23l9.14-21.65a1.9,1.9,0,0,1,.64-.82,1.67,1.67,0,0,1,1-.33h2.44a1.46,1.46,0,0,1,1,.33,1.25,1.25,0,0,1,.43.82l3.73,21.65c.13.77.24,1.52.32,2.25l.21,2.17c.22-.7.43-1.42.64-2.16a23.39,23.39,0,0,1,.78-2.26l8.45-21.51a1.86,1.86,0,0,1,.66-.88,1.72,1.72,0,0,1,1-.35h4.23l-14,33.43h-4.45c-.51,0-.83-.37-1-1.12l-4.06-22.67c-.06-.35-.12-.71-.16-1.07s-.09-.72-.14-1.08c-.11.38-.22.74-.33,1.09s-.24.72-.39,1.09l-9.67,22.64c-.31.75-.75,1.12-1.32,1.12h-4.29Z"/><path class="cls-3" d="M768.15,794.57h-3a1.79,1.79,0,0,1-1.57-.59,2.53,2.53,0,0,1-.41-1.45l.59-6.7a27.94,27.94,0,0,1-2.55,3.8,17.71,17.71,0,0,1-2.91,2.9,12.71,12.71,0,0,1-3.21,1.85,9.54,9.54,0,0,1-3.5.66,8.19,8.19,0,0,1-3.6-.78A7.44,7.44,0,0,1,745.2,792a11.11,11.11,0,0,1-1.77-3.69,18.33,18.33,0,0,1-.63-5,22.43,22.43,0,0,1,.75-5.79,23.53,23.53,0,0,1,5.39-9.93,22,22,0,0,1,4.27-3.63,21,21,0,0,1,5.07-2.38,19,19,0,0,1,5.68-.84,24.79,24.79,0,0,1,4.17.35,17.59,17.59,0,0,1,4,1.22Zm-14.39-4.42a5.84,5.84,0,0,0,3.17-1,12,12,0,0,0,2.93-2.74,23.56,23.56,0,0,0,2.59-4.18,35.83,35.83,0,0,0,2.13-5.31l1.42-11.3a2.24,2.24,0,0,0-1.43-.59h-1.41a11.47,11.47,0,0,0-3.82.64,13.93,13.93,0,0,0-3.47,1.79,15.57,15.57,0,0,0-2.94,2.75,18.3,18.3,0,0,0-2.26,3.51,20.84,20.84,0,0,0-1.47,4.06,18.71,18.71,0,0,0-.52,4.43Q748.68,790.16,753.76,790.15Z"/><path class="cls-3" d="M776.89,794.57l4-33.46h2.93a2.31,2.31,0,0,1,1.46.43,1.61,1.61,0,0,1,.52,1.32c0,.09,0,.22,0,.38s0,.34,0,.51,0,.33,0,.46,0,.21,0,.23l-.47,6.08a23.06,23.06,0,0,1,4.8-7.13,8.13,8.13,0,0,1,5.6-2.51,7.08,7.08,0,0,1,2.77.59l-1.06,5.65a7.92,7.92,0,0,0-3-.63,7.25,7.25,0,0,0-5.71,3.12q-2.5,3.12-4.19,9.45l-1.85,15.51Z"/><path class="cls-3" d="M821.34,794.57a1.75,1.75,0,0,1-1.56-.59,2.46,2.46,0,0,1-.42-1.45l.63-7a27.86,27.86,0,0,1-2.74,3.9,19.3,19.3,0,0,1-3.12,3,13.61,13.61,0,0,1-3.4,1.92,9.93,9.93,0,0,1-3.58.68,7.86,7.86,0,0,1-6.65-3.12q-2.36-3.12-2.36-9.06a26.79,26.79,0,0,1,.56-5.41,27.84,27.84,0,0,1,1.61-5.18,25.21,25.21,0,0,1,2.5-4.61,19.45,19.45,0,0,1,3.27-3.68,14.71,14.71,0,0,1,3.91-2.44,11.33,11.33,0,0,1,4.42-.89,10.3,10.3,0,0,1,4.47,1,9.38,9.38,0,0,1,3.45,2.74L824.61,746h5.77l-6,48.61Zm-12-4.25a6.11,6.11,0,0,0,3.19-1,13.57,13.57,0,0,0,3.1-2.7,23.45,23.45,0,0,0,2.81-4.13,33.75,33.75,0,0,0,2.26-5.23l1.08-8.84a7,7,0,0,0-3-2.48,9.17,9.17,0,0,0-3.53-.72,7.67,7.67,0,0,0-4.7,1.55,13.48,13.48,0,0,0-3.57,4,21.4,21.4,0,0,0-2.26,5.49,24,24,0,0,0-.79,6,10.5,10.5,0,0,0,1.42,6A4.57,4.57,0,0,0,809.36,790.32Z"/><path class="cls-3" d="M203.26,867.47c0-.13,0-.3,0-.51s0-.51.06-.91.09-.91.15-1.55.17-1.47.3-2.51l2.08-16.73h-3.73a1,1,0,0,1-.71-.25,1,1,0,0,1-.28-.77c0-.07,0-.2,0-.4s0-.42.09-.67l.09-.78c0-.26.06-.52.09-.76l5.14-.69,2.48-10.33a1.6,1.6,0,0,1,.49-.81,1.33,1.33,0,0,1,.9-.31h3.1L212.11,841h8.77l-.49,4.25h-8.81l-2,16.44c-.11.9-.19,1.62-.24,2.17s-.1,1-.13,1.32-.06.57-.07.7,0,.23,0,.29a3.48,3.48,0,0,0,.78,2.5,2.82,2.82,0,0,0,2.13.8,4.39,4.39,0,0,0,1.51-.24,6.74,6.74,0,0,0,1.14-.55q.48-.3.81-.54a1,1,0,0,1,.6-.25.59.59,0,0,1,.41.13,1.65,1.65,0,0,1,.31.43l1.22,2.81a12,12,0,0,1-3.64,2.22,11.3,11.3,0,0,1-4.15.81,7,7,0,0,1-5-1.75A6.85,6.85,0,0,1,203.26,867.47Z"/><path class="cls-3" d="M234.88,874.24a13.16,13.16,0,0,1-5-.94,11,11,0,0,1-3.93-2.73,12.52,12.52,0,0,1-2.57-4.35,17.28,17.28,0,0,1-.93-5.88,23.44,23.44,0,0,1,1.33-8,21.3,21.3,0,0,1,3.61-6.53,17.16,17.16,0,0,1,5.41-4.43,14.54,14.54,0,0,1,6.75-1.61,13,13,0,0,1,5,.94,10.94,10.94,0,0,1,3.92,2.72,12.69,12.69,0,0,1,2.58,4.37,17.54,17.54,0,0,1,.92,5.86,23.59,23.59,0,0,1-1.32,7.92,21.51,21.51,0,0,1-3.61,6.53,17.29,17.29,0,0,1-5.43,4.44A14.37,14.37,0,0,1,234.88,874.24Zm.52-4.59a7.74,7.74,0,0,0,4.39-1.32,11.6,11.6,0,0,0,3.37-3.52,18,18,0,0,0,2.14-5.06,23.29,23.29,0,0,0,.76-6q0-4.62-1.81-7a6.24,6.24,0,0,0-5.25-2.34,7.74,7.74,0,0,0-4.4,1.3,11.47,11.47,0,0,0-3.35,3.5,18,18,0,0,0-2.15,5.06,23.29,23.29,0,0,0-.76,6q0,4.62,1.8,7A6.21,6.21,0,0,0,235.4,869.65Z"/><path class="cls-3" d="M269.13,873.77,275,825.16h5.88l-2.74,22.58a19.73,19.73,0,0,1,5.79-5.89,12,12,0,0,1,6.52-2,7.12,7.12,0,0,1,5.84,2.51q2,2.5,2,7.29c0,.44,0,.9,0,1.37s-.07,1-.13,1.47l-2.51,21.28h-5.87l2.5-21.28c0-.44.09-.86.12-1.27s0-.8,0-1.17a6.62,6.62,0,0,0-1-4,3.74,3.74,0,0,0-3.18-1.32,6.6,6.6,0,0,0-3,.81,12.34,12.34,0,0,0-3.06,2.29,19.68,19.68,0,0,0-2.77,3.58,26.94,26.94,0,0,0-2.24,4.67L275,873.77Z"/><path class="cls-3" d="M330.57,847.51a8.92,8.92,0,0,1-.89,4,8.2,8.2,0,0,1-3.26,3.3,24.31,24.31,0,0,1-6.54,2.56,71.33,71.33,0,0,1-10.69,1.75c0,.24,0,.48,0,.71v.71q0,4.43,1.93,6.75a7.14,7.14,0,0,0,5.82,2.33,10.92,10.92,0,0,0,2.82-.33,12,12,0,0,0,2.22-.81,9.75,9.75,0,0,0,1.71-1.06c.5-.38.95-.74,1.37-1a14,14,0,0,1,1.16-.81,2,2,0,0,1,1.05-.33,1.42,1.42,0,0,1,1.09.56l1.45,1.81a30.16,30.16,0,0,1-3.28,3,19.63,19.63,0,0,1-3.28,2.06,15.27,15.27,0,0,1-3.52,1.21,19.59,19.59,0,0,1-3.94.38,13.13,13.13,0,0,1-5.15-1,10.69,10.69,0,0,1-3.86-2.72,12.13,12.13,0,0,1-2.44-4.28,17,17,0,0,1-.86-5.61,24.84,24.84,0,0,1,.54-5.13,24.14,24.14,0,0,1,1.59-4.87,21.94,21.94,0,0,1,2.54-4.29,17,17,0,0,1,3.43-3.41,16.1,16.1,0,0,1,4.26-2.26,14.82,14.82,0,0,1,5-.83,12.12,12.12,0,0,1,4.39.73,9.2,9.2,0,0,1,3,1.85,7.53,7.53,0,0,1,1.77,2.47A6.63,6.63,0,0,1,330.57,847.51Zm-10.09-3.4a8.45,8.45,0,0,0-3.83.86,10.07,10.07,0,0,0-3.1,2.35,14.18,14.18,0,0,0-2.31,3.53,21.11,21.11,0,0,0-1.49,4.38,63.83,63.83,0,0,0,8.15-1.44,20.12,20.12,0,0,0,4.72-1.75,5,5,0,0,0,2.18-2,5.14,5.14,0,0,0,.53-2.27,3.19,3.19,0,0,0-.27-1.24,3.11,3.11,0,0,0-.84-1.17,4.51,4.51,0,0,0-1.5-.88A6.44,6.44,0,0,0,320.48,844.11Z"/><path class="cls-3" d="M358.86,873.77h-3a1.79,1.79,0,0,1-1.57-.59,2.53,2.53,0,0,1-.41-1.45l.59-6.7a27.94,27.94,0,0,1-2.55,3.8,18.11,18.11,0,0,1-2.91,2.9,12.59,12.59,0,0,1-3.22,1.85,9.45,9.45,0,0,1-3.49.66,8.19,8.19,0,0,1-3.6-.78,7.55,7.55,0,0,1-2.76-2.28,11.1,11.1,0,0,1-1.76-3.69,18.33,18.33,0,0,1-.63-5,22.87,22.87,0,0,1,.74-5.79,23.71,23.71,0,0,1,2.12-5.33,23.32,23.32,0,0,1,3.28-4.6,21.73,21.73,0,0,1,4.27-3.63,20.8,20.8,0,0,1,5.07-2.38,19,19,0,0,1,5.67-.84,24.91,24.91,0,0,1,4.18.35,17.59,17.59,0,0,1,4,1.22Zm-14.39-4.42a5.84,5.84,0,0,0,3.17-1,12,12,0,0,0,2.93-2.74,23.56,23.56,0,0,0,2.59-4.18,37,37,0,0,0,2.13-5.31l1.42-11.3a2.24,2.24,0,0,0-1.44-.59h-1.4a11.58,11.58,0,0,0-3.83.64,14,14,0,0,0-3.46,1.79,15.57,15.57,0,0,0-2.94,2.75,18.3,18.3,0,0,0-2.26,3.51,20.21,20.21,0,0,0-1.47,4.06,18.71,18.71,0,0,0-.52,4.43Q339.39,869.36,344.47,869.35Z"/><path class="cls-3" d="M367.6,873.77l4-33.46h2.93a2.26,2.26,0,0,1,1.45.43,1.59,1.59,0,0,1,.53,1.32c0,.09,0,.22,0,.38s0,.34,0,.51,0,.33,0,.46,0,.21,0,.23l-.46,6.08a23.06,23.06,0,0,1,4.8-7.13,8.11,8.11,0,0,1,5.6-2.51,7,7,0,0,1,2.77.6l-1.06,5.64a7.92,7.92,0,0,0-3-.63,7.25,7.25,0,0,0-5.71,3.12q-2.5,3.12-4.19,9.45l-1.85,15.51Z"/><path class="cls-3" d="M401.36,840.34l-4,33.43h-5.77l4-33.43Zm2.21-10.49a3.74,3.74,0,0,1-.35,1.6,4.54,4.54,0,0,1-.92,1.32,4.43,4.43,0,0,1-1.3.91,3.65,3.65,0,0,1-1.52.33,3.58,3.58,0,0,1-1.49-.33,4.06,4.06,0,0,1-1.27-.91,4.59,4.59,0,0,1-.87-1.32,3.88,3.88,0,0,1-.33-1.6,4,4,0,0,1,.33-1.62,4.31,4.31,0,0,1,.89-1.33A4.25,4.25,0,0,1,398,826a3.37,3.37,0,0,1,1.48-.34A3.65,3.65,0,0,1,401,826a4.46,4.46,0,0,1,1.3.9,4.22,4.22,0,0,1,.91,1.36A4.09,4.09,0,0,1,403.57,829.85Z"/><path class="cls-3" d="M406.84,873.77l4-33.46h2.94a1.75,1.75,0,0,1,2,2l-.5,6.47a20.77,20.77,0,0,1,6-6.67,12.38,12.38,0,0,1,7-2.24,7.07,7.07,0,0,1,5.79,2.51c1.38,1.67,2.06,4.11,2.06,7.32,0,.44,0,.89,0,1.36s-.06.94-.13,1.45l-2.51,21.28h-5.87L430,852.49c0-.44.08-.86.11-1.27s.05-.8.05-1.17a6.53,6.53,0,0,0-1-4,3.73,3.73,0,0,0-3.15-1.31,6.87,6.87,0,0,0-3.21.86,12.57,12.57,0,0,0-3.16,2.43,19.87,19.87,0,0,0-2.82,3.79,27,27,0,0,0-2.23,5l-1.91,17Z"/><path class="cls-3" d="M466.14,849.62a11.62,11.62,0,0,1-.42,3,13.59,13.59,0,0,1-.94,2.44,18.76,18.76,0,0,1-1.22,2.11c-.44.66-.84,1.32-1.22,2a13.75,13.75,0,0,0-.94,2,6.62,6.62,0,0,0-.38,2.26,4.77,4.77,0,0,0,.68,2.51c.45.75.94,1.52,1.48,2.31a19.5,19.5,0,0,1,1.49,2.59,7.6,7.6,0,0,1,.67,3.32,9.58,9.58,0,0,1-1.08,4.44,11.71,11.71,0,0,1-3.11,3.71,15,15,0,0,1-4.9,2.55,20.72,20.72,0,0,1-6.48.95,21.17,21.17,0,0,1-5.23-.6,13.25,13.25,0,0,1-4-1.68,8,8,0,0,1-2.57-2.63,6.47,6.47,0,0,1-.91-3.38,7.51,7.51,0,0,1,1.35-4.49,10.79,10.79,0,0,1,3.57-3.1,17.59,17.59,0,0,1,5-1.78,29.76,29.76,0,0,1,5.76-.56c.79,0,1.58,0,2.36.1s1.55.15,2.32.26a8.39,8.39,0,0,1-.47-1.3,5.28,5.28,0,0,1-.19-1.47,7.56,7.56,0,0,1,.32-2.11,12.25,12.25,0,0,1,1-2.44,10.09,10.09,0,0,1-2.81,1.32,12.64,12.64,0,0,1-3.53.46,10.06,10.06,0,0,1-3.58-.63,8.35,8.35,0,0,1-2.92-1.85,8.48,8.48,0,0,1-2-3,11.6,11.6,0,0,1-.73-4.27,13.06,13.06,0,0,1,.88-4.67,12.22,12.22,0,0,1,2.56-4.09,12.36,12.36,0,0,1,4.15-2.89,14,14,0,0,1,5.71-1.09,11.41,11.41,0,0,1,6.31,1.72h9.07l-.26,1.94a2.34,2.34,0,0,1-.38,1,1.36,1.36,0,0,1-.94.56l-4.16.72a11.29,11.29,0,0,1,.46,1.8A11.55,11.55,0,0,1,466.14,849.62Zm-6.14,25a7.34,7.34,0,0,0-.17-1.6,8.47,8.47,0,0,0-.43-1.4c-1.18-.2-2.3-.34-3.35-.43s-2-.14-2.95-.14a20.05,20.05,0,0,0-4.68.48,11.62,11.62,0,0,0-3.27,1.27,5.58,5.58,0,0,0-1.92,1.84,4.17,4.17,0,0,0-.62,2.16,4,4,0,0,0,2,3.63,10.72,10.72,0,0,0,5.66,1.25,12.8,12.8,0,0,0,4-.58,10.14,10.14,0,0,0,3.07-1.53,7,7,0,0,0,2-2.25A5.53,5.53,0,0,0,460,874.6Zm-6.6-15.91a6.23,6.23,0,0,0,3.13-.77,7.39,7.39,0,0,0,2.3-2,9.78,9.78,0,0,0,1.43-2.85,10.73,10.73,0,0,0,.5-3.2,6,6,0,0,0-1.47-4.39,5.44,5.44,0,0,0-4-1.49,6.47,6.47,0,0,0-3.14.73,7,7,0,0,0-2.28,1.94,9.09,9.09,0,0,0-1.4,2.78,10.84,10.84,0,0,0-.48,3.23,6.41,6.41,0,0,0,1.44,4.52A5.17,5.17,0,0,0,453.4,858.69Z"/><path class="cls-3" d="M494.94,845.23l-3.33,27.45-1.52,6.84a2.83,2.83,0,0,1-3,2.47h-2.31l4.45-36.66-3.3-.43a2.4,2.4,0,0,1-.89-.46,1.11,1.11,0,0,1-.33-.86L485,841h4.78l.4-3.24a16.61,16.61,0,0,1,1.43-5.1,12.68,12.68,0,0,1,2.71-3.76,11.23,11.23,0,0,1,3.73-2.33,12.78,12.78,0,0,1,4.5-.79,9.91,9.91,0,0,1,3.73.68l-.56,3a.63.63,0,0,1-.45.58,3.65,3.65,0,0,1-1,.11h-1.39a8.18,8.18,0,0,0-2.62.41,5.67,5.67,0,0,0-2.13,1.33,7.65,7.65,0,0,0-1.55,2.41,13.61,13.61,0,0,0-.89,3.61l-.4,3.07h8.35l-.56,4.22Z"/><path class="cls-3" d="M504.91,873.77l4-33.46h2.93a2.26,2.26,0,0,1,1.45.43,1.59,1.59,0,0,1,.53,1.32c0,.09,0,.22,0,.38s0,.34,0,.51,0,.33,0,.46,0,.21,0,.23l-.46,6.08a23.06,23.06,0,0,1,4.8-7.13,8.11,8.11,0,0,1,5.6-2.51,7,7,0,0,1,2.77.6l-1.06,5.64a7.92,7.92,0,0,0-3-.63,7.25,7.25,0,0,0-5.71,3.12q-2.51,3.12-4.19,9.45l-1.85,15.51Z"/><path class="cls-3" d="M538.67,874.24a13.16,13.16,0,0,1-5-.94,11.09,11.09,0,0,1-3.92-2.73,12.69,12.69,0,0,1-2.58-4.35,17.53,17.53,0,0,1-.92-5.88,23.68,23.68,0,0,1,1.32-8,21.51,21.51,0,0,1,3.61-6.53,17.27,17.27,0,0,1,5.41-4.43,14.54,14.54,0,0,1,6.75-1.61,13,13,0,0,1,5,.94,10.89,10.89,0,0,1,3.93,2.72,12.67,12.67,0,0,1,2.57,4.37,17.29,17.29,0,0,1,.92,5.86,23.59,23.59,0,0,1-1.32,7.92,21.51,21.51,0,0,1-3.61,6.53,17.29,17.29,0,0,1-5.43,4.44A14.34,14.34,0,0,1,538.67,874.24Zm.53-4.59a7.76,7.76,0,0,0,4.39-1.32,11.45,11.45,0,0,0,3.36-3.52,18,18,0,0,0,2.15-5.06,23.74,23.74,0,0,0,.76-6q0-4.62-1.82-7a6.24,6.24,0,0,0-5.25-2.34,7.78,7.78,0,0,0-4.4,1.3,11.47,11.47,0,0,0-3.35,3.5,18.29,18.29,0,0,0-2.15,5.06,23.73,23.73,0,0,0-.75,6q0,4.62,1.79,7A6.23,6.23,0,0,0,539.2,869.65Z"/><path class="cls-3" d="M559.92,873.77l4-33.46h2.93a1.75,1.75,0,0,1,2,2l-.46,6a20.76,20.76,0,0,1,5.41-6.28,10.41,10.41,0,0,1,6.21-2.13,5.68,5.68,0,0,1,5,2.33,11.54,11.54,0,0,1,1.62,6.65,19.61,19.61,0,0,1,5.63-6.79,11.22,11.22,0,0,1,6.55-2.19,6.51,6.51,0,0,1,5.53,2.41c1.22,1.6,1.83,3.92,1.83,6.93,0,.5,0,1-.07,1.58s-.1,1.12-.16,1.72l-2.51,21.28h-5.78l2.51-21.28a24.88,24.88,0,0,0,.2-2.94,6.37,6.37,0,0,0-.83-3.64,3.13,3.13,0,0,0-2.77-1.18,6.38,6.38,0,0,0-2.84.71,10.46,10.46,0,0,0-2.74,2.08,16.81,16.81,0,0,0-2.45,3.4,27.07,27.07,0,0,0-2,4.67l-2.15,18.18h-5.81l2.54-21.28c.07-.6.13-1.16.17-1.68s.07-1,.07-1.49a6.1,6.1,0,0,0-.78-3.46,3.07,3.07,0,0,0-2.72-1.13,6.29,6.29,0,0,0-3,.8,9.88,9.88,0,0,0-2.78,2.29,18.74,18.74,0,0,0-2.42,3.66,35.86,35.86,0,0,0-2,4.87l-2.08,17.42Z"/><path class="cls-3" d="M632.45,883.74a2.19,2.19,0,0,1-2,1.35h-4.29l7.22-13.3-8.64-31.45h4.85a1.42,1.42,0,0,1,1,.35,1.84,1.84,0,0,1,.48.88l5.38,21c.11.46.19.92.26,1.39s.12.92.17,1.38c.19-.46.39-.93.57-1.4a13.56,13.56,0,0,1,.65-1.4l10.56-21.09a2.08,2.08,0,0,1,.74-.84,1.75,1.75,0,0,1,1-.32H655Z"/><path class="cls-3" d="M666.84,874.24a13.16,13.16,0,0,1-5-.94,11.09,11.09,0,0,1-3.92-2.73,12.69,12.69,0,0,1-2.58-4.35,17.53,17.53,0,0,1-.92-5.88,23.68,23.68,0,0,1,1.32-8,21.51,21.51,0,0,1,3.61-6.53,17.2,17.2,0,0,1,5.42-4.43,14.47,14.47,0,0,1,6.74-1.61,13,13,0,0,1,5,.94,10.89,10.89,0,0,1,3.93,2.72,12.67,12.67,0,0,1,2.57,4.37,17.29,17.29,0,0,1,.92,5.86,23.59,23.59,0,0,1-1.32,7.92,21.51,21.51,0,0,1-3.61,6.53,17.29,17.29,0,0,1-5.43,4.44A14.34,14.34,0,0,1,666.84,874.24Zm.53-4.59a7.76,7.76,0,0,0,4.39-1.32,11.45,11.45,0,0,0,3.36-3.52,18,18,0,0,0,2.15-5.06,23.74,23.74,0,0,0,.76-6q0-4.62-1.82-7a6.24,6.24,0,0,0-5.24-2.34,7.79,7.79,0,0,0-4.41,1.3,11.47,11.47,0,0,0-3.35,3.5,18,18,0,0,0-2.14,5.06,23.29,23.29,0,0,0-.76,6q0,4.62,1.8,7A6.2,6.2,0,0,0,667.37,869.65Z"/><path class="cls-3" d="M697.43,840.34l-2.51,21.26c0,.44-.08.85-.11,1.25a11.5,11.5,0,0,0,0,1.16,6.61,6.61,0,0,0,1,4,3.77,3.77,0,0,0,3.19,1.32,6.8,6.8,0,0,0,3.12-.82,12.33,12.33,0,0,0,3.1-2.35,19.33,19.33,0,0,0,2.79-3.66,27.42,27.42,0,0,0,2.24-4.78l2.08-17.4h5.84l-4,33.43h-2.91a2.4,2.4,0,0,1-1.58-.46,1.72,1.72,0,0,1-.56-1.42s0-.22,0-.59,0-.78.08-1.22.07-.85.1-1.22,0-.58,0-.6l.23-2.67a20.83,20.83,0,0,1-6,6.45,12.17,12.17,0,0,1-6.8,2.2,7,7,0,0,1-5.79-2.55c-1.38-1.69-2.06-4.12-2.06-7.29q0-.66,0-1.35c0-.46.07-.95.13-1.45l2.51-21.26Z"/><path class="cls-3" d="M725.65,870.14a4.12,4.12,0,0,1,.31-1.61,4.08,4.08,0,0,1,5.39-2.21,4,4,0,0,1,1.32.89,3.87,3.87,0,0,1,.88,1.32,4.12,4.12,0,0,1,.31,1.61,4.17,4.17,0,0,1-.31,1.64,4,4,0,0,1-.88,1.3,3.87,3.87,0,0,1-1.32.88,4.41,4.41,0,0,1-3.25,0,3.8,3.8,0,0,1-1.28-.88,4.09,4.09,0,0,1-.86-1.3A4.17,4.17,0,0,1,725.65,870.14Zm11.84-43.66-2.31,18.95c-.13,1-.27,2-.43,2.88s-.32,1.88-.49,2.83-.38,1.92-.6,2.93-.46,2.09-.72,3.24h-3.86c0-1.15,0-2.22.08-3.24s.08-2,.13-2.93.12-1.89.2-2.83.18-1.89.31-2.88l2.31-18.95Z"/></svg>