<?xml version="1.0" encoding="utf-8"?>
<!-- Generator: Adobe Illustrator 21.1.0, SVG Export Plug-In . SVG Version: 6.00 Build 0)  -->
<svg version="1.1" id="Layer_1" xmlns="http://www.w3.org/2000/svg" xmlns:xlink="http://www.w3.org/1999/xlink" x="0px" y="0px"
	 viewBox="0 0 200 200" style="enable-background:new 0 0 200 200;" xml:space="preserve">
<style type="text/css">
	.st0{fill:#D4D4D4;}
	.st1{fill:#242F64;}
	.st2{fill:#2AB59C;}
	.st3{fill:none;stroke:#242F64;stroke-width:0.5;stroke-miterlimit:10;}
	.st4{opacity:0.1;}
	.st5{fill:#FFFFFF;}
	.st6{fill:#233065;}
	.st7{fill:#E0E1E0;}
	.st8{fill:#C1C0C0;}
	.st9{fill:#11846E;}
	.st10{fill:#E9E8E8;}
	.st11{opacity:0.1;fill:#FFFFFF;enable-background:new    ;}
	.st12{opacity:3.000000e-02;fill:#010101;enable-background:new    ;}
	.st13{enable-background:new    ;}
	.st14{fill:#353635;}
	.st15{fill:#EBEBEB;}
	.st16{fill:#CCDEF2;}
	.st17{fill:#E5904A;}
	.st18{fill:#9E9E9E;}
	.st19{fill:#149179;}
	.st20{fill:#262626;}
	.st21{fill:#F79D89;}
	.st22{clip-path:url(#SVGID_2_);fill:#F9D4C6;}
	.st23{fill:#245187;}
	.st24{fill:#1C3968;}
	.st25{fill:#1B967E;}
	.st26{fill:#BAE4FA;}
	.st27{fill:#9AC8E0;}
	.st28{fill:#16967E;}
	.st29{fill:#010101;}
	.st30{fill:#3C8FCD;}
</style>
<circle class="st2" cx="99.4" cy="100" r="90"/>
<g class="st4">
	<path class="st5" d="M157.9,144.3l-3.5-0.3c-0.4-1.4-1-2.8-1.7-4.1l2.2-2.6c0.3-0.4,0.3-1-0.1-1.4l-4.1-4c-0.4-0.4-1-0.4-1.4-0.1
		l-2.7,2.2c-1.3-0.8-2.7-1.3-4.2-1.7l-0.3-3.4c-0.1-0.5-0.5-0.9-1-0.9h-5.7c-0.5,0-1,0.4-1,0.9l-0.3,3.4c-1.5,0.4-2.9,1-4.2,1.7
		l-2.7-2.2c-0.4-0.3-1-0.3-1.4,0.1l-4.1,4c-0.4,0.4-0.4,1-0.1,1.4l2.2,2.6c-0.8,1.3-1.3,2.7-1.7,4.1l-3.5,0.3c-0.5,0-0.9,0.5-0.9,1
		v5.6c0,0.5,0.4,1,0.9,1l3.5,0.3c0.4,1.4,1,2.8,1.7,4.1l-2.2,2.6c-0.3,0.4-0.3,1,0.1,1.4l4.1,4c0.4,0.4,1,0.4,1.4,0.1l2.7-2.2
		c1.3,0.8,2.7,1.3,4.2,1.7l0.3,3.4c0.1,0.5,0.5,0.9,1,0.9h5.7c0.5,0,1-0.4,1-0.9l0.3-3.4c1.5-0.4,2.9-1,4.2-1.7l2.7,2.2
		c0.4,0.3,1,0.3,1.4-0.1l4.1-4c0.4-0.4,0.4-1,0.1-1.4l-2.2-2.6c0.8-1.3,1.3-2.7,1.7-4.1l3.5-0.3c0.5,0,0.9-0.5,0.9-1v-5.6
		C158.8,144.8,158.4,144.4,157.9,144.3L157.9,144.3z M156.8,150l-3.3,0.3c-0.4,0-0.8,0.4-0.9,0.8c-0.4,1.7-1.1,3.3-2,4.8
		c-0.3,0.4-0.2,0.9,0.1,1.2l2.1,2.5l-2.7,2.7l-2.6-2.1c-0.3-0.3-0.8-0.3-1.2-0.1c-1.5,1-3.2,1.6-4.9,2c-0.4,0.1-0.8,0.5-0.8,0.9
		l-0.3,3.2h-3.9L136,163c0-0.4-0.4-0.8-0.8-0.9c-1.7-0.4-3.4-1-4.9-2c-0.4-0.2-0.9-0.2-1.2,0.1l-2.6,2.1l-2.7-2.7l2.1-2.5
		c0.3-0.3,0.3-0.9,0.1-1.2c-1-1.5-1.7-3.1-2-4.8c-0.1-0.4-0.5-0.8-0.9-0.8l-3.3-0.3v-3.7l3.3-0.3c0.4,0,0.8-0.4,0.9-0.8
		c0.4-1.7,1.1-3.3,2-4.8c0.3-0.4,0.2-0.9-0.1-1.2l-2.1-2.5l2.7-2.7l2.6,2.1c0.3,0.3,0.8,0.3,1.2,0.1c1.5-1,3.2-1.6,4.9-2
		c0.4-0.1,0.8-0.5,0.8-0.9l0.3-3.2h3.9l0.3,3.2c0,0.4,0.4,0.8,0.8,0.9c1.7,0.4,3.4,1,4.9,2c0.4,0.2,0.9,0.2,1.2-0.1l2.6-2.1l2.7,2.7
		l-2.1,2.5c-0.3,0.3-0.3,0.9-0.1,1.2c1,1.5,1.7,3.1,2,4.8c0.1,0.4,0.5,0.8,0.9,0.8l3.3,0.3V150z"/>
	<path class="st5" d="M138.3,142.3c-3.3,0-6,2.6-6,5.9c0,3.2,2.7,5.9,6,5.9c3.3,0,6-2.6,6-5.9C144.2,144.9,141.6,142.3,138.3,142.3
		L138.3,142.3z M138.3,152c-2.2,0-3.9-1.7-3.9-3.8c0-2.1,1.8-3.8,3.9-3.8c2.2,0,3.9,1.7,3.9,3.8C142.2,150.3,140.4,152,138.3,152
		L138.3,152z"/>
</g>
<g class="st4">
	<path class="st5" d="M84.7,164l-2.2-0.2c-0.2-0.9-0.6-1.8-1.1-2.6l1.4-1.6c0.2-0.3,0.2-0.6,0-0.9l-2.5-2.5c-0.2-0.2-0.6-0.2-0.9,0
		l-1.7,1.4c-0.8-0.5-1.7-0.8-2.6-1.1l-0.2-2.1c0-0.3-0.3-0.6-0.6-0.6h-3.6c-0.3,0-0.6,0.3-0.6,0.6l-0.2,2.1
		c-0.9,0.2-1.8,0.6-2.6,1.1l-1.7-1.4c-0.3-0.2-0.6-0.2-0.9,0l-2.5,2.5c-0.2,0.2-0.3,0.6,0,0.9l1.4,1.6c-0.5,0.8-0.8,1.7-1.1,2.6
		l-2.2,0.2c-0.3,0-0.6,0.3-0.6,0.6v3.5c0,0.3,0.3,0.6,0.6,0.6l2.2,0.2c0.2,0.9,0.6,1.8,1.1,2.6l-1.4,1.6c-0.2,0.3-0.2,0.6,0,0.9
		l2.5,2.5c0.2,0.2,0.6,0.2,0.9,0l1.7-1.4c0.8,0.5,1.7,0.8,2.6,1.1l0.2,2.1c0,0.3,0.3,0.6,0.6,0.6h3.6c0.3,0,0.6-0.2,0.6-0.6l0.2-2.1
		c0.9-0.2,1.8-0.6,2.6-1.1l1.7,1.4c0.3,0.2,0.6,0.2,0.9,0l2.5-2.5c0.2-0.2,0.3-0.6,0-0.9l-1.4-1.6c0.5-0.8,0.8-1.7,1.1-2.6l2.2-0.2
		c0.3,0,0.6-0.3,0.6-0.6v-3.5C85.3,164.3,85.1,164,84.7,164L84.7,164z M84,167.5l-2.1,0.2c-0.3,0-0.5,0.2-0.6,0.5
		c-0.2,1.1-0.7,2.1-1.3,3c-0.2,0.2-0.1,0.6,0,0.8l1.3,1.5l-1.7,1.7l-1.6-1.3c-0.2-0.2-0.5-0.2-0.7,0c-0.9,0.6-2,1-3.1,1.2
		c-0.3,0.1-0.5,0.3-0.5,0.6l-0.2,2h-2.4l-0.2-2c0-0.3-0.2-0.5-0.5-0.6c-1.1-0.2-2.1-0.6-3.1-1.2c-0.2-0.1-0.5-0.1-0.7,0l-1.6,1.3
		l-1.7-1.7l1.3-1.5c0.2-0.2,0.2-0.5,0-0.8c-0.6-0.9-1-1.9-1.3-3c-0.1-0.3-0.3-0.5-0.6-0.5l-2.1-0.2v-2.3L63,165
		c0.3,0,0.5-0.2,0.6-0.5c0.2-1.1,0.7-2.1,1.3-3c0.2-0.2,0.1-0.6,0-0.8l-1.3-1.5l1.7-1.7l1.6,1.3c0.2,0.2,0.5,0.2,0.7,0
		c0.9-0.6,2-1,3.1-1.2c0.3-0.1,0.5-0.3,0.5-0.6l0.2-2h2.4l0.2,2c0,0.3,0.2,0.5,0.5,0.6c1.1,0.2,2.1,0.6,3.1,1.2
		c0.2,0.1,0.5,0.1,0.7,0l1.6-1.3l1.7,1.7l-1.3,1.5c-0.2,0.2-0.2,0.5,0,0.8c0.6,0.9,1,1.9,1.3,3c0.1,0.3,0.3,0.5,0.6,0.5l2.1,0.2
		V167.5z"/>
	<path class="st5" d="M72.5,162.7c-2.1,0-3.7,1.6-3.7,3.7c0,2,1.7,3.7,3.7,3.7c2.1,0,3.7-1.6,3.7-3.7
		C76.2,164.3,74.6,162.7,72.5,162.7L72.5,162.7z M72.5,168.7c-1.3,0-2.4-1.1-2.4-2.4c0-1.3,1.1-2.4,2.4-2.4c1.3,0,2.4,1.1,2.4,2.4
		C74.9,167.7,73.8,168.7,72.5,168.7L72.5,168.7z"/>
</g>
<g class="st4">
	<path class="st5" d="M112.3,49l-6.2-0.6c-0.7-2.5-1.7-4.9-3-7.2l3.9-4.6c0.6-0.7,0.6-1.8-0.1-2.5l-7.1-7c-0.7-0.6-1.7-0.7-2.4-0.1
		L92.6,31c-2.3-1.3-4.8-2.3-7.4-3l-0.6-6c-0.1-0.9-0.9-1.6-1.8-1.6H72.8c-0.9,0-1.7,0.7-1.8,1.6l-0.6,6c-2.6,0.7-5.1,1.7-7.4,3
		l-4.8-3.9c-0.7-0.6-1.7-0.5-2.4,0.1l-7.1,7c-0.7,0.7-0.7,1.7-0.1,2.5l3.9,4.6c-1.3,2.2-2.4,4.7-3,7.2L43.4,49
		c-0.9,0.1-1.6,0.9-1.6,1.8v9.9c0,0.9,0.7,1.7,1.6,1.8l6.2,0.6c0.7,2.5,1.7,4.9,3,7.2l-3.9,4.6c-0.6,0.7-0.6,1.8,0.1,2.5l7.1,7
		c0.7,0.6,1.7,0.7,2.4,0.1l4.8-3.9c2.3,1.3,4.8,2.3,7.4,3l0.6,6c0.1,0.9,0.9,1.6,1.8,1.6h10.1c0.9,0,1.7-0.7,1.8-1.6l0.6-6
		c2.6-0.7,5.1-1.7,7.4-3l4.8,3.9c0.7,0.6,1.7,0.5,2.4-0.1l7.1-7c0.7-0.7,0.7-1.7,0.1-2.5l-3.9-4.6c1.3-2.2,2.4-4.7,3-7.2l6.2-0.6
		c0.9-0.1,1.6-0.9,1.6-1.8v-9.9C114,49.8,113.2,49.1,112.3,49L112.3,49z M110.3,59l-5.8,0.5c-0.8,0.1-1.4,0.6-1.6,1.4
		c-0.7,3-1.9,5.9-3.6,8.4c-0.4,0.7-0.4,1.6,0.1,2.2l3.7,4.4l-4.8,4.7l-4.5-3.7c-0.6-0.5-1.5-0.5-2.1-0.1c-2.6,1.7-5.6,2.9-8.6,3.5
		c-0.8,0.2-1.4,0.8-1.4,1.6l-0.5,5.6h-6.8l-0.5-5.6c-0.1-0.8-0.7-1.4-1.4-1.6c-3.1-0.6-6-1.8-8.6-3.5c-0.7-0.4-1.5-0.4-2.1,0.1
		l-4.5,3.7l-4.8-4.7l3.7-4.4c0.5-0.6,0.6-1.5,0.1-2.2c-1.7-2.6-2.9-5.4-3.6-8.4c-0.2-0.8-0.8-1.3-1.6-1.4L45.4,59v-6.6l5.8-0.5
		c0.8-0.1,1.4-0.6,1.6-1.4c0.7-3,1.9-5.9,3.6-8.4c0.4-0.7,0.4-1.6-0.1-2.2l-3.7-4.4l4.8-4.7l4.5,3.7c0.6,0.5,1.5,0.5,2.1,0.1
		c2.6-1.7,5.6-2.9,8.6-3.5c0.8-0.2,1.4-0.8,1.4-1.6l0.5-5.6h6.8l0.5,5.6c0.1,0.8,0.7,1.4,1.4,1.6c3.1,0.6,6,1.8,8.6,3.5
		c0.7,0.4,1.5,0.4,2.1-0.1l4.5-3.7l4.8,4.7l-3.7,4.4c-0.5,0.6-0.6,1.5-0.1,2.2c1.7,2.6,2.9,5.4,3.6,8.4c0.2,0.8,0.8,1.3,1.6,1.4
		l5.8,0.5V59z"/>
	<path class="st5" d="M77.9,45.4c-5.8,0-10.5,4.6-10.5,10.3c0,5.7,4.7,10.3,10.5,10.3c5.8,0,10.5-4.6,10.5-10.3
		C88.3,50,83.6,45.4,77.9,45.4L77.9,45.4z M77.9,62.4c-3.8,0-6.9-3-6.9-6.7c0-3.7,3.1-6.7,6.9-6.7c3.8,0,6.9,3,6.9,6.7
		C84.7,59.4,81.6,62.4,77.9,62.4L77.9,62.4z"/>
</g>
<path class="st20" d="M191.5,144.1l-35.2,5.3l-35.2-5.3c0-6.7,0-90.3,0-97l35.2-5.3l35.2,5.3V144.1z"/>
<g>
	<path class="st6" d="M191.5,47h-70.3c0-0.1,0-0.1,0-0.2c0-6,4.9-10.8,10.8-10.8h48.7c6,0,10.8,4.9,10.8,10.8L191.5,47L191.5,47z"/>
	<path class="st6" d="M191.5,144.2c0,6-4.9,10.8-10.8,10.8H132c-6,0-10.8-4.9-10.8-10.8c0,0,0-0.1,0-0.2h70.3V144.2z"/>
</g>
<path class="st2" d="M162.8,123.3c-0.7,0-1.3-0.3-1.7-0.9c-0.6-0.9-0.3-2.2,0.6-2.7c3.6-2.2,5.8-6.1,5.8-10.4
	c0-6.7-5.5-12.2-12.2-12.2c-4.3,0-8.3,2.3-10.5,6c-0.6,0.9-1.8,1.3-2.7,0.7c-0.9-0.6-1.3-1.8-0.7-2.7c2.9-4.9,8.2-7.9,13.9-7.9
	c8.9,0,16.2,7.2,16.2,16.2c0,5.6-2.9,10.8-7.7,13.8C163.5,123.2,163.1,123.3,162.8,123.3z"/>
<g>
	<path class="st21" d="M160.5,162.6l-7.9-0.4l-0.4-7.9c2.3-2.3,6-2.3,8.2,0C162.8,156.7,162.8,160.3,160.5,162.6z"/>
	<path class="st21" d="M152.3,154.4l-7.9-0.4l-0.4-7.9c2.3-2.3,6-2.3,8.2,0C154.5,148.4,154.5,152.1,152.3,154.4z"/>
	<path class="st21" d="M144,146.1l-7.9-0.4l-0.4-7.9c2.3-2.3,6-2.3,8.2,0C146.3,140.2,146.3,143.9,144,146.1z"/>
</g>
<g>
	<defs>
		<circle id="SVGID_1_" cx="99.4" cy="100" r="90.9"/>
	</defs>
	<clipPath id="SVGID_2_">
		<use xlink:href="#SVGID_1_"  style="overflow:visible;"/>
	</clipPath>
	<path class="st22" d="M135.8,137.9l24.3-24.3c2.3-2.3,2.3-6,0-8.2c-2.3-2.3-6-2.3-8.2,0c0,0-34,34-39.4,39.4
		c-5.5,5.5-7.8,13.1-6.7,20.2l-28,28h38.7l8.6-8.6c7.2,1.1,14.7-1.1,20.2-6.7c6.2-6.2,15-15,15-15L135.8,137.9z"/>
</g>
<g>
	<path class="st5" d="M59.3,84l2.9,8.1l2.9-8.1h3v11.2h-2.3v-3.1l0.2-5.3l-3,8.3h-1.6l-3-8.3l0.2,5.3v3.1h-2.3V84H59.3z"/>
	<path class="st5" d="M79.3,89.8c0,0.9-0.1,1.6-0.3,2.3c-0.2,0.7-0.6,1.3-1,1.7c-0.4,0.5-0.9,0.8-1.5,1.1c-0.6,0.3-1.2,0.4-1.9,0.4
		s-1.3-0.1-1.9-0.4c-0.6-0.3-1.1-0.6-1.5-1.1c-0.4-0.5-0.8-1-1-1.7c-0.2-0.7-0.4-1.4-0.4-2.3v-0.5c0-0.8,0.1-1.6,0.3-2.3
		c0.2-0.7,0.6-1.3,1-1.7c0.4-0.5,0.9-0.8,1.5-1.1s1.2-0.4,1.9-0.4c0.7,0,1.3,0.1,1.9,0.4c0.6,0.3,1.1,0.6,1.5,1.1
		c0.4,0.5,0.7,1.1,1,1.7c0.2,0.7,0.3,1.4,0.3,2.3V89.8z M76.9,89.3c0-1.2-0.2-2.1-0.6-2.7c-0.4-0.6-1-0.9-1.8-0.9
		c-0.8,0-1.4,0.3-1.8,0.9c-0.4,0.6-0.6,1.5-0.6,2.7v0.5c0,0.6,0.1,1.1,0.2,1.5c0.1,0.4,0.3,0.8,0.5,1.1c0.2,0.3,0.5,0.5,0.8,0.7
		c0.3,0.2,0.6,0.2,1,0.2c0.8,0,1.4-0.3,1.8-0.9c0.4-0.6,0.6-1.5,0.6-2.7V89.3z"/>
	<path class="st5" d="M80.9,95.2V84h3.9c0.6,0,1.2,0.1,1.7,0.2c0.5,0.1,0.9,0.3,1.3,0.6c0.4,0.3,0.6,0.6,0.8,1
		c0.2,0.4,0.3,0.8,0.3,1.4c0,0.3,0,0.5-0.1,0.7c-0.1,0.2-0.2,0.5-0.3,0.7c-0.1,0.2-0.3,0.4-0.5,0.6c-0.2,0.2-0.4,0.3-0.7,0.4
		c0.3,0.1,0.6,0.2,0.8,0.4c0.2,0.2,0.4,0.4,0.6,0.6c0.2,0.2,0.3,0.5,0.3,0.7c0.1,0.3,0.1,0.5,0.1,0.8c0,1.1-0.3,1.9-1,2.5
		c-0.7,0.6-1.7,0.8-3,0.8H80.9z M83.2,88.7h1.7c0.6,0,1-0.1,1.3-0.4c0.3-0.2,0.4-0.6,0.4-1c0-0.5-0.1-0.9-0.4-1.1
		c-0.3-0.2-0.8-0.3-1.4-0.3h-1.6V88.7z M83.2,90.3v3h2c0.3,0,0.6,0,0.8-0.1c0.2-0.1,0.4-0.2,0.5-0.3c0.1-0.1,0.3-0.3,0.3-0.5
		c0.1-0.2,0.1-0.4,0.1-0.6c0-0.2,0-0.5-0.1-0.6c-0.1-0.2-0.2-0.4-0.3-0.5c-0.1-0.1-0.3-0.2-0.5-0.3c-0.2-0.1-0.5-0.1-0.8-0.1H83.2z"
		/>
	<path class="st5" d="M93.4,95.2h-2.3V84h2.3V95.2z"/>
	<path class="st5" d="M97.8,93.3h4.9v1.8h-7.2V84h2.3V93.3z"/>
	<path class="st5" d="M110.8,90.3h-4.4v3h5.2v1.8h-7.5V84h7.5v1.9h-5.2v2.7h4.4V90.3z"/>
	<path class="st5" d="M20.1,104.7h-3.4v9.3h-2.3v-9.3H11v-1.9h9.1V104.7z"/>
	<path class="st5" d="M28.2,109.2h-4.4v3h5.2v1.8h-7.5v-11.2h7.5v1.9h-5.2v2.7h4.4V109.2z"/>
	<path class="st5" d="M39.1,110.3c0,0.6-0.2,1.1-0.4,1.6c-0.2,0.5-0.5,0.9-0.9,1.2c-0.4,0.3-0.8,0.6-1.4,0.8
		c-0.5,0.2-1.2,0.3-1.8,0.3c-0.7,0-1.4-0.1-1.9-0.4c-0.6-0.2-1.1-0.6-1.4-1.1c-0.4-0.5-0.7-1-0.9-1.7c-0.2-0.7-0.3-1.4-0.3-2.2v-0.7
		c0-0.8,0.1-1.6,0.3-2.2c0.2-0.7,0.5-1.2,0.9-1.7c0.4-0.5,0.9-0.8,1.5-1.1c0.6-0.3,1.2-0.4,1.9-0.4c0.7,0,1.3,0.1,1.8,0.3
		c0.5,0.2,1,0.5,1.4,0.8s0.7,0.8,0.9,1.3c0.2,0.5,0.3,1,0.4,1.6h-2.3c0-0.3-0.1-0.6-0.2-0.9c-0.1-0.3-0.2-0.5-0.4-0.6
		c-0.2-0.2-0.4-0.3-0.7-0.4c-0.3-0.1-0.6-0.1-1-0.1c-0.8,0-1.4,0.3-1.7,0.8c-0.4,0.6-0.6,1.4-0.6,2.6v0.8c0,0.6,0,1.1,0.1,1.5
		c0.1,0.4,0.2,0.8,0.4,1.1c0.2,0.3,0.4,0.5,0.7,0.7c0.3,0.1,0.6,0.2,1,0.2c0.4,0,0.7,0,0.9-0.1c0.3-0.1,0.5-0.2,0.7-0.4
		c0.2-0.2,0.3-0.4,0.4-0.6c0.1-0.3,0.2-0.5,0.2-0.9H39.1z"/>
	<path class="st5" d="M49.7,114h-2.3v-4.8h-4.5v4.8h-2.3v-11.2h2.3v4.5h4.5v-4.5h2.3V114z"/>
	<path class="st5" d="M60.8,114h-2.3l-4.5-7.3v7.3h-2.3v-11.2H54l4.5,7.4v-7.4h2.3V114z"/>
	<path class="st5" d="M71.9,108.7c0,0.9-0.1,1.6-0.3,2.3c-0.2,0.7-0.6,1.3-1,1.7c-0.4,0.5-0.9,0.8-1.5,1.1s-1.2,0.4-1.9,0.4
		c-0.7,0-1.3-0.1-1.9-0.4c-0.6-0.3-1.1-0.6-1.5-1.1c-0.4-0.5-0.8-1-1-1.7c-0.2-0.7-0.4-1.4-0.4-2.3v-0.5c0-0.8,0.1-1.6,0.3-2.3
		c0.2-0.7,0.6-1.3,1-1.7c0.4-0.5,0.9-0.8,1.5-1.1c0.6-0.3,1.2-0.4,1.9-0.4s1.3,0.1,1.9,0.4c0.6,0.3,1.1,0.6,1.5,1.1
		c0.4,0.5,0.7,1.1,1,1.7c0.2,0.7,0.3,1.4,0.3,2.3V108.7z M69.6,108.2c0-1.2-0.2-2.1-0.6-2.7c-0.4-0.6-1-0.9-1.8-0.9
		s-1.4,0.3-1.8,0.9c-0.4,0.6-0.6,1.5-0.6,2.7v0.5c0,0.6,0.1,1.1,0.2,1.5c0.1,0.4,0.3,0.8,0.5,1.1c0.2,0.3,0.5,0.5,0.8,0.7
		c0.3,0.2,0.6,0.2,1,0.2c0.8,0,1.4-0.3,1.8-0.9c0.4-0.6,0.6-1.5,0.6-2.7V108.2z"/>
	<path class="st5" d="M75.9,112.2h4.9v1.8h-7.2v-11.2h2.3V112.2z"/>
	<path class="st5" d="M90.8,108.7c0,0.9-0.1,1.6-0.3,2.3c-0.2,0.7-0.6,1.3-1,1.7c-0.4,0.5-0.9,0.8-1.5,1.1c-0.6,0.3-1.2,0.4-1.9,0.4
		s-1.3-0.1-1.9-0.4c-0.6-0.3-1.1-0.6-1.5-1.1c-0.4-0.5-0.8-1-1-1.7c-0.2-0.7-0.4-1.4-0.4-2.3v-0.5c0-0.8,0.1-1.6,0.3-2.3
		c0.2-0.7,0.6-1.3,1-1.7c0.4-0.5,0.9-0.8,1.5-1.1s1.2-0.4,1.9-0.4c0.7,0,1.3,0.1,1.9,0.4c0.6,0.3,1.1,0.6,1.5,1.1
		c0.4,0.5,0.7,1.1,1,1.7c0.2,0.7,0.3,1.4,0.3,2.3V108.7z M88.5,108.2c0-1.2-0.2-2.1-0.6-2.7c-0.4-0.6-1-0.9-1.8-0.9
		c-0.8,0-1.4,0.3-1.8,0.9c-0.4,0.6-0.6,1.5-0.6,2.7v0.5c0,0.6,0.1,1.1,0.2,1.5c0.1,0.4,0.3,0.8,0.5,1.1c0.2,0.3,0.5,0.5,0.8,0.7
		c0.3,0.2,0.6,0.2,1,0.2c0.8,0,1.4-0.3,1.8-0.9c0.4-0.6,0.6-1.5,0.6-2.7V108.2z"/>
	<path class="st5" d="M101.3,112.6c-0.1,0.2-0.3,0.3-0.5,0.5c-0.2,0.2-0.5,0.4-0.9,0.5c-0.3,0.2-0.8,0.3-1.2,0.4
		c-0.5,0.1-1,0.2-1.6,0.2c-0.7,0-1.4-0.1-2-0.4c-0.6-0.2-1.1-0.6-1.5-1c-0.4-0.5-0.8-1-1-1.7c-0.2-0.7-0.3-1.4-0.3-2.3v-0.7
		c0-0.9,0.1-1.6,0.3-2.3c0.2-0.7,0.5-1.2,0.9-1.7c0.4-0.5,0.9-0.8,1.5-1.1c0.6-0.2,1.2-0.4,1.9-0.4c0.7,0,1.4,0.1,1.9,0.3
		c0.5,0.2,1,0.4,1.3,0.8c0.4,0.3,0.6,0.7,0.8,1.2c0.2,0.5,0.3,1,0.4,1.5h-2.2c0-0.3-0.1-0.5-0.2-0.8c-0.1-0.2-0.2-0.4-0.4-0.6
		s-0.4-0.3-0.6-0.4c-0.2-0.1-0.5-0.1-0.9-0.1c-0.8,0-1.4,0.3-1.8,0.9c-0.4,0.6-0.6,1.5-0.6,2.7v0.7c0,1.2,0.2,2.1,0.7,2.7
		c0.4,0.6,1.1,0.9,2,0.9c0.3,0,0.5,0,0.7-0.1c0.2,0,0.4-0.1,0.5-0.1c0.1-0.1,0.3-0.1,0.4-0.2c0.1-0.1,0.2-0.1,0.2-0.2v-1.9h-2.1
		v-1.7h4.4V112.6z"/>
	<path class="st5" d="M107,107.9l2.3-5h2.5l-3.7,7.1v4.1h-2.3V110l-3.7-7.1h2.5L107,107.9z"/>
</g>
</svg>
