<?xml version="1.0" encoding="utf-8"?>
<!-- Generator: Adobe Illustrator 21.1.0, SVG Export Plug-In . SVG Version: 6.00 Build 0)  -->
<svg version="1.1" id="Layer_1" xmlns="http://www.w3.org/2000/svg" xmlns:xlink="http://www.w3.org/1999/xlink" x="0px" y="0px"
	 viewBox="0 0 200 200" style="enable-background:new 0 0 200 200;" xml:space="preserve">
<style type="text/css">
	.st0{fill:#D4D4D4;}
	.st1{fill:#242F64;}
	.st2{fill:#2AB59C;}
	.st3{fill:none;stroke:#242F64;stroke-width:0.5;stroke-miterlimit:10;}
	.st4{opacity:0.1;}
	.st5{fill:#FFFFFF;}
	.st6{fill:#233065;}
	.st7{fill:#E0E1E0;}
	.st8{fill:#C1C0C0;}
	.st9{fill:#11846E;}
	.st10{fill:#E9E8E8;}
	.st11{opacity:0.1;fill:#FFFFFF;enable-background:new    ;}
	.st12{opacity:3.000000e-02;fill:#010101;enable-background:new    ;}
	.st13{enable-background:new    ;}
	.st14{fill:#353635;}
	.st15{fill:#EBEBEB;}
	.st16{fill:#CCDEF2;}
	.st17{fill:#E5904A;}
	.st18{fill:#9E9E9E;}
	.st19{fill:#149179;}
	.st20{fill:#262626;}
	.st21{fill:#F79D89;}
	.st22{clip-path:url(#SVGID_2_);fill:#F9D4C6;}
	.st23{fill:#245187;}
	.st24{fill:#1C3968;}
	.st25{fill:#1B967E;}
	.st26{fill:#BAE4FA;}
	.st27{fill:#9AC8E0;}
	.st28{fill:#16967E;}
	.st29{fill:#010101;}
	.st30{fill:#3C8FCD;}
</style>
<g>
	<circle class="st1" cx="100" cy="100" r="90"/>
	<g class="st4">
		<path class="st5" d="M166.3,131.7l-3.5-0.3c-0.4-1.4-1-2.8-1.7-4l2.2-2.6c0.3-0.4,0.3-1-0.1-1.4l-4-3.9c-0.4-0.4-0.9-0.4-1.3-0.1
			l-2.7,2.2c-1.3-0.7-2.7-1.3-4.1-1.7l-0.3-3.4c0-0.5-0.5-0.9-1-0.9h-5.6c-0.5,0-1,0.4-1,0.9l-0.3,3.4c-1.5,0.4-2.8,0.9-4.1,1.7
			l-2.7-2.2c-0.4-0.3-1-0.3-1.3,0.1l-4,3.9c-0.4,0.4-0.4,1-0.1,1.4l2.2,2.6c-0.8,1.3-1.3,2.6-1.7,4l-3.5,0.3c-0.5,0-0.9,0.5-0.9,1
			v5.5c0,0.5,0.4,1,0.9,1l3.5,0.3c0.4,1.4,1,2.8,1.7,4l-2.2,2.6c-0.3,0.4-0.3,1,0.1,1.4l4,3.9c0.4,0.4,0.9,0.4,1.3,0.1l2.7-2.2
			c1.3,0.7,2.7,1.3,4.1,1.7l0.3,3.4c0,0.5,0.5,0.9,1,0.9h5.6c0.5,0,1-0.4,1-0.9l0.3-3.4c1.5-0.4,2.8-0.9,4.1-1.7l2.7,2.2
			c0.4,0.3,1,0.3,1.3-0.1l4-3.9c0.4-0.4,0.4-1,0.1-1.4l-2.2-2.6c0.8-1.3,1.3-2.6,1.7-4l3.5-0.3c0.5,0,0.9-0.5,0.9-1v-5.5
			C167.3,132.2,166.9,131.8,166.3,131.7L166.3,131.7z M165.2,137.3l-3.3,0.3c-0.4,0-0.8,0.4-0.9,0.8c-0.4,1.7-1,3.3-2,4.7
			c-0.2,0.4-0.2,0.9,0.1,1.2l2.1,2.4l-2.7,2.6l-2.5-2.1c-0.3-0.3-0.8-0.3-1.2-0.1c-1.5,0.9-3.1,1.6-4.8,2c-0.4,0.1-0.8,0.5-0.8,0.9
			l-0.3,3.2h-3.8l-0.3-3.2c0-0.4-0.4-0.8-0.8-0.9c-1.7-0.4-3.4-1-4.8-2c-0.4-0.2-0.8-0.2-1.2,0.1l-2.5,2.1l-2.7-2.6l2.1-2.4
			c0.3-0.3,0.3-0.8,0.1-1.2c-1-1.4-1.6-3-2-4.7c-0.1-0.4-0.5-0.8-0.9-0.8l-3.3-0.3v-3.7l3.3-0.3c0.4,0,0.8-0.4,0.9-0.8
			c0.4-1.7,1-3.3,2-4.7c0.2-0.4,0.2-0.9-0.1-1.2l-2.1-2.4l2.7-2.6l2.5,2.1c0.3,0.3,0.8,0.3,1.2,0.1c1.5-0.9,3.1-1.6,4.8-2
			c0.4-0.1,0.8-0.5,0.8-0.9l0.3-3.2h3.8l0.3,3.2c0,0.4,0.4,0.8,0.8,0.9c1.7,0.4,3.4,1,4.8,2c0.4,0.2,0.8,0.2,1.2-0.1l2.5-2.1
			l2.7,2.6l-2.1,2.4c-0.3,0.3-0.3,0.8-0.1,1.2c1,1.4,1.6,3,2,4.7c0.1,0.4,0.5,0.8,0.9,0.8l3.3,0.3V137.3z"/>
		<path class="st5" d="M147,129.7c-3.2,0-5.9,2.6-5.9,5.8c0,3.2,2.6,5.8,5.9,5.8c3.2,0,5.9-2.6,5.9-5.8
			C152.9,132.3,150.3,129.7,147,129.7L147,129.7z M147,139.3c-2.1,0-3.9-1.7-3.9-3.8c0-2.1,1.7-3.7,3.9-3.7c2.1,0,3.9,1.7,3.9,3.7
			C150.9,137.6,149.1,139.3,147,139.3L147,139.3z"/>
	</g>
	<g class="st4">
		<path class="st5" d="M84.4,154.2l-2.2-0.2c-0.2-0.9-0.6-1.7-1.1-2.5l1.4-1.6c0.2-0.3,0.2-0.6,0-0.9l-2.5-2.4
			c-0.2-0.2-0.6-0.2-0.8,0l-1.7,1.4c-0.8-0.5-1.7-0.8-2.6-1.1l-0.2-2.1c0-0.3-0.3-0.6-0.6-0.6h-3.5c-0.3,0-0.6,0.2-0.6,0.6l-0.2,2.1
			c-0.9,0.2-1.8,0.6-2.6,1.1l-1.7-1.4c-0.2-0.2-0.6-0.2-0.8,0l-2.5,2.4c-0.2,0.2-0.3,0.6,0,0.9l1.4,1.6c-0.5,0.8-0.8,1.6-1.1,2.5
			l-2.2,0.2c-0.3,0-0.6,0.3-0.6,0.6v3.4c0,0.3,0.2,0.6,0.6,0.6l2.2,0.2c0.2,0.9,0.6,1.7,1.1,2.5l-1.4,1.6c-0.2,0.3-0.2,0.6,0,0.9
			l2.5,2.4c0.2,0.2,0.6,0.2,0.8,0l1.7-1.4c0.8,0.5,1.7,0.8,2.6,1.1l0.2,2.1c0,0.3,0.3,0.6,0.6,0.6h3.5c0.3,0,0.6-0.2,0.6-0.6
			l0.2-2.1c0.9-0.2,1.8-0.6,2.6-1.1l1.7,1.4c0.2,0.2,0.6,0.2,0.8,0l2.5-2.4c0.2-0.2,0.3-0.6,0-0.9l-1.4-1.6c0.5-0.8,0.8-1.6,1.1-2.5
			l2.2-0.2c0.3,0,0.6-0.3,0.6-0.6v-3.4C84.9,154.5,84.7,154.2,84.4,154.2L84.4,154.2z M83.7,157.7l-2,0.2c-0.3,0-0.5,0.2-0.6,0.5
			c-0.2,1-0.7,2-1.2,2.9c-0.2,0.2-0.1,0.5,0,0.8l1.3,1.5l-1.7,1.6l-1.6-1.3c-0.2-0.2-0.5-0.2-0.7,0c-0.9,0.6-1.9,1-3,1.2
			c-0.3,0.1-0.5,0.3-0.5,0.6l-0.2,2h-2.4l-0.2-2c0-0.3-0.2-0.5-0.5-0.6c-1.1-0.2-2.1-0.6-3-1.2c-0.2-0.1-0.5-0.1-0.7,0l-1.6,1.3
			l-1.7-1.6l1.3-1.5c0.2-0.2,0.2-0.5,0-0.8c-0.6-0.9-1-1.9-1.2-2.9c-0.1-0.3-0.3-0.5-0.6-0.5l-2-0.2v-2.3l2-0.2
			c0.3,0,0.5-0.2,0.6-0.5c0.2-1,0.7-2,1.2-2.9c0.2-0.2,0.1-0.5,0-0.8l-1.3-1.5l1.7-1.6l1.6,1.3c0.2,0.2,0.5,0.2,0.7,0
			c0.9-0.6,1.9-1,3-1.2c0.3-0.1,0.5-0.3,0.5-0.6l0.2-2h2.4l0.2,2c0,0.3,0.2,0.5,0.5,0.6c1.1,0.2,2.1,0.6,3,1.2
			c0.2,0.1,0.5,0.1,0.7,0l1.6-1.3l1.7,1.6l-1.3,1.5c-0.2,0.2-0.2,0.5,0,0.8c0.6,0.9,1,1.9,1.2,2.9c0.1,0.3,0.3,0.5,0.6,0.5l2,0.2
			V157.7z"/>
		<path class="st5" d="M72.3,152.9c-2,0-3.7,1.6-3.7,3.6c0,2,1.6,3.6,3.7,3.6c2,0,3.7-1.6,3.7-3.6C76,154.5,74.3,152.9,72.3,152.9
			L72.3,152.9z M72.3,158.9c-1.3,0-2.4-1-2.4-2.3c0-1.3,1.1-2.3,2.4-2.3c1.3,0,2.4,1,2.4,2.3C74.7,157.8,73.6,158.9,72.3,158.9
			L72.3,158.9z"/>
	</g>
	<g>
		<path class="st5" d="M17.4,95.3l3.3,9.2l3.3-9.2h3.4V108h-2.6v-3.5l0.3-6l-3.4,9.5h-1.8l-3.4-9.5l0.3,6v3.5H14V95.3H17.4z"/>
		<path class="st5" d="M32.5,108h-2.6V95.3h2.6V108z"/>
		<path class="st5" d="M44.9,103.8c0,0.6-0.2,1.2-0.4,1.8c-0.2,0.5-0.6,1-1,1.4c-0.4,0.4-1,0.7-1.6,0.9c-0.6,0.2-1.3,0.3-2.1,0.3
			c-0.8,0-1.5-0.1-2.2-0.4c-0.7-0.3-1.2-0.7-1.7-1.2c-0.5-0.5-0.8-1.2-1-1.9c-0.2-0.8-0.4-1.6-0.4-2.5v-0.8c0-0.9,0.1-1.8,0.4-2.5
			c0.3-0.8,0.6-1.4,1.1-1.9c0.5-0.5,1-0.9,1.7-1.2c0.7-0.3,1.4-0.4,2.2-0.4c0.8,0,1.5,0.1,2.1,0.3c0.6,0.2,1.1,0.5,1.6,0.9
			c0.4,0.4,0.8,0.9,1,1.4c0.2,0.6,0.4,1.2,0.5,1.8h-2.6c0-0.4-0.1-0.7-0.2-1c-0.1-0.3-0.3-0.5-0.4-0.7c-0.2-0.2-0.4-0.3-0.7-0.5
			c-0.3-0.1-0.7-0.2-1.1-0.2c-0.9,0-1.5,0.3-2,1c-0.4,0.6-0.7,1.6-0.7,3v0.9c0,0.7,0,1.2,0.1,1.7c0.1,0.5,0.2,0.9,0.5,1.2
			c0.2,0.3,0.5,0.6,0.8,0.7c0.3,0.2,0.7,0.3,1.2,0.3c0.4,0,0.8,0,1.1-0.1c0.3-0.1,0.6-0.2,0.8-0.4s0.4-0.4,0.5-0.7
			c0.1-0.3,0.2-0.6,0.2-1H44.9z"/>
		<path class="st5" d="M51.3,103.4h-2.1v4.7h-2.6V95.3h4.7c0.7,0,1.4,0.1,2,0.2c0.6,0.2,1.1,0.4,1.5,0.7c0.4,0.3,0.7,0.7,0.9,1.2
			c0.2,0.5,0.3,1,0.3,1.7c0,0.5-0.1,0.9-0.2,1.3c-0.1,0.4-0.3,0.7-0.5,1c-0.2,0.3-0.4,0.5-0.7,0.8c-0.3,0.2-0.6,0.4-0.9,0.6l2.8,5.2
			v0.1h-2.8L51.3,103.4z M49.2,101.2h2.1c0.3,0,0.6,0,0.9-0.1c0.3-0.1,0.5-0.2,0.6-0.4c0.2-0.2,0.3-0.4,0.4-0.6
			c0.1-0.2,0.1-0.5,0.1-0.8c0-0.6-0.2-1.1-0.5-1.4c-0.3-0.3-0.9-0.5-1.6-0.5h-2.1V101.2z"/>
		<path class="st5" d="M68.5,102c0,1-0.1,1.8-0.4,2.6c-0.3,0.8-0.6,1.4-1.1,2c-0.5,0.5-1,1-1.7,1.2c-0.7,0.3-1.4,0.4-2.2,0.4
			c-0.8,0-1.5-0.1-2.2-0.4c-0.7-0.3-1.2-0.7-1.7-1.2c-0.5-0.5-0.9-1.2-1.1-2c-0.3-0.8-0.4-1.6-0.4-2.6v-0.6c0-1,0.1-1.8,0.4-2.6
			c0.3-0.8,0.6-1.4,1.1-2c0.5-0.5,1.1-1,1.7-1.2c0.7-0.3,1.4-0.4,2.2-0.4c0.8,0,1.5,0.1,2.2,0.4c0.7,0.3,1.2,0.7,1.7,1.2
			c0.5,0.5,0.9,1.2,1.1,2c0.3,0.8,0.4,1.6,0.4,2.6V102z M65.9,101.4c0-1.3-0.2-2.4-0.7-3c-0.5-0.7-1.2-1-2-1c-0.9,0-1.6,0.3-2,1
			c-0.5,0.7-0.7,1.7-0.7,3v0.6c0,0.7,0.1,1.3,0.2,1.8c0.1,0.5,0.3,0.9,0.5,1.3c0.2,0.3,0.5,0.6,0.9,0.8c0.3,0.2,0.7,0.3,1.2,0.3
			c0.9,0,1.6-0.3,2-1.1c0.5-0.7,0.7-1.7,0.7-3.1V101.4z"/>
		<path class="st5" d="M77,104.7c0-0.2,0-0.4-0.1-0.6c-0.1-0.2-0.2-0.3-0.4-0.5c-0.2-0.2-0.4-0.3-0.8-0.4c-0.3-0.1-0.7-0.3-1.3-0.5
			c-0.6-0.2-1.1-0.4-1.6-0.6c-0.5-0.2-1-0.5-1.4-0.8c-0.4-0.3-0.7-0.7-0.9-1.1c-0.2-0.4-0.3-0.9-0.3-1.5c0-0.5,0.1-1,0.3-1.5
			c0.2-0.4,0.6-0.8,1-1.1c0.4-0.3,0.9-0.5,1.5-0.7c0.6-0.2,1.2-0.3,1.9-0.3c0.7,0,1.3,0.1,1.9,0.3c0.6,0.2,1.1,0.5,1.5,0.8
			c0.4,0.4,0.7,0.8,0.9,1.2c0.2,0.5,0.3,1,0.3,1.6H77c0-0.3,0-0.5-0.1-0.7c-0.1-0.2-0.2-0.4-0.4-0.6c-0.2-0.2-0.4-0.3-0.7-0.4
			c-0.3-0.1-0.6-0.1-0.9-0.1c-0.3,0-0.6,0-0.9,0.1c-0.3,0.1-0.5,0.2-0.6,0.3c-0.2,0.1-0.3,0.3-0.4,0.5s-0.1,0.4-0.1,0.6
			c0,0.4,0.2,0.8,0.6,1.1c0.4,0.3,1.1,0.5,1.9,0.8c0.7,0.2,1.3,0.5,1.8,0.7c0.5,0.3,1,0.6,1.3,0.9c0.4,0.3,0.6,0.7,0.8,1.1
			c0.2,0.4,0.3,0.9,0.3,1.4c0,0.6-0.1,1.1-0.3,1.5c-0.2,0.4-0.5,0.8-0.9,1.1c-0.4,0.3-0.9,0.5-1.5,0.7c-0.6,0.2-1.2,0.2-1.9,0.2
			c-0.4,0-0.8,0-1.3-0.1c-0.4-0.1-0.8-0.2-1.2-0.3c-0.4-0.2-0.7-0.3-1.1-0.6c-0.3-0.2-0.6-0.5-0.9-0.8c-0.2-0.3-0.4-0.7-0.6-1.1
			c-0.1-0.4-0.2-0.8-0.2-1.3h2.6c0,0.4,0.1,0.7,0.2,1s0.3,0.5,0.5,0.7c0.2,0.2,0.5,0.3,0.8,0.4c0.3,0.1,0.7,0.1,1,0.1
			c0.3,0,0.6,0,0.9-0.1c0.3-0.1,0.5-0.2,0.6-0.3c0.2-0.1,0.3-0.3,0.4-0.5C77,105.1,77,104.9,77,104.7z"/>
		<path class="st5" d="M91.9,102c0,1-0.1,1.8-0.4,2.6c-0.3,0.8-0.6,1.4-1.1,2c-0.5,0.5-1,1-1.7,1.2c-0.7,0.3-1.4,0.4-2.2,0.4
			c-0.8,0-1.5-0.1-2.2-0.4c-0.7-0.3-1.2-0.7-1.7-1.2c-0.5-0.5-0.9-1.2-1.1-2c-0.3-0.8-0.4-1.6-0.4-2.6v-0.6c0-1,0.1-1.8,0.4-2.6
			c0.3-0.8,0.6-1.4,1.1-2c0.5-0.5,1.1-1,1.7-1.2c0.7-0.3,1.4-0.4,2.2-0.4c0.8,0,1.5,0.1,2.2,0.4c0.7,0.3,1.2,0.7,1.7,1.2
			c0.5,0.5,0.9,1.2,1.1,2c0.3,0.8,0.4,1.6,0.4,2.6V102z M89.3,101.4c0-1.3-0.2-2.4-0.7-3c-0.5-0.7-1.2-1-2-1c-0.9,0-1.6,0.3-2,1
			c-0.5,0.7-0.7,1.7-0.7,3v0.6c0,0.7,0.1,1.3,0.2,1.8c0.1,0.5,0.3,0.9,0.5,1.3c0.2,0.3,0.5,0.6,0.9,0.8c0.3,0.2,0.7,0.3,1.2,0.3
			c0.9,0,1.6-0.3,2-1.1c0.5-0.7,0.7-1.7,0.7-3.1V101.4z"/>
		<path class="st5" d="M101.5,102.8h-5v5.2h-2.6V95.3h8.3v2.1h-5.7v3.3h5V102.8z"/>
		<path class="st5" d="M113.4,97.4h-3.9V108h-2.6V97.4H103v-2.1h10.4V97.4z"/>
	</g>
	<g class="st4">
		<path class="st5" d="M112.1,49.8l-6.1-0.5c-0.7-2.5-1.7-4.9-3-7.1l3.9-4.5c0.6-0.7,0.6-1.8-0.1-2.4l-7-6.9
			c-0.6-0.6-1.7-0.7-2.4-0.1l-4.7,3.8c-2.3-1.3-4.7-2.3-7.3-3l-0.6-5.9c-0.1-0.9-0.9-1.6-1.8-1.6h-9.9c-0.9,0-1.7,0.7-1.8,1.6
			l-0.6,5.9c-2.5,0.6-5,1.6-7.3,3l-4.7-3.8c-0.7-0.6-1.7-0.5-2.4,0.1l-7,6.9c-0.7,0.7-0.7,1.7-0.1,2.4l3.9,4.5
			c-1.3,2.2-2.3,4.6-3,7.1l-6.1,0.5c-0.9,0.1-1.6,0.8-1.6,1.8v9.7c0,0.9,0.7,1.7,1.6,1.8l6.1,0.5c0.7,2.5,1.7,4.9,3,7.1l-3.9,4.5
			c-0.6,0.7-0.6,1.8,0.1,2.4l7,6.9c0.6,0.6,1.7,0.7,2.4,0.1l4.7-3.8c2.3,1.3,4.7,2.3,7.3,3l0.6,5.9c0.1,0.9,0.9,1.6,1.8,1.6h9.9
			c0.9,0,1.7-0.7,1.8-1.6l0.6-5.9c2.5-0.6,5-1.6,7.3-3l4.7,3.8c0.7,0.6,1.7,0.5,2.4-0.1l7-6.9c0.7-0.7,0.7-1.7,0.1-2.4l-3.9-4.5
			c1.3-2.2,2.3-4.6,3-7.1l6.1-0.5c0.9-0.1,1.6-0.8,1.6-1.8v-9.7C113.7,50.6,113,49.9,112.1,49.8L112.1,49.8z M110.1,59.6l-5.7,0.5
			c-0.8,0.1-1.4,0.6-1.6,1.4c-0.6,3-1.8,5.8-3.5,8.3c-0.4,0.7-0.4,1.5,0.1,2.1l3.6,4.3l-4.7,4.6L94,77.2c-0.6-0.5-1.4-0.5-2.1-0.1
			c-2.6,1.7-5.5,2.8-8.5,3.4c-0.8,0.2-1.3,0.8-1.4,1.6l-0.5,5.6h-6.7l-0.5-5.6c-0.1-0.8-0.6-1.4-1.4-1.6c-3-0.6-5.9-1.8-8.5-3.4
			c-0.6-0.4-1.5-0.4-2.1,0.1l-4.4,3.6l-4.7-4.6l3.6-4.3c0.5-0.6,0.6-1.5,0.1-2.1c-1.7-2.5-2.9-5.3-3.5-8.3c-0.2-0.8-0.8-1.3-1.6-1.4
			l-5.7-0.5v-6.5l5.7-0.5c0.8-0.1,1.4-0.6,1.6-1.4c0.6-3,1.8-5.8,3.5-8.3c0.4-0.7,0.4-1.5-0.1-2.1l-3.6-4.3l4.7-4.6l4.4,3.6
			c0.6,0.5,1.4,0.5,2.1,0.1c2.6-1.7,5.5-2.8,8.5-3.4c0.8-0.2,1.3-0.8,1.4-1.6l0.5-5.6h6.7l0.5,5.6c0.1,0.8,0.6,1.4,1.4,1.6
			c3,0.6,5.9,1.8,8.5,3.4c0.6,0.4,1.5,0.4,2.1-0.1l4.4-3.6l4.7,4.6l-3.6,4.3c-0.5,0.6-0.6,1.5-0.1,2.1c1.7,2.5,2.9,5.3,3.5,8.3
			c0.2,0.8,0.8,1.3,1.6,1.4l5.7,0.5V59.6z"/>
		<path class="st5" d="M78.2,46.3c-5.7,0-10.3,4.5-10.3,10.1c0,5.6,4.6,10.1,10.3,10.1c5.7,0,10.3-4.5,10.3-10.1
			C88.5,50.8,83.8,46.3,78.2,46.3L78.2,46.3z M78.2,63c-3.7,0-6.8-3-6.8-6.6c0-3.6,3-6.6,6.8-6.6c3.7,0,6.8,3,6.8,6.6
			C84.9,60,81.9,63,78.2,63L78.2,63z"/>
	</g>
	<path class="st30" d="M184.9,135.9h-55.8c-4.4,0-8-3.6-8-8V72.1c0-4.4,3.6-8,8-8h55.8c4.4,0,8,3.6,8,8v55.8
		C192.9,132.3,189.3,135.9,184.9,135.9z"/>
	<path class="st5" d="M152.1,121.1l-20.6-3v-16.5h20.6V121.1z"/>
	<path class="st5" d="M182.5,98.4h-27.1l0-20l27.1-3.9V98.4z"/>
	<path class="st5" d="M182.5,125.5l-27.1-3.9l0-20h27.1V125.5z"/>
	<path class="st5" d="M152.1,98.4h-20.6V81.9l20.6-3V98.4z"/>
</g>
</svg>
