<?xml version="1.0" encoding="utf-8"?>
<!-- Generator: Adobe Illustrator 21.1.0, SVG Export Plug-In . SVG Version: 6.00 Build 0)  -->
<svg version="1.1" id="Layer_1" xmlns="http://www.w3.org/2000/svg" xmlns:xlink="http://www.w3.org/1999/xlink" x="0px" y="0px"
	 viewBox="0 0 200 200" style="enable-background:new 0 0 200 200;" xml:space="preserve">
<style type="text/css">
	.st0{fill:#D4D4D4;}
	.st1{fill:#242F64;}
	.st2{fill:#2AB59C;}
	.st3{fill:none;stroke:#242F64;stroke-width:0.5;stroke-miterlimit:10;}
	.st4{opacity:0.1;}
	.st5{fill:#FFFFFF;}
	.st6{fill:#233065;}
	.st7{fill:#E0E1E0;}
	.st8{fill:#C1C0C0;}
	.st9{fill:#11846E;}
	.st10{fill:#E9E8E8;}
	.st11{opacity:0.1;fill:#FFFFFF;enable-background:new    ;}
	.st12{opacity:3.000000e-02;fill:#010101;enable-background:new    ;}
	.st13{enable-background:new    ;}
	.st14{fill:#353635;}
	.st15{fill:#EBEBEB;}
	.st16{fill:#CCDEF2;}
	.st17{fill:#E5904A;}
	.st18{fill:#9E9E9E;}
	.st19{fill:#149179;}
	.st20{fill:#262626;}
	.st21{fill:#F79D89;}
	.st22{clip-path:url(#SVGID_2_);fill:#F9D4C6;}
	.st23{fill:#245187;}
	.st24{fill:#1C3968;}
	.st25{fill:#1B967E;}
	.st26{fill:#BAE4FA;}
	.st27{fill:#9AC8E0;}
	.st28{fill:#16967E;}
	.st29{fill:#010101;}
	.st30{fill:#3C8FCD;}
</style>
<circle class="st6" cx="100" cy="94.3" r="90"/>
<g class="st4">
	<path class="st5" d="M166,44.5l-3.3-0.3c-0.4-1.4-0.9-2.7-1.6-3.9l2.1-2.5c0.3-0.4,0.3-1-0.1-1.3l-3.8-3.8
		c-0.4-0.3-0.9-0.4-1.3-0.1l-2.6,2.1c-1.2-0.7-2.6-1.3-4-1.6l-0.3-3.2c0-0.5-0.5-0.9-1-0.9h-5.4c-0.5,0-0.9,0.4-1,0.9l-0.3,3.2
		c-1.4,0.4-2.7,0.9-4,1.6l-2.6-2.1c-0.4-0.3-0.9-0.3-1.3,0.1l-3.8,3.8c-0.4,0.4-0.4,0.9-0.1,1.3l2.1,2.5c-0.7,1.2-1.3,2.5-1.6,3.9
		l-3.3,0.3c-0.5,0-0.9,0.5-0.9,1v5.3c0,0.5,0.4,0.9,0.9,1l3.3,0.3c0.4,1.4,0.9,2.7,1.6,3.9l-2.1,2.5c-0.3,0.4-0.3,1,0.1,1.3l3.8,3.8
		c0.4,0.3,0.9,0.4,1.3,0.1l2.6-2.1c1.2,0.7,2.6,1.3,4,1.6l0.3,3.2c0,0.5,0.5,0.9,1,0.9h5.4c0.5,0,0.9-0.4,1-0.9l0.3-3.2
		c1.4-0.4,2.7-0.9,4-1.6l2.6,2.1c0.4,0.3,0.9,0.3,1.3-0.1l3.8-3.8c0.4-0.4,0.4-0.9,0.1-1.3l-2.1-2.5c0.7-1.2,1.3-2.5,1.6-3.9
		l3.3-0.3c0.5,0,0.9-0.5,0.9-1v-5.3C166.8,45,166.5,44.6,166,44.5L166,44.5z M164.9,49.9l-3.1,0.3c-0.4,0-0.8,0.3-0.9,0.8
		c-0.4,1.6-1,3.1-1.9,4.5c-0.2,0.4-0.2,0.8,0.1,1.2l2,2.3l-2.6,2.5l-2.4-2c-0.3-0.3-0.8-0.3-1.1-0.1c-1.4,0.9-3,1.5-4.6,1.9
		c-0.4,0.1-0.7,0.4-0.8,0.9l-0.3,3h-3.7l-0.3-3c0-0.4-0.4-0.8-0.8-0.9c-1.6-0.3-3.2-1-4.6-1.9c-0.4-0.2-0.8-0.2-1.1,0.1l-2.4,2
		l-2.6-2.5l2-2.3c0.3-0.3,0.3-0.8,0.1-1.2c-0.9-1.4-1.6-2.9-1.9-4.5c-0.1-0.4-0.4-0.7-0.9-0.8l-3.1-0.3v-3.5l3.1-0.3
		c0.4,0,0.8-0.3,0.9-0.8c0.4-1.6,1-3.1,1.9-4.5c0.2-0.4,0.2-0.8-0.1-1.2l-2-2.3l2.6-2.5l2.4,2c0.3,0.3,0.8,0.3,1.1,0.1
		c1.4-0.9,3-1.5,4.6-1.9c0.4-0.1,0.7-0.4,0.8-0.9l0.3-3h3.7l0.3,3c0,0.4,0.4,0.8,0.8,0.9c1.6,0.3,3.2,1,4.6,1.9
		c0.4,0.2,0.8,0.2,1.1-0.1l2.4-2l2.6,2.5l-2,2.3c-0.3,0.3-0.3,0.8-0.1,1.2c0.9,1.4,1.6,2.9,1.9,4.5c0.1,0.4,0.4,0.7,0.9,0.8l3.1,0.3
		V49.9z"/>
	<path class="st5" d="M147.4,42.6c-3.1,0-5.6,2.5-5.6,5.5c0,3.1,2.5,5.5,5.6,5.5c3.1,0,5.6-2.5,5.6-5.5
		C153.1,45.1,150.5,42.6,147.4,42.6L147.4,42.6z M147.4,51.8c-2,0-3.7-1.6-3.7-3.6c0-2,1.7-3.6,3.7-3.6c2,0,3.7,1.6,3.7,3.6
		C151.1,50.1,149.5,51.8,147.4,51.8L147.4,51.8z"/>
</g>
<g class="st4">
	<path class="st5" d="M74.6,146.3l-2.1-0.2c-0.2-0.8-0.6-1.7-1-2.4l1.3-1.6c0.2-0.2,0.2-0.6,0-0.8l-2.4-2.3c-0.2-0.2-0.6-0.2-0.8,0
		l-1.6,1.3c-0.8-0.4-1.6-0.8-2.5-1l-0.2-2c0-0.3-0.3-0.5-0.6-0.5h-3.4c-0.3,0-0.6,0.2-0.6,0.5l-0.2,2c-0.9,0.2-1.7,0.6-2.5,1
		l-1.6-1.3c-0.2-0.2-0.6-0.2-0.8,0l-2.4,2.3c-0.2,0.2-0.2,0.6,0,0.8l1.3,1.6c-0.5,0.8-0.8,1.6-1,2.4l-2.1,0.2
		c-0.3,0-0.6,0.3-0.6,0.6v3.3c0,0.3,0.2,0.6,0.6,0.6l2.1,0.2c0.2,0.8,0.6,1.7,1,2.4l-1.3,1.6c-0.2,0.2-0.2,0.6,0,0.8l2.4,2.3
		c0.2,0.2,0.6,0.2,0.8,0l1.6-1.3c0.8,0.4,1.6,0.8,2.5,1l0.2,2c0,0.3,0.3,0.5,0.6,0.5h3.4c0.3,0,0.6-0.2,0.6-0.5l0.2-2
		c0.9-0.2,1.7-0.6,2.5-1l1.6,1.3c0.2,0.2,0.6,0.2,0.8,0l2.4-2.3c0.2-0.2,0.2-0.6,0-0.8l-1.3-1.6c0.5-0.8,0.8-1.6,1-2.4l2.1-0.2
		c0.3,0,0.6-0.3,0.6-0.6v-3.3C75.2,146.6,74.9,146.3,74.6,146.3L74.6,146.3z M74,149.7l-1.9,0.2c-0.3,0-0.5,0.2-0.5,0.5
		c-0.2,1-0.6,2-1.2,2.8c-0.1,0.2-0.1,0.5,0,0.7l1.2,1.5l-1.6,1.6l-1.5-1.2c-0.2-0.2-0.5-0.2-0.7,0c-0.9,0.6-1.9,1-2.9,1.2
		c-0.3,0.1-0.5,0.3-0.5,0.5l-0.2,1.9h-2.3l-0.2-1.9c0-0.3-0.2-0.5-0.5-0.5c-1-0.2-2-0.6-2.9-1.2c-0.2-0.1-0.5-0.1-0.7,0l-1.5,1.2
		l-1.6-1.6l1.2-1.5c0.2-0.2,0.2-0.5,0-0.7c-0.6-0.9-1-1.8-1.2-2.8c-0.1-0.3-0.3-0.5-0.5-0.5l-1.9-0.2v-2.2l1.9-0.2
		c0.3,0,0.5-0.2,0.5-0.5c0.2-1,0.6-2,1.2-2.8c0.1-0.2,0.1-0.5,0-0.7l-1.2-1.5l1.6-1.6l1.5,1.2c0.2,0.2,0.5,0.2,0.7,0
		c0.9-0.6,1.9-1,2.9-1.2c0.3-0.1,0.5-0.3,0.5-0.5l0.2-1.9h2.3l0.2,1.9c0,0.3,0.2,0.5,0.5,0.5c1,0.2,2,0.6,2.9,1.2
		c0.2,0.1,0.5,0.1,0.7,0l1.5-1.2l1.6,1.6l-1.2,1.5c-0.2,0.2-0.2,0.5,0,0.7c0.6,0.9,1,1.8,1.2,2.8c0.1,0.3,0.3,0.5,0.5,0.5l1.9,0.2
		V149.7z"/>
	<path class="st5" d="M63.1,145.1c-1.9,0-3.5,1.5-3.5,3.5c0,1.9,1.6,3.5,3.5,3.5c1.9,0,3.5-1.5,3.5-3.5
		C66.6,146.7,65,145.1,63.1,145.1L63.1,145.1z M63.1,150.8c-1.3,0-2.3-1-2.3-2.2c0-1.2,1-2.2,2.3-2.2c1.3,0,2.3,1,2.3,2.2
		C65.4,149.8,64.3,150.8,63.1,150.8L63.1,150.8z"/>
</g>
<g class="st4">
	<path class="st5" d="M91.7,55.7l-5.8-0.5c-0.6-2.4-1.6-4.7-2.9-6.8l3.7-4.4c0.6-0.7,0.5-1.7-0.1-2.3l-6.7-6.6
		c-0.6-0.6-1.6-0.7-2.3-0.1l-4.5,3.7c-2.2-1.3-4.5-2.2-7-2.8l-0.5-5.6c-0.1-0.9-0.8-1.5-1.7-1.5h-9.5c-0.9,0-1.6,0.7-1.7,1.5
		l-0.5,5.7c-2.4,0.6-4.8,1.6-7,2.8l-4.5-3.7c-0.7-0.5-1.6-0.5-2.3,0.1l-6.7,6.6c-0.6,0.6-0.7,1.6-0.1,2.3l3.7,4.4
		c-1.3,2.1-2.2,4.4-2.9,6.8l-5.8,0.5c-0.9,0.1-1.6,0.8-1.6,1.7v9.3c0,0.9,0.7,1.6,1.6,1.7l5.8,0.5c0.6,2.4,1.6,4.7,2.9,6.8l-3.7,4.4
		c-0.6,0.7-0.5,1.7,0.1,2.3l6.7,6.6c0.6,0.6,1.6,0.7,2.3,0.1l4.5-3.7c2.2,1.3,4.5,2.2,7,2.8l0.5,5.6c0.1,0.9,0.8,1.5,1.7,1.5h9.5
		c0.9,0,1.6-0.7,1.7-1.5l0.5-5.7c2.4-0.6,4.8-1.6,7-2.8l4.5,3.7c0.7,0.5,1.6,0.5,2.3-0.1l6.7-6.6c0.6-0.6,0.7-1.6,0.1-2.3L83,75.8
		c1.3-2.1,2.2-4.4,2.9-6.8l5.8-0.5c0.9-0.1,1.6-0.8,1.6-1.7v-9.3C93.2,56.6,92.5,55.8,91.7,55.7L91.7,55.7z M89.8,65.2l-5.5,0.5
		c-0.7,0.1-1.4,0.6-1.5,1.3c-0.6,2.8-1.8,5.5-3.4,7.9c-0.4,0.6-0.4,1.5,0.1,2l3.5,4.1l-4.5,4.4l-4.2-3.5c-0.6-0.5-1.4-0.5-2-0.1
		c-2.5,1.6-5.2,2.7-8.1,3.3c-0.7,0.1-1.3,0.8-1.4,1.5l-0.5,5.3h-6.4l-0.5-5.3c-0.1-0.7-0.6-1.4-1.4-1.5c-2.9-0.6-5.6-1.7-8.1-3.3
		c-0.6-0.4-1.4-0.3-2,0.1l-4.2,3.5l-4.5-4.4l3.5-4.1c0.5-0.6,0.5-1.4,0.1-2c-1.6-2.4-2.7-5.1-3.4-7.9c-0.2-0.7-0.8-1.3-1.5-1.3
		l-5.5-0.5V59l5.5-0.5c0.7-0.1,1.4-0.6,1.5-1.3c0.6-2.8,1.8-5.5,3.4-7.9c0.4-0.6,0.4-1.5-0.1-2l-3.5-4.1l4.5-4.4l4.2,3.5
		c0.6,0.5,1.4,0.5,2,0.1c2.5-1.6,5.2-2.7,8.1-3.3c0.7-0.1,1.3-0.8,1.4-1.5l0.5-5.3h6.4l0.5,5.3c0.1,0.7,0.6,1.4,1.4,1.5
		c2.9,0.6,5.6,1.7,8.1,3.3c0.6,0.4,1.4,0.3,2-0.1l4.2-3.5l4.5,4.4l-3.5,4.1c-0.5,0.6-0.5,1.4-0.1,2c1.6,2.4,2.7,5.1,3.4,7.9
		c0.2,0.7,0.8,1.3,1.5,1.3l5.5,0.5V65.2z"/>
	<path class="st5" d="M59.1,52.4c-5.5,0-9.9,4.4-9.9,9.7c0,5.4,4.4,9.7,9.9,9.7c5.5,0,9.9-4.4,9.9-9.7C69,56.7,64.6,52.4,59.1,52.4
		L59.1,52.4z M59.1,68.4c-3.6,0-6.5-2.8-6.5-6.3c0-3.5,2.9-6.3,6.5-6.3c3.6,0,6.5,2.8,6.5,6.3C65.6,65.6,62.7,68.4,59.1,68.4
		L59.1,68.4z"/>
</g>
<g>
	<path class="st5" d="M49.6,48.7H46l-0.7,2.1H43l3.8-10.2h1.9l3.8,10.2h-2.2L49.6,48.7z M46.5,47h2.5l-1.3-3.8L46.5,47z"/>
	<path class="st5" d="M61.8,50.8h-2.1l-4.1-6.7v6.7h-2.1V40.6h2.1l4.1,6.7v-6.7h2.1V50.8z"/>
	<path class="st5" d="M69.5,48.7h-3.7l-0.7,2.1h-2.2l3.8-10.2h1.9l3.8,10.2h-2.2L69.5,48.7z M66.4,47h2.5l-1.3-3.8L66.4,47z"/>
	<path class="st5" d="M75.5,49.1h4.4v1.7h-6.5V40.6h2.1V49.1z"/>
	<path class="st5" d="M82.7,45.2l2.1-4.6h2.3l-3.3,6.5v3.7h-2.1v-3.7l-3.3-6.5h2.3L82.7,45.2z"/>
	<path class="st5" d="M95.8,42.3h-3.1v8.5h-2.1v-8.5h-3.1v-1.7h8.3V42.3z"/>
	<path class="st5" d="M99.2,50.8h-2.1V40.6h2.1V50.8z"/>
	<path class="st5" d="M109.1,47.4c0,0.5-0.2,1-0.3,1.4c-0.2,0.4-0.5,0.8-0.8,1.1c-0.3,0.3-0.8,0.6-1.3,0.7s-1.1,0.3-1.7,0.3
		c-0.7,0-1.2-0.1-1.8-0.3c-0.5-0.2-1-0.6-1.3-1c-0.4-0.4-0.6-0.9-0.8-1.5c-0.2-0.6-0.3-1.3-0.3-2v-0.7c0-0.7,0.1-1.4,0.3-2
		c0.2-0.6,0.5-1.1,0.8-1.5c0.4-0.4,0.8-0.8,1.3-1c0.5-0.2,1.1-0.3,1.7-0.3c0.6,0,1.2,0.1,1.7,0.3c0.5,0.2,0.9,0.4,1.2,0.7
		c0.3,0.3,0.6,0.7,0.8,1.1c0.2,0.4,0.3,0.9,0.4,1.4h-2.1c0-0.3-0.1-0.6-0.2-0.8c-0.1-0.2-0.2-0.4-0.4-0.6c-0.2-0.2-0.4-0.3-0.6-0.4
		c-0.2-0.1-0.5-0.1-0.9-0.1c-0.7,0-1.2,0.3-1.6,0.8c-0.3,0.5-0.5,1.3-0.5,2.4v0.7c0,0.5,0,1,0.1,1.4c0.1,0.4,0.2,0.7,0.4,1
		c0.2,0.3,0.4,0.5,0.6,0.6c0.3,0.1,0.6,0.2,1,0.2c0.3,0,0.6,0,0.9-0.1c0.2-0.1,0.4-0.2,0.6-0.3c0.2-0.2,0.3-0.3,0.4-0.6
		c0.1-0.2,0.1-0.5,0.2-0.8H109.1z"/>
	<path class="st5" d="M115.8,48.1c0-0.2,0-0.3-0.1-0.5c-0.1-0.1-0.1-0.3-0.3-0.4c-0.1-0.1-0.3-0.2-0.6-0.4c-0.3-0.1-0.6-0.2-1-0.4
		c-0.5-0.1-0.9-0.3-1.3-0.5c-0.4-0.2-0.8-0.4-1.1-0.7c-0.3-0.3-0.6-0.5-0.7-0.9c-0.2-0.3-0.3-0.7-0.3-1.2c0-0.4,0.1-0.8,0.3-1.2
		c0.2-0.4,0.4-0.7,0.8-0.9c0.3-0.2,0.7-0.4,1.2-0.6c0.5-0.1,1-0.2,1.5-0.2c0.6,0,1.1,0.1,1.5,0.2c0.5,0.2,0.9,0.4,1.2,0.7
		c0.3,0.3,0.6,0.6,0.8,1c0.2,0.4,0.3,0.8,0.3,1.3h-2.1c0-0.2,0-0.4-0.1-0.6c-0.1-0.2-0.2-0.3-0.3-0.5c-0.1-0.1-0.3-0.2-0.5-0.3
		c-0.2-0.1-0.5-0.1-0.7-0.1c-0.3,0-0.5,0-0.7,0.1c-0.2,0.1-0.4,0.1-0.5,0.3c-0.1,0.1-0.2,0.2-0.3,0.4c-0.1,0.1-0.1,0.3-0.1,0.5
		c0,0.3,0.2,0.6,0.5,0.8c0.3,0.2,0.8,0.4,1.5,0.6c0.6,0.2,1,0.4,1.5,0.6c0.4,0.2,0.8,0.4,1.1,0.7c0.3,0.3,0.5,0.6,0.6,0.9
		c0.1,0.3,0.2,0.7,0.2,1.1c0,0.4-0.1,0.8-0.3,1.2c-0.2,0.3-0.4,0.6-0.7,0.9c-0.3,0.2-0.7,0.4-1.2,0.6c-0.5,0.1-1,0.2-1.5,0.2
		c-0.3,0-0.7,0-1-0.1c-0.3-0.1-0.7-0.1-1-0.3c-0.3-0.1-0.6-0.3-0.8-0.5c-0.3-0.2-0.5-0.4-0.7-0.6s-0.3-0.5-0.5-0.8
		c-0.1-0.3-0.2-0.7-0.2-1h2.1c0,0.3,0,0.6,0.1,0.8c0.1,0.2,0.2,0.4,0.4,0.5c0.2,0.1,0.4,0.2,0.6,0.3c0.2,0.1,0.5,0.1,0.8,0.1
		c0.3,0,0.5,0,0.7-0.1c0.2-0.1,0.4-0.1,0.5-0.2c0.1-0.1,0.2-0.2,0.3-0.4C115.8,48.5,115.8,48.3,115.8,48.1z"/>
	<path class="st5" d="M122.5,48.1c0-0.3,0-0.6,0.1-0.8c0.1-0.2,0.2-0.5,0.4-0.7c0.2-0.2,0.4-0.4,0.6-0.6c0.2-0.2,0.5-0.4,0.8-0.6
		c-0.3-0.4-0.5-0.8-0.7-1.1c-0.2-0.4-0.3-0.7-0.3-1.1c0-0.4,0.1-0.8,0.2-1.1c0.1-0.3,0.3-0.6,0.6-0.8c0.2-0.2,0.5-0.4,0.9-0.5
		c0.3-0.1,0.7-0.2,1.1-0.2c0.4,0,0.8,0.1,1.1,0.2c0.3,0.1,0.6,0.3,0.8,0.5c0.2,0.2,0.4,0.5,0.5,0.8c0.1,0.3,0.2,0.6,0.2,0.9
		c0,0.2,0,0.5-0.1,0.7c-0.1,0.2-0.2,0.4-0.3,0.6c-0.1,0.2-0.3,0.4-0.4,0.5c-0.2,0.2-0.3,0.3-0.5,0.5l-0.6,0.5l1.8,2
		c0.1-0.3,0.2-0.5,0.3-0.8s0.1-0.6,0.1-1h1.7c0,0.6-0.1,1.2-0.2,1.7c-0.1,0.5-0.4,1-0.7,1.5l1.5,1.8h-2.3l-0.5-0.6
		c-0.4,0.3-0.8,0.4-1.2,0.6c-0.4,0.1-0.9,0.2-1.4,0.2c-0.5,0-1-0.1-1.4-0.2c-0.4-0.1-0.8-0.3-1-0.6c-0.3-0.3-0.5-0.6-0.7-0.9
		C122.5,48.9,122.5,48.5,122.5,48.1z M125.9,49.3c0.5,0,0.9-0.1,1.4-0.4l-2-2.3l-0.1,0.1c-0.1,0.1-0.2,0.2-0.3,0.3
		c-0.1,0.1-0.1,0.2-0.2,0.3c0,0.1-0.1,0.2-0.1,0.3c0,0.1,0,0.2,0,0.3c0,0.2,0,0.4,0.1,0.5c0.1,0.2,0.2,0.3,0.3,0.4
		c0.1,0.1,0.3,0.2,0.4,0.3C125.5,49.3,125.7,49.3,125.9,49.3z M125.1,43.1c0,0.2,0.1,0.4,0.2,0.6c0.1,0.2,0.3,0.4,0.4,0.7l0.5-0.4
		c0.1-0.1,0.3-0.2,0.4-0.3c0.1-0.1,0.2-0.2,0.2-0.3c0.1-0.1,0.1-0.2,0.1-0.3c0-0.1,0-0.2,0-0.3c0-0.1,0-0.2-0.1-0.3
		c0-0.1-0.1-0.2-0.2-0.3c-0.1-0.1-0.2-0.1-0.3-0.2c-0.1-0.1-0.2-0.1-0.4-0.1c-0.2,0-0.3,0-0.4,0.1c-0.1,0.1-0.2,0.1-0.3,0.2
		c-0.1,0.1-0.1,0.2-0.2,0.3C125.2,42.9,125.1,43,125.1,43.1z"/>
	<path class="st5" d="M135.8,50.8V40.6h3.1c0.7,0,1.3,0.1,1.9,0.4c0.6,0.2,1.1,0.6,1.5,1c0.4,0.4,0.7,0.9,1,1.5
		c0.2,0.6,0.3,1.3,0.3,2V46c0,0.7-0.1,1.4-0.3,2c-0.2,0.6-0.5,1.1-1,1.5c-0.4,0.4-0.9,0.8-1.5,1c-0.6,0.2-1.2,0.3-1.9,0.3H135.8z
		 M137.9,42.3v6.8h1c0.8,0,1.5-0.3,1.9-0.8c0.4-0.5,0.6-1.3,0.6-2.3v-0.5c0-1-0.2-1.8-0.6-2.4c-0.4-0.5-1.1-0.8-1.9-0.8H137.9z"/>
	<path class="st5" d="M153,47.9l1.4-7.2h2.1l-2.3,10.2h-2.1l-1.7-6.8l-1.7,6.8h-2.1l-2.3-10.2h2.1l1.4,7.2l1.7-7.2h1.8L153,47.9z"/>
	<path class="st5" d="M62.4,59.5h-3.1V68h-2.1v-8.5h-3.1v-1.7h8.3V59.5z"/>
	<path class="st5" d="M69.7,63.6h-4v2.7h4.7V68h-6.8V57.8h6.8v1.7h-4.7v2.4h4V63.6z"/>
	<path class="st5" d="M79.6,64.6c0,0.5-0.2,1-0.3,1.4c-0.2,0.4-0.5,0.8-0.8,1.1c-0.3,0.3-0.8,0.6-1.3,0.7s-1.1,0.3-1.7,0.3
		c-0.7,0-1.2-0.1-1.8-0.3c-0.5-0.2-1-0.6-1.3-1c-0.4-0.4-0.6-0.9-0.8-1.5c-0.2-0.6-0.3-1.3-0.3-2v-0.7c0-0.7,0.1-1.4,0.3-2
		c0.2-0.6,0.5-1.1,0.8-1.5s0.8-0.8,1.3-1c0.5-0.2,1.1-0.3,1.7-0.3c0.6,0,1.2,0.1,1.7,0.3c0.5,0.2,0.9,0.4,1.2,0.7
		c0.3,0.3,0.6,0.7,0.8,1.1c0.2,0.4,0.3,0.9,0.4,1.4h-2.1c0-0.3-0.1-0.6-0.2-0.8c-0.1-0.2-0.2-0.4-0.4-0.6c-0.2-0.2-0.4-0.3-0.6-0.4
		c-0.2-0.1-0.5-0.1-0.9-0.1c-0.7,0-1.2,0.3-1.6,0.8s-0.5,1.3-0.5,2.4v0.7c0,0.5,0,1,0.1,1.4c0.1,0.4,0.2,0.7,0.4,1
		c0.2,0.3,0.4,0.5,0.6,0.6c0.3,0.1,0.6,0.2,1,0.2c0.3,0,0.6,0,0.9-0.1c0.2-0.1,0.4-0.2,0.6-0.3c0.2-0.2,0.3-0.3,0.4-0.6
		c0.1-0.2,0.1-0.5,0.2-0.8H79.6z"/>
	<path class="st5" d="M89.2,68h-2.1v-4.4h-4.1V68H81V57.8h2.1v4.1h4.1v-4.1h2.1V68z"/>
	<path class="st5" d="M99.3,68h-2.1l-4.1-6.7V68h-2.1V57.8h2.1l4.1,6.7v-6.7h2.1V68z"/>
	<path class="st5" d="M109.5,63.1c0,0.8-0.1,1.5-0.3,2.1c-0.2,0.6-0.5,1.1-0.9,1.6c-0.4,0.4-0.8,0.8-1.4,1c-0.5,0.2-1.1,0.3-1.8,0.3
		s-1.2-0.1-1.8-0.3c-0.5-0.2-1-0.6-1.4-1c-0.4-0.4-0.7-1-0.9-1.6c-0.2-0.6-0.3-1.3-0.3-2.1v-0.4c0-0.8,0.1-1.5,0.3-2.1
		c0.2-0.6,0.5-1.1,0.9-1.6c0.4-0.4,0.8-0.8,1.4-1c0.5-0.2,1.1-0.3,1.8-0.3c0.6,0,1.2,0.1,1.8,0.3c0.5,0.2,1,0.6,1.4,1
		c0.4,0.4,0.7,1,0.9,1.6c0.2,0.6,0.3,1.3,0.3,2.1V63.1z M107.4,62.7c0-1.1-0.2-1.9-0.6-2.4c-0.4-0.6-0.9-0.8-1.6-0.8
		c-0.7,0-1.3,0.3-1.6,0.8c-0.4,0.6-0.6,1.4-0.6,2.4v0.5c0,0.5,0.1,1,0.2,1.4c0.1,0.4,0.2,0.8,0.4,1c0.2,0.3,0.4,0.5,0.7,0.6
		c0.3,0.1,0.6,0.2,0.9,0.2c0.7,0,1.3-0.3,1.6-0.8c0.4-0.6,0.6-1.4,0.6-2.4V62.7z"/>
	<path class="st5" d="M113.1,66.3h4.4V68h-6.5V57.8h2.1V66.3z"/>
	<path class="st5" d="M126.7,63.1c0,0.8-0.1,1.5-0.3,2.1c-0.2,0.6-0.5,1.1-0.9,1.6c-0.4,0.4-0.8,0.8-1.4,1c-0.5,0.2-1.1,0.3-1.8,0.3
		c-0.6,0-1.2-0.1-1.8-0.3c-0.5-0.2-1-0.6-1.4-1c-0.4-0.4-0.7-1-0.9-1.6c-0.2-0.6-0.3-1.3-0.3-2.1v-0.4c0-0.8,0.1-1.5,0.3-2.1
		c0.2-0.6,0.5-1.1,0.9-1.6c0.4-0.4,0.8-0.8,1.4-1c0.5-0.2,1.1-0.3,1.8-0.3c0.6,0,1.2,0.1,1.8,0.3c0.5,0.2,1,0.6,1.4,1
		c0.4,0.4,0.7,1,0.9,1.6c0.2,0.6,0.3,1.3,0.3,2.1V63.1z M124.6,62.7c0-1.1-0.2-1.9-0.6-2.4c-0.4-0.6-0.9-0.8-1.6-0.8
		c-0.7,0-1.3,0.3-1.6,0.8c-0.4,0.6-0.6,1.4-0.6,2.4v0.5c0,0.5,0.1,1,0.2,1.4c0.1,0.4,0.2,0.8,0.4,1c0.2,0.3,0.4,0.5,0.7,0.6
		c0.3,0.1,0.6,0.2,0.9,0.2c0.7,0,1.3-0.3,1.6-0.8c0.4-0.6,0.6-1.4,0.6-2.4V62.7z"/>
	<path class="st5" d="M136.3,66.7c-0.1,0.1-0.3,0.3-0.5,0.5c-0.2,0.2-0.5,0.3-0.8,0.5c-0.3,0.1-0.7,0.3-1.1,0.4
		c-0.4,0.1-0.9,0.1-1.5,0.1c-0.7,0-1.3-0.1-1.8-0.3c-0.5-0.2-1-0.5-1.4-1c-0.4-0.4-0.7-0.9-0.9-1.5c-0.2-0.6-0.3-1.3-0.3-2.1v-0.6
		c0-0.8,0.1-1.5,0.3-2.1c0.2-0.6,0.5-1.1,0.9-1.5c0.4-0.4,0.8-0.7,1.3-1c0.5-0.2,1.1-0.3,1.8-0.3c0.7,0,1.2,0.1,1.7,0.2
		s0.9,0.4,1.2,0.7c0.3,0.3,0.6,0.7,0.8,1.1c0.2,0.4,0.3,0.9,0.4,1.4h-2c0-0.3-0.1-0.5-0.2-0.7c-0.1-0.2-0.2-0.4-0.4-0.5
		c-0.2-0.1-0.3-0.3-0.6-0.3c-0.2-0.1-0.5-0.1-0.8-0.1c-0.7,0-1.3,0.3-1.6,0.8c-0.4,0.5-0.6,1.3-0.6,2.4v0.6c0,1.1,0.2,1.9,0.6,2.4
		c0.4,0.5,1,0.8,1.8,0.8c0.3,0,0.5,0,0.7,0c0.2,0,0.3-0.1,0.5-0.1c0.1,0,0.2-0.1,0.3-0.2c0.1-0.1,0.2-0.1,0.2-0.2v-1.8h-1.9v-1.5h4
		V66.7z"/>
	<path class="st5" d="M141.5,62.4l2.1-4.6h2.3l-3.3,6.5V68h-2.1v-3.7l-3.3-6.5h2.3L141.5,62.4z"/>
</g>
<g>
	<path class="st23" d="M147.9,159.5l16.5,16.5c1.5,1.5,2.3,3.5,2.3,5.6l0,0c0,4.4-3.6,8-8,8c0,0,0,0,0,0l0,0c-2.1,0-4.1-0.8-5.6-2.3
		l-16.5-16.5L147.9,159.5z"/>
	
		<rect x="129.6" y="153.8" transform="matrix(0.7071 -0.7071 0.7071 0.7071 -73.1573 144.2605)" class="st2" width="16" height="13.3"/>
	<path class="st24" d="M145.1,163.3c2.4,0,4.7,0.2,7.1,0.5l-4.2-4.2l-3.8,3.8C144.4,163.3,144.8,163.3,145.1,163.3z"/>
	<path class="st25" d="M147.9,159.5l-9.4-9.4l-11.3,11.3l3.8,3.8c4.3-1.2,8.7-1.8,13.1-1.9L147.9,159.5z"/>
	<circle class="st26" cx="102.7" cy="125.6" r="37.7"/>
	<g>
		
			<rect x="89.5" y="121.4" transform="matrix(0.7071 -0.7071 0.7071 0.7071 -64.7038 102.5447)" class="st2" width="3.8" height="16"/>
		
			<rect x="101.5" y="125.6" transform="matrix(0.7071 -0.7071 0.7071 0.7071 -57.3026 116.6357)" class="st2" width="21.3" height="3.8"/>
		<rect x="155.4" y="88" class="st2" width="13.2" height="3.8"/>
		<rect x="65.1" y="118.1" class="st2" width="11.3" height="3.8"/>
		
			<rect x="136.9" y="95.5" transform="matrix(0.7071 -0.7071 0.7071 0.7071 -27.1855 129.1101)" class="st2" width="10.6" height="3.8"/>
	</g>
	<g>
		<path class="st23" d="M82,127.5c-4.2,0-7.5-3.4-7.5-7.5c0-4.2,3.4-7.5,7.5-7.5s7.5,3.4,7.5,7.5C89.6,124.1,86.2,127.5,82,127.5z
			 M82,116.2c-2.1,0-3.8,1.7-3.8,3.8c0,2.1,1.7,3.8,3.8,3.8s3.8-1.7,3.8-3.8C85.8,117.9,84.1,116.2,82,116.2z"/>
		<path class="st23" d="M100.8,146.3c-4.2,0-7.5-3.4-7.5-7.5c0-4.2,3.4-7.5,7.5-7.5s7.5,3.4,7.5,7.5
			C108.4,142.9,105,146.3,100.8,146.3z M100.8,135c-2.1,0-3.8,1.7-3.8,3.8c0,2.1,1.7,3.8,3.8,3.8s3.8-1.7,3.8-3.8
			C104.6,136.7,102.9,135,100.8,135z"/>
		<path class="st23" d="M149.8,97.4c-4.2,0-7.5-3.4-7.5-7.5c0-4.2,3.4-7.5,7.5-7.5c4.2,0,7.5,3.4,7.5,7.5
			C157.3,94,154,97.4,149.8,97.4z M149.8,86.1c-2.1,0-3.8,1.7-3.8,3.8s1.7,3.8,3.8,3.8c2.1,0,3.8-1.7,3.8-3.8S151.9,86.1,149.8,86.1
			z"/>
	</g>
	<path class="st27" d="M117.2,90.8c16.1,13.2,18.4,36.9,5.2,53c-10.5,12.8-28.2,17.3-43.6,10.9c16.1,13.2,39.8,10.8,53-5.2
		s10.8-39.8-5.2-53C123.8,94.2,120.6,92.3,117.2,90.8z"/>
	
		<rect x="125.6" y="106.8" transform="matrix(0.7071 -0.7071 0.7071 0.7071 -38.4764 124.4291)" class="st2" width="10.6" height="3.8"/>
	<path class="st28" d="M133.3,103.7L129,108c0.5,1.4,0.8,2.8,1.1,4.2l5.3-5.3C134.8,105.8,134.1,104.7,133.3,103.7z"/>
	<g>
		<path class="st23" d="M102.7,80.4c-25,0-45.2,20.2-45.2,45.2s20.2,45.2,45.2,45.2s45.2-20.2,45.2-45.2S127.7,80.4,102.7,80.4z
			 M102.7,163.3c-20.8,0-37.7-16.9-37.7-37.7S81.9,88,102.7,88s37.7,16.9,37.7,37.7S123.5,163.3,102.7,163.3z"/>
		<path class="st23" d="M123.4,123.7c-4.2,0-7.5-3.4-7.5-7.5s3.4-7.5,7.5-7.5c4.2,0,7.5,3.4,7.5,7.5S127.6,123.7,123.4,123.7z
			 M123.4,112.4c-2.1,0-3.8,1.7-3.8,3.8s1.7,3.8,3.8,3.8c2.1,0,3.8-1.7,3.8-3.8S125.5,112.4,123.4,112.4z"/>
	</g>
	<path class="st29" d="M165.7,174.7l-15.2-15.2l-2.7-2.7l-5.7-5.7c14.1-21.9,7.9-51-14-65.2s-51-7.9-65.2,14s-7.9,51,14,65.2
		c15.6,10.1,35.6,10.1,51.2,0l5.7,5.7l2.7,2.7l15.2,15.2c3.9,3.9,10.1,3.9,14,0C169.6,184.8,169.6,178.5,165.7,174.7z M59.4,125.6
		c0-23.9,19.4-43.3,43.3-43.3s43.3,19.4,43.3,43.3s-19.4,43.3-43.3,43.3C78.8,168.9,59.5,149.5,59.4,125.6z M131.4,162.9
		c3.2-2.5,6.1-5.4,8.6-8.6l5.2,5.2l-8.6,8.6L131.4,162.9z M158.8,187.7c-1.6,0-3.2-0.6-4.3-1.8l-15.2-15.2l8.6-8.6l15.2,15.2
		c2.4,2.4,2.4,6.3,0,8.6C161.9,187.1,160.4,187.7,158.8,187.7z"/>
	<path class="st29" d="M102.7,86.1c-21.8,0-39.5,17.7-39.5,39.5s17.7,39.5,39.5,39.5s39.5-17.7,39.5-39.5
		C142.2,103.8,124.6,86.1,102.7,86.1z M102.7,161.4c-19.8,0-35.8-16-35.8-35.8s16-35.8,35.8-35.8s35.8,16,35.8,35.8
		C138.5,145.4,122.5,161.4,102.7,161.4z"/>
</g>
</svg>
