<?xml version="1.0" encoding="utf-8"?>
<!-- Generator: Adobe Illustrator 21.1.0, SVG Export Plug-In . SVG Version: 6.00 Build 0)  -->
<svg version="1.1" id="Layer_1" xmlns="http://www.w3.org/2000/svg" xmlns:xlink="http://www.w3.org/1999/xlink" x="0px" y="0px"
	 viewBox="0 0 200 200" style="enable-background:new 0 0 200 200;" xml:space="preserve">
<style type="text/css">
	.st0{fill:#D4D4D4;}
	.st1{fill:#242F64;}
	.st2{fill:#2AB59C;}
	.st3{fill:none;stroke:#242F64;stroke-width:0.5;stroke-miterlimit:10;}
	.st4{opacity:0.1;}
	.st5{fill:#FFFFFF;}
	.st6{fill:#233065;}
	.st7{fill:#E0E1E0;}
	.st8{fill:#C1C0C0;}
	.st9{fill:#11846E;}
	.st10{fill:#E9E8E8;}
	.st11{opacity:0.1;fill:#FFFFFF;enable-background:new    ;}
	.st12{opacity:3.000000e-02;fill:#010101;enable-background:new    ;}
	.st13{enable-background:new    ;}
	.st14{fill:#353635;}
	.st15{fill:#EBEBEB;}
	.st16{fill:#CCDEF2;}
	.st17{fill:#E5904A;}
	.st18{fill:#9E9E9E;}
	.st19{fill:#149179;}
	.st20{fill:#262626;}
	.st21{fill:#F79D89;}
	.st22{clip-path:url(#SVGID_2_);fill:#F9D4C6;}
	.st23{fill:#245187;}
	.st24{fill:#1C3968;}
	.st25{fill:#1B967E;}
	.st26{fill:#BAE4FA;}
	.st27{fill:#9AC8E0;}
	.st28{fill:#16967E;}
	.st29{fill:#010101;}
	.st30{fill:#3C8FCD;}
</style>
<circle class="st6" cx="95.5" cy="100" r="90"/>
<g class="st4">
	<path class="st5" d="M160.6,130.9l-3.4-0.3c-0.4-1.4-0.9-2.7-1.7-3.9l2.1-2.5c0.3-0.4,0.3-1-0.1-1.3l-3.9-3.8
		c-0.4-0.4-0.9-0.4-1.3-0.1l-2.6,2.1c-1.3-0.7-2.6-1.3-4-1.6l-0.3-3.3c0-0.5-0.5-0.9-1-0.9h-5.5c-0.5,0-0.9,0.4-1,0.9l-0.3,3.3
		c-1.4,0.4-2.8,0.9-4,1.6l-2.6-2.1c-0.4-0.3-1-0.3-1.3,0.1l-3.9,3.8c-0.4,0.4-0.4,0.9-0.1,1.3l2.1,2.5c-0.7,1.2-1.3,2.5-1.7,3.9
		l-3.4,0.3c-0.5,0-0.9,0.5-0.9,1v5.4c0,0.5,0.4,0.9,0.9,1l3.4,0.3c0.4,1.4,0.9,2.7,1.7,3.9l-2.1,2.5c-0.3,0.4-0.3,1,0.1,1.3l3.9,3.8
		c0.4,0.4,0.9,0.4,1.3,0.1l2.6-2.1c1.3,0.7,2.6,1.3,4,1.6l0.3,3.3c0,0.5,0.5,0.9,1,0.9h5.5c0.5,0,0.9-0.4,1-0.9l0.3-3.3
		c1.4-0.4,2.8-0.9,4-1.6l2.6,2.1c0.4,0.3,1,0.3,1.3-0.1l3.9-3.8c0.4-0.4,0.4-0.9,0.1-1.3l-2.1-2.5c0.7-1.2,1.3-2.5,1.7-3.9l3.4-0.3
		c0.5,0,0.9-0.5,0.9-1v-5.4C161.5,131.3,161.1,130.9,160.6,130.9L160.6,130.9z M159.5,136.3l-3.2,0.3c-0.4,0-0.8,0.4-0.9,0.8
		c-0.4,1.6-1,3.2-1.9,4.6c-0.2,0.4-0.2,0.8,0.1,1.2l2,2.4l-2.6,2.5l-2.5-2c-0.3-0.3-0.8-0.3-1.1-0.1c-1.4,0.9-3,1.6-4.7,1.9
		c-0.4,0.1-0.7,0.4-0.8,0.9l-0.3,3.1h-3.7l-0.3-3.1c0-0.4-0.4-0.8-0.8-0.9c-1.7-0.3-3.3-1-4.7-1.9c-0.4-0.2-0.8-0.2-1.1,0.1l-2.5,2
		l-2.6-2.5l2-2.4c0.3-0.3,0.3-0.8,0.1-1.2c-0.9-1.4-1.6-2.9-1.9-4.6c-0.1-0.4-0.4-0.7-0.9-0.8l-3.2-0.3v-3.6l3.2-0.3
		c0.4,0,0.8-0.4,0.9-0.8c0.4-1.6,1-3.2,1.9-4.6c0.2-0.4,0.2-0.8-0.1-1.2l-2-2.4l2.6-2.5l2.5,2c0.3,0.3,0.8,0.3,1.1,0.1
		c1.4-0.9,3-1.6,4.7-1.9c0.4-0.1,0.7-0.4,0.8-0.9l0.3-3.1h3.7l0.3,3.1c0,0.4,0.4,0.8,0.8,0.9c1.7,0.3,3.3,1,4.7,1.9
		c0.4,0.2,0.8,0.2,1.1-0.1l2.5-2l2.6,2.5l-2,2.4c-0.3,0.3-0.3,0.8-0.1,1.2c0.9,1.4,1.6,2.9,1.9,4.6c0.1,0.4,0.4,0.7,0.9,0.8l3.2,0.3
		V136.3z"/>
	<path class="st5" d="M141.8,128.9c-3.1,0-5.7,2.5-5.7,5.6c0,3.1,2.6,5.6,5.7,5.6c3.1,0,5.7-2.5,5.7-5.6
		C147.5,131.4,144.9,128.9,141.8,128.9L141.8,128.9z M141.8,138.2c-2.1,0-3.7-1.6-3.7-3.6c0-2,1.7-3.6,3.7-3.6
		c2.1,0,3.7,1.6,3.7,3.6C145.5,136.5,143.9,138.2,141.8,138.2L141.8,138.2z"/>
</g>
<g class="st4">
	<path class="st5" d="M69.8,152.7l-2.1-0.2c-0.2-0.9-0.6-1.7-1-2.4l1.3-1.6c0.2-0.2,0.2-0.6,0-0.8l-2.4-2.4c-0.2-0.2-0.6-0.2-0.8,0
		l-1.6,1.3c-0.8-0.5-1.6-0.8-2.5-1l-0.2-2c0-0.3-0.3-0.6-0.6-0.6h-3.4c-0.3,0-0.6,0.2-0.6,0.6l-0.2,2c-0.9,0.2-1.7,0.6-2.5,1
		l-1.6-1.3c-0.2-0.2-0.6-0.2-0.8,0l-2.4,2.4c-0.2,0.2-0.2,0.6,0,0.8l1.3,1.6c-0.5,0.8-0.8,1.6-1,2.4l-2.1,0.2
		c-0.3,0-0.6,0.3-0.6,0.6v3.4c0,0.3,0.2,0.6,0.6,0.6l2.1,0.2c0.2,0.9,0.6,1.7,1,2.4l-1.3,1.6c-0.2,0.2-0.2,0.6,0,0.8l2.4,2.4
		c0.2,0.2,0.6,0.2,0.8,0l1.6-1.3c0.8,0.5,1.6,0.8,2.5,1l0.2,2c0,0.3,0.3,0.6,0.6,0.6h3.4c0.3,0,0.6-0.2,0.6-0.6l0.2-2
		c0.9-0.2,1.7-0.6,2.5-1l1.6,1.3c0.2,0.2,0.6,0.2,0.8,0l2.4-2.4c0.2-0.2,0.2-0.6,0-0.8l-1.3-1.6c0.5-0.8,0.8-1.6,1-2.4l2.1-0.2
		c0.3,0,0.6-0.3,0.6-0.6v-3.4C70.3,153,70.1,152.7,69.8,152.7L69.8,152.7z M69.1,156.1l-2,0.2c-0.3,0-0.5,0.2-0.5,0.5
		c-0.2,1-0.6,2-1.2,2.9c-0.2,0.2-0.1,0.5,0,0.7l1.3,1.5l-1.6,1.6l-1.5-1.2c-0.2-0.2-0.5-0.2-0.7,0c-0.9,0.6-1.9,1-2.9,1.2
		c-0.3,0.1-0.5,0.3-0.5,0.5l-0.2,1.9h-2.3l-0.2-1.9c0-0.3-0.2-0.5-0.5-0.5c-1-0.2-2-0.6-2.9-1.2c-0.2-0.1-0.5-0.1-0.7,0l-1.5,1.2
		l-1.6-1.6l1.3-1.5c0.2-0.2,0.2-0.5,0-0.7c-0.6-0.9-1-1.8-1.2-2.9c-0.1-0.3-0.3-0.5-0.5-0.5l-2-0.2v-2.2l2-0.2
		c0.3,0,0.5-0.2,0.5-0.5c0.2-1,0.6-2,1.2-2.9c0.2-0.2,0.1-0.5,0-0.7l-1.3-1.5l1.6-1.6l1.5,1.2c0.2,0.2,0.5,0.2,0.7,0
		c0.9-0.6,1.9-1,2.9-1.2c0.3-0.1,0.5-0.3,0.5-0.5l0.2-1.9h2.3l0.2,1.9c0,0.3,0.2,0.5,0.5,0.5c1,0.2,2,0.6,2.9,1.2
		c0.2,0.1,0.5,0.1,0.7,0l1.5-1.2l1.6,1.6l-1.3,1.5c-0.2,0.2-0.2,0.5,0,0.7c0.6,0.9,1,1.8,1.2,2.9c0.1,0.3,0.3,0.5,0.5,0.5l2,0.2
		V156.1z"/>
	<path class="st5" d="M58.1,151.4c-2,0-3.6,1.6-3.6,3.5c0,1.9,1.6,3.5,3.6,3.5c2,0,3.6-1.6,3.6-3.5C61.6,153,60,151.4,58.1,151.4
		L58.1,151.4z M58.1,157.2c-1.3,0-2.3-1-2.3-2.3c0-1.3,1-2.3,2.3-2.3c1.3,0,2.3,1,2.3,2.3C60.4,156.2,59.4,157.2,58.1,157.2
		L58.1,157.2z"/>
</g>
<g class="st4">
	<path class="st5" d="M87,60.9l-5.9-0.5c-0.6-2.4-1.6-4.7-2.9-6.9l3.8-4.4c0.6-0.7,0.5-1.7-0.1-2.4L75.1,40
		c-0.6-0.6-1.6-0.7-2.3-0.1l-4.6,3.7c-2.2-1.3-4.6-2.2-7.1-2.9L60.6,35c-0.1-0.9-0.8-1.6-1.7-1.6h-9.6c-0.9,0-1.6,0.7-1.7,1.6
		L47,40.8c-2.5,0.6-4.9,1.6-7.1,2.9l-4.6-3.7c-0.7-0.6-1.7-0.5-2.3,0.1l-6.8,6.7c-0.6,0.6-0.7,1.7-0.1,2.3l3.8,4.4
		c-1.3,2.1-2.3,4.5-2.9,6.9l-5.9,0.5c-0.9,0.1-1.6,0.8-1.6,1.7V72c0,0.9,0.7,1.6,1.6,1.7l5.9,0.5c0.6,2.4,1.6,4.7,2.9,6.9l-3.8,4.4
		c-0.6,0.7-0.5,1.7,0.1,2.3l6.8,6.7c0.6,0.6,1.6,0.7,2.3,0.1l4.6-3.7c2.2,1.3,4.6,2.2,7.1,2.9l0.5,5.7c0.1,0.9,0.8,1.6,1.7,1.6h9.6
		c0.9,0,1.6-0.7,1.7-1.6l0.5-5.7c2.5-0.6,4.9-1.6,7.1-2.9l4.6,3.7c0.7,0.6,1.7,0.5,2.3-0.1l6.8-6.7c0.6-0.6,0.7-1.7,0.1-2.3
		l-3.8-4.4c1.3-2.1,2.3-4.5,2.9-6.9l5.9-0.5c0.9-0.1,1.6-0.8,1.6-1.7v-9.4C88.6,61.7,87.9,61,87,60.9L87,60.9z M85.2,70.5L79.6,71
		c-0.8,0.1-1.4,0.6-1.5,1.4c-0.6,2.9-1.8,5.6-3.4,8c-0.4,0.6-0.4,1.5,0.1,2.1l3.5,4.2l-4.6,4.5l-4.3-3.5c-0.6-0.5-1.4-0.5-2-0.1
		c-2.5,1.6-5.3,2.7-8.2,3.3c-0.7,0.2-1.3,0.8-1.4,1.5l-0.5,5.4h-6.5l-0.5-5.4c-0.1-0.8-0.6-1.4-1.4-1.5c-2.9-0.6-5.7-1.7-8.2-3.3
		c-0.6-0.4-1.4-0.4-2,0.1l-4.3,3.5l-4.6-4.5l3.5-4.2c0.5-0.6,0.5-1.4,0.1-2.1c-1.6-2.4-2.8-5.2-3.4-8c-0.2-0.7-0.8-1.3-1.5-1.4
		L23,70.5v-6.3l5.5-0.5c0.8-0.1,1.4-0.6,1.5-1.4c0.6-2.9,1.8-5.6,3.4-8c0.4-0.6,0.4-1.5-0.1-2.1L29.8,48l4.6-4.5l4.3,3.5
		c0.6,0.5,1.4,0.5,2,0.1c2.5-1.6,5.3-2.7,8.2-3.3c0.7-0.2,1.3-0.8,1.4-1.5l0.5-5.4h6.5l0.5,5.4c0.1,0.8,0.6,1.4,1.4,1.5
		c2.9,0.6,5.7,1.7,8.2,3.3c0.6,0.4,1.4,0.4,2-0.1l4.3-3.5l4.6,4.5l-3.5,4.2c-0.5,0.6-0.5,1.4-0.1,2.1c1.6,2.4,2.8,5.2,3.4,8
		c0.2,0.7,0.8,1.3,1.5,1.4l5.5,0.5V70.5z"/>
	<path class="st5" d="M54.1,57.5c-5.5,0-10,4.4-10,9.8c0,5.4,4.5,9.8,10,9.8c5.5,0,10-4.4,10-9.8C64.1,61.9,59.6,57.5,54.1,57.5
		L54.1,57.5z M54.1,73.7c-3.6,0-6.6-2.9-6.6-6.4c0-3.5,2.9-6.4,6.6-6.4c3.6,0,6.6,2.9,6.6,6.4C60.6,70.8,57.7,73.7,54.1,73.7
		L54.1,73.7z"/>
</g>
<rect x="52.7" y="50.9" class="st5" width="135" height="102.5"/>
<g>
	<rect x="120.2" y="50.9" class="st7" width="67.5" height="102.5"/>
	<rect x="52.7" y="50.9" class="st7" width="135" height="13.2"/>
</g>
<rect x="120.2" y="50.9" class="st8" width="67.5" height="13.2"/>
<g>
	<circle class="st2" cx="60.9" cy="57.5" r="3.7"/>
	<circle class="st2" cx="71.8" cy="57.5" r="3.7"/>
	<circle class="st2" cx="82.8" cy="57.5" r="3.7"/>
</g>
<path class="st2" d="M178.9,115.5l5-5c-2.9-4.1-6.4-7.7-10.5-10.5l-5,5c-3.6-2.3-7.6-4-11.8-4.9V93c-2.4-0.4-4.9-0.7-7.4-0.7
	s-5,0.2-7.4,0.7v7.1c-4.3,0.9-8.3,2.6-11.8,4.9l-5-5c-4.1,2.9-7.7,6.4-10.5,10.5l5,5c-2.3,3.6-4,7.6-4.9,11.8h-7.1
	c-0.4,2.4-0.7,4.9-0.7,7.4c0,2.5,0.2,5,0.7,7.4h7.1c0.9,4.3,2.6,8.3,4.9,11.8l-5,5c2.9,4.1,6.4,7.7,10.5,10.5l5-5
	c3.6,2.3,7.6,4,11.8,4.9v7.1c2.4,0.4,4.9,0.7,7.4,0.7c2.5,0,5-0.2,7.4-0.7v-7.1c4.3-0.9,8.3-2.6,11.8-4.9l5,5
	c4.1-2.9,7.7-6.4,10.5-10.5l-5-5c2.3-3.6,4-7.6,4.9-11.8h7.1c0.4-2.4,0.7-4.9,0.7-7.4s-0.2-5-0.7-7.4h-7.1
	C182.8,123.1,181.2,119.1,178.9,115.5z M149,150.5c-8.7,0-15.7-7-15.7-15.7s7-15.7,15.7-15.7c8.7,0,15.7,7,15.7,15.7
	S157.7,150.5,149,150.5z"/>
<path class="st9" d="M190.8,142.3c0.4-2.4,0.7-4.9,0.7-7.4c0-2.5-0.2-5-0.7-7.4h-7.1c-0.9-4.3-2.6-8.3-4.9-11.8l5-5
	c-2.9-4.1-6.4-7.7-10.5-10.5l-5,5c-3.6-2.3-7.6-4-11.8-4.9V93c-2.4-0.4-4.9-0.7-7.4-0.7c-0.2,0-0.3,0-0.5,0v26.8c0.2,0,0.3,0,0.5,0
	c8.7,0,15.7,7,15.7,15.7s-7,15.7-15.7,15.7c-0.2,0-0.3,0-0.5,0v26.8c0.2,0,0.3,0,0.5,0c2.5,0,5-0.2,7.4-0.7v-7.1
	c4.3-0.9,8.3-2.6,11.8-4.9l5,5c4.1-2.9,7.7-6.4,10.5-10.5l-5-5c2.3-3.6,4-7.6,4.9-11.8L190.8,142.3L190.8,142.3z"/>
<g>
	<path class="st6" d="M60.2,93.3V70.9h9.5c1.1,0,2,0.2,2.9,0.7c0.9,0.4,1.7,1,2.3,1.7c0.6,0.7,1.1,1.5,1.5,2.4
		c0.4,0.9,0.6,1.8,0.6,2.7c0,1-0.2,1.9-0.5,2.8c-0.3,0.9-0.8,1.7-1.4,2.4c-0.6,0.7-1.4,1.3-2.2,1.7c-0.9,0.4-1.9,0.6-2.9,0.6h-4.5
		v7.2L60.2,93.3L60.2,93.3z M65.4,81.6h4.2c0.6,0,1.1-0.3,1.6-0.8c0.4-0.5,0.7-1.3,0.7-2.3c0-0.5-0.1-1-0.2-1.4
		c-0.1-0.4-0.3-0.7-0.6-0.9c-0.2-0.3-0.5-0.4-0.8-0.6c-0.3-0.1-0.6-0.2-0.9-0.2h-4L65.4,81.6L65.4,81.6z"/>
	<path class="st6" d="M98.9,70.9v22.3h-5.2v-9.2h-8.9v9.2h-5.2V70.9h5.2v8.6h8.9v-8.6L98.9,70.9L98.9,70.9z"/>
	<path class="st6" d="M103.2,93.3V70.9h9.5c1.1,0,2,0.2,2.9,0.7c0.9,0.4,1.7,1,2.3,1.7c0.6,0.7,1.1,1.5,1.5,2.4
		c0.4,0.9,0.6,1.8,0.6,2.7c0,1-0.2,1.9-0.5,2.8c-0.3,0.9-0.8,1.7-1.4,2.4c-0.6,0.7-1.4,1.3-2.2,1.7c-0.9,0.4-1.9,0.6-2.9,0.6h-4.5
		v7.2L103.2,93.3L103.2,93.3z M108.4,81.6h4.2c0.6,0,1.1-0.3,1.6-0.8c0.4-0.5,0.7-1.3,0.7-2.3c0-0.5-0.1-1-0.2-1.4
		c-0.1-0.4-0.3-0.7-0.6-0.9c-0.2-0.3-0.5-0.4-0.8-0.6c-0.3-0.1-0.6-0.2-0.9-0.2h-4L108.4,81.6L108.4,81.6z"/>
</g>
</svg>
