<?xml version="1.0" encoding="utf-8"?>
<!-- Generator: Adobe Illustrator 21.1.0, SVG Export Plug-In . SVG Version: 6.00 Build 0)  -->
<svg version="1.1" id="Layer_1" xmlns="http://www.w3.org/2000/svg" xmlns:xlink="http://www.w3.org/1999/xlink" x="0px" y="0px"
	 viewBox="0 0 200 200" style="enable-background:new 0 0 200 200;" xml:space="preserve">
<style type="text/css">
	.st0{fill:#D4D4D4;}
	.st1{fill:#242F64;}
	.st2{fill:#2AB59C;}
	.st3{fill:none;stroke:#242F64;stroke-width:0.5;stroke-miterlimit:10;}
	.st4{opacity:0.1;}
	.st5{fill:#FFFFFF;}
	.st6{fill:#233065;}
	.st7{fill:#E0E1E0;}
	.st8{fill:#C1C0C0;}
	.st9{fill:#11846E;}
	.st10{fill:#E9E8E8;}
	.st11{opacity:0.1;fill:#FFFFFF;enable-background:new    ;}
	.st12{opacity:3.000000e-02;fill:#010101;enable-background:new    ;}
	.st13{enable-background:new    ;}
	.st14{fill:#353635;}
	.st15{fill:#EBEBEB;}
	.st16{fill:#CCDEF2;}
	.st17{fill:#E5904A;}
	.st18{fill:#9E9E9E;}
	.st19{fill:#149179;}
	.st20{fill:#262626;}
	.st21{fill:#F79D89;}
	.st22{clip-path:url(#SVGID_2_);fill:#F9D4C6;}
	.st23{fill:#245187;}
	.st24{fill:#1C3968;}
	.st25{fill:#1B967E;}
	.st26{fill:#BAE4FA;}
	.st27{fill:#9AC8E0;}
	.st28{fill:#16967E;}
	.st29{fill:#010101;}
	.st30{fill:#3C8FCD;}
</style>
<circle class="st2" cx="100" cy="100" r="90"/>
<g class="st4">
	<path class="st5" d="M167.3,131.9l-3.5-0.3c-0.4-1.4-1-2.8-1.7-4.1l2.2-2.6c0.3-0.4,0.3-1-0.1-1.4l-4-3.9c-0.4-0.4-1-0.4-1.4-0.1
		l-2.7,2.2c-1.3-0.8-2.7-1.3-4.2-1.7l-0.3-3.4c0-0.5-0.5-0.9-1-0.9h-5.7c-0.5,0-1,0.4-1,0.9l-0.3,3.4c-1.5,0.4-2.9,0.9-4.2,1.7
		l-2.7-2.2c-0.4-0.3-1-0.3-1.4,0.1l-4,3.9c-0.4,0.4-0.4,1-0.1,1.4l2.2,2.6c-0.8,1.3-1.3,2.6-1.7,4.1l-3.5,0.3c-0.5,0-0.9,0.5-0.9,1
		v5.6c0,0.5,0.4,1,0.9,1l3.5,0.3c0.4,1.4,1,2.8,1.7,4.1l-2.2,2.6c-0.3,0.4-0.3,1,0.1,1.4l4,3.9c0.4,0.4,1,0.4,1.4,0.1l2.7-2.2
		c1.3,0.8,2.7,1.3,4.2,1.7l0.3,3.4c0,0.5,0.5,0.9,1,0.9h5.7c0.5,0,1-0.4,1-0.9l0.3-3.4c1.5-0.4,2.9-0.9,4.2-1.7l2.7,2.2
		c0.4,0.3,1,0.3,1.4-0.1l4-3.9c0.4-0.4,0.4-1,0.1-1.4l-2.2-2.6c0.8-1.3,1.3-2.6,1.7-4.1l3.5-0.3c0.5,0,0.9-0.5,0.9-1v-5.6
		C168.3,132.4,167.9,132,167.3,131.9L167.3,131.9z M166.2,137.6l-3.3,0.3c-0.4,0-0.8,0.4-0.9,0.8c-0.4,1.7-1,3.3-2,4.7
		c-0.3,0.4-0.2,0.9,0.1,1.2l2.1,2.5l-2.7,2.6l-2.5-2.1c-0.3-0.3-0.8-0.3-1.2-0.1c-1.5,0.9-3.1,1.6-4.9,2c-0.4,0.1-0.8,0.5-0.8,0.9
		l-0.3,3.2H146l-0.3-3.2c0-0.4-0.4-0.8-0.8-0.9c-1.7-0.4-3.4-1-4.9-2c-0.4-0.2-0.8-0.2-1.2,0.1l-2.5,2.1l-2.7-2.6l2.1-2.5
		c0.3-0.3,0.3-0.8,0.1-1.2c-1-1.4-1.6-3.1-2-4.7c-0.1-0.4-0.5-0.8-0.9-0.8l-3.3-0.3v-3.7l3.3-0.3c0.4,0,0.8-0.4,0.9-0.8
		c0.4-1.7,1-3.3,2-4.7c0.3-0.4,0.2-0.9-0.1-1.2l-2.1-2.5l2.7-2.6l2.5,2.1c0.3,0.3,0.8,0.3,1.2,0.1c1.5-0.9,3.1-1.6,4.9-2
		c0.4-0.1,0.8-0.5,0.8-0.9l0.3-3.2h3.8l0.3,3.2c0,0.4,0.4,0.8,0.8,0.9c1.7,0.4,3.4,1,4.9,2c0.4,0.2,0.8,0.2,1.2-0.1l2.5-2.1l2.7,2.6
		l-2.1,2.5c-0.3,0.3-0.3,0.8-0.1,1.2c1,1.4,1.6,3.1,2,4.7c0.1,0.4,0.5,0.8,0.9,0.8l3.3,0.3V137.6z"/>
	<path class="st5" d="M147.9,129.9c-3.3,0-5.9,2.6-5.9,5.8c0,3.2,2.7,5.8,5.9,5.8c3.3,0,5.9-2.6,5.9-5.8
		C153.8,132.5,151.2,129.9,147.9,129.9L147.9,129.9z M147.9,139.5c-2.1,0-3.9-1.7-3.9-3.8c0-2.1,1.7-3.8,3.9-3.8
		c2.1,0,3.9,1.7,3.9,3.8C151.8,137.8,150,139.5,147.9,139.5L147.9,139.5z"/>
</g>
<g class="st4">
	<path class="st5" d="M84.9,154.5l-2.2-0.2c-0.2-0.9-0.6-1.7-1.1-2.5l1.4-1.6c0.2-0.3,0.2-0.6,0-0.9l-2.5-2.5
		c-0.2-0.2-0.6-0.2-0.8,0l-1.7,1.4c-0.8-0.5-1.7-0.8-2.6-1.1l-0.2-2.1c0-0.3-0.3-0.6-0.6-0.6H71c-0.3,0-0.6,0.2-0.6,0.6l-0.2,2.1
		c-0.9,0.2-1.8,0.6-2.6,1.1l-1.7-1.4c-0.3-0.2-0.6-0.2-0.8,0l-2.5,2.5c-0.2,0.2-0.3,0.6,0,0.9l1.4,1.6c-0.5,0.8-0.8,1.6-1.1,2.5
		l-2.2,0.2c-0.3,0-0.6,0.3-0.6,0.6v3.5c0,0.3,0.3,0.6,0.6,0.6l2.2,0.2c0.2,0.9,0.6,1.7,1.1,2.5l-1.4,1.6c-0.2,0.3-0.2,0.6,0,0.9
		l2.5,2.5c0.2,0.2,0.6,0.2,0.8,0l1.7-1.4c0.8,0.5,1.7,0.8,2.6,1.1l0.2,2.1c0,0.3,0.3,0.6,0.6,0.6h3.5c0.3,0,0.6-0.2,0.6-0.6l0.2-2.1
		c0.9-0.2,1.8-0.6,2.6-1.1l1.7,1.4c0.3,0.2,0.6,0.2,0.8,0l2.5-2.5c0.2-0.2,0.3-0.6,0-0.9l-1.4-1.6c0.5-0.8,0.8-1.6,1.1-2.5l2.2-0.2
		c0.3,0,0.6-0.3,0.6-0.6v-3.5C85.4,154.8,85.2,154.5,84.9,154.5L84.9,154.5z M84.2,158l-2,0.2c-0.3,0-0.5,0.2-0.6,0.5
		c-0.2,1.1-0.7,2.1-1.3,3c-0.2,0.2-0.1,0.5,0,0.8l1.3,1.5l-1.7,1.6l-1.6-1.3c-0.2-0.2-0.5-0.2-0.7,0c-0.9,0.6-2,1-3,1.2
		c-0.3,0.1-0.5,0.3-0.5,0.6l-0.2,2h-2.4l-0.2-2c0-0.3-0.2-0.5-0.5-0.6c-1.1-0.2-2.1-0.6-3-1.2c-0.2-0.1-0.5-0.1-0.7,0l-1.6,1.3
		l-1.7-1.6l1.3-1.5c0.2-0.2,0.2-0.5,0-0.8c-0.6-0.9-1-1.9-1.3-3c-0.1-0.3-0.3-0.5-0.6-0.5l-2-0.2v-2.3l2-0.2c0.3,0,0.5-0.2,0.6-0.5
		c0.2-1.1,0.7-2.1,1.3-3c0.2-0.2,0.1-0.5,0-0.8l-1.3-1.5l1.7-1.6l1.6,1.3c0.2,0.2,0.5,0.2,0.7,0c0.9-0.6,2-1,3-1.2
		c0.3-0.1,0.5-0.3,0.5-0.6l0.2-2h2.4l0.2,2c0,0.3,0.2,0.5,0.5,0.6c1.1,0.2,2.1,0.6,3,1.2c0.2,0.1,0.5,0.1,0.7,0l1.6-1.3l1.7,1.6
		l-1.3,1.5c-0.2,0.2-0.2,0.5,0,0.8c0.6,0.9,1,1.9,1.3,3c0.1,0.3,0.3,0.5,0.6,0.5l2,0.2V158z"/>
	<path class="st5" d="M72.7,153.2c-2,0-3.7,1.6-3.7,3.6c0,2,1.7,3.6,3.7,3.6c2,0,3.7-1.6,3.7-3.6C76.4,154.9,74.8,153.2,72.7,153.2
		L72.7,153.2z M72.7,159.2c-1.3,0-2.4-1.1-2.4-2.4c0-1.3,1.1-2.4,2.4-2.4c1.3,0,2.4,1.1,2.4,2.4C75.2,158.1,74.1,159.2,72.7,159.2
		L72.7,159.2z"/>
</g>
<g>
	<path class="st5" d="M27.5,88h5.2v17.4c0,1.3-0.2,2.4-0.6,3.4c-0.4,1-1,1.9-1.8,2.5c-0.8,0.7-1.6,1.2-2.7,1.6
		c-1,0.4-2.1,0.6-3.3,0.6c-1.2,0-2.4-0.2-3.4-0.5c-1-0.3-1.9-0.8-2.7-1.4c-0.7-0.6-1.3-1.4-1.8-2.4c-0.4-1-0.6-2.1-0.6-3.5H21
		c0,0.7,0.1,1.2,0.2,1.7s0.4,0.8,0.6,1.1c0.3,0.3,0.6,0.5,1,0.6c0.4,0.1,0.8,0.2,1.3,0.2c1,0,1.8-0.3,2.4-1c0.6-0.7,0.9-1.6,0.9-2.9
		V88z"/>
	<path class="st5" d="M50.9,108h-9.1l-1.7,5.2h-5.5L44,88h4.8l9.4,25.1h-5.5L50.9,108z M43.2,103.8h6.3l-3.2-9.4L43.2,103.8z"/>
	<path class="st5" d="M68.5,106.9L74.2,88h5.8l-8.8,25.1h-5.4L57.1,88h5.8L68.5,106.9z"/>
	<path class="st5" d="M95.2,108h-9.1l-1.7,5.2h-5.5L88.3,88h4.8l9.4,25.1H97L95.2,108z M87.5,103.8h6.3l-3.2-9.4L87.5,103.8z"/>
</g>
<g class="st4">
	<path class="st5" d="M112.7,49.5l-6.1-0.6c-0.7-2.5-1.7-4.9-3-7.1l3.9-4.6c0.6-0.7,0.6-1.8-0.1-2.4l-7-6.9
		c-0.6-0.6-1.7-0.7-2.4-0.1l-4.7,3.8c-2.3-1.3-4.7-2.3-7.3-3l-0.6-5.9c-0.1-0.9-0.9-1.6-1.8-1.6h-10c-0.9,0-1.7,0.7-1.8,1.6
		l-0.6,5.9c-2.6,0.7-5,1.7-7.3,3l-4.7-3.8c-0.7-0.6-1.7-0.5-2.4,0.1l-7,6.9c-0.7,0.7-0.7,1.7-0.1,2.4l3.9,4.6
		c-1.3,2.2-2.3,4.6-3,7.1l-6.1,0.6c-0.9,0.1-1.6,0.9-1.6,1.8V61c0,0.9,0.7,1.7,1.6,1.8l6.1,0.6c0.7,2.5,1.7,4.9,3,7.1l-3.9,4.6
		c-0.6,0.7-0.6,1.8,0.1,2.4l7,6.9c0.6,0.6,1.7,0.7,2.4,0.1l4.7-3.8c2.3,1.3,4.7,2.3,7.3,3l0.6,5.9c0.1,0.9,0.9,1.6,1.8,1.6h10
		c0.9,0,1.7-0.7,1.8-1.6l0.6-5.9c2.6-0.7,5-1.7,7.3-3l4.7,3.8c0.7,0.6,1.7,0.5,2.4-0.1l7-6.9c0.7-0.7,0.7-1.7,0.1-2.4l-3.9-4.6
		c1.3-2.2,2.3-4.6,3-7.1l6.1-0.6c0.9-0.1,1.6-0.9,1.6-1.8v-9.8C114.4,50.4,113.7,49.6,112.7,49.5L112.7,49.5z M110.8,59.4l-5.7,0.5
		c-0.8,0.1-1.4,0.6-1.6,1.4c-0.6,3-1.8,5.8-3.5,8.3c-0.4,0.7-0.4,1.5,0.1,2.1l3.7,4.3L99,80.7l-4.5-3.6c-0.6-0.5-1.4-0.5-2.1-0.1
		c-2.6,1.7-5.5,2.8-8.5,3.5c-0.8,0.2-1.3,0.8-1.4,1.6L82,87.6h-6.7L74.8,82c-0.1-0.8-0.6-1.4-1.4-1.6c-3-0.6-5.9-1.8-8.5-3.5
		c-0.6-0.4-1.5-0.4-2.1,0.1l-4.5,3.6l-4.7-4.6l3.7-4.3c0.5-0.6,0.6-1.5,0.1-2.1c-1.7-2.5-2.9-5.4-3.5-8.3c-0.2-0.8-0.8-1.3-1.6-1.4
		l-5.7-0.5v-6.5l5.7-0.5c0.8-0.1,1.4-0.6,1.6-1.4c0.6-3,1.8-5.8,3.5-8.3c0.4-0.7,0.4-1.5-0.1-2.1l-3.7-4.3l4.7-4.6l4.5,3.6
		c0.6,0.5,1.4,0.5,2.1,0.1c2.6-1.7,5.5-2.8,8.5-3.5c0.8-0.2,1.3-0.8,1.4-1.6l0.5-5.6H82l0.5,5.6c0.1,0.8,0.6,1.4,1.4,1.6
		c3,0.6,5.9,1.8,8.5,3.5c0.6,0.4,1.5,0.4,2.1-0.1l4.5-3.6l4.7,4.6l-3.7,4.3c-0.5,0.6-0.6,1.5-0.1,2.1c1.7,2.5,2.9,5.4,3.5,8.3
		c0.2,0.8,0.8,1.3,1.6,1.4l5.7,0.5V59.4z"/>
	<path class="st5" d="M78.6,46c-5.7,0-10.4,4.6-10.4,10.2c0,5.6,4.7,10.2,10.4,10.2c5.7,0,10.4-4.6,10.4-10.2
		C89,50.5,84.4,46,78.6,46L78.6,46z M78.6,62.8c-3.7,0-6.8-3-6.8-6.6c0-3.6,3-6.6,6.8-6.6c3.7,0,6.8,3,6.8,6.6
		C85.4,59.8,82.4,62.8,78.6,62.8L78.6,62.8z"/>
</g>
<g>
	<path class="st5" d="M141.4,55.8c-5.5,3.9-11.7,8.2-15.1,15.5c-5.8,12.6,11.9,26.4,12.6,27c0.2,0.1,0.4,0.2,0.6,0.2
		c0.2,0,0.4-0.1,0.6-0.2c0.4-0.3,0.5-0.8,0.2-1.2c-0.1-0.1-6.4-12.4-6.2-21.3c0.1-3.1,4.4-6.6,8.9-10.3c4.2-3.4,8.9-7.2,11.7-11.7
		c6.1-9.9-0.7-19.6-0.7-19.7c-0.3-0.4-0.8-0.5-1.2-0.3c-0.4,0.2-0.7,0.6-0.6,1.1c0,0.1,1.3,6.5-2.3,13.1
		C148.5,50.8,145.2,53.2,141.4,55.8L141.4,55.8z"/>
	<path class="st5" d="M164.6,60.2c0.4-0.3,0.5-0.8,0.3-1.2c-0.2-0.4-0.7-0.6-1.2-0.4c-0.9,0.4-22.9,8.8-22.9,19c0,7,3,10.8,5.2,13.5
		c0.9,1.1,1.6,2,1.9,2.8c0.7,2.3-0.9,6.4-1.6,7.7c-0.2,0.4-0.1,0.9,0.2,1.2c0.2,0.2,0.4,0.2,0.6,0.2c0.2,0,0.4-0.1,0.6-0.2
		c0.4-0.3,9.2-6.5,7.6-14c-0.6-2.9-2-5-3.2-6.8c-1.9-2.9-3.3-4.9-1.2-8.7C153.3,68.7,164.4,60.3,164.6,60.2L164.6,60.2z"/>
	<path class="st5" d="M107.5,103.1c-0.4,1.1-0.2,2.2,0.5,3.2c2.4,3.3,10.8,5.1,23.7,5.1h0c1.8,0,3.6,0,5.5-0.1
		c20.6-0.7,28.3-7.2,28.6-7.4c0.3-0.3,0.4-0.8,0.2-1.2c-0.2-0.4-0.7-0.6-1.1-0.5c-7.3,2-20.9,2.7-30.3,2.7
		c-10.5,0-15.9-0.8-17.2-1.3c0.7-0.9,4.8-2.6,10-3.6c0.5-0.1,0.8-0.6,0.8-1.1c0-0.5-0.5-0.9-1-0.9
		C124.2,98.1,109.1,98.3,107.5,103.1L107.5,103.1z"/>
	<path class="st5" d="M176.6,96.5c-4.3,0-8.3,2.1-8.5,2.2c-0.4,0.2-0.6,0.7-0.5,1.1c0.1,0.4,0.5,0.7,0.9,0.7c0.1,0,9.1,0.1,9.9,5.2
		c0.7,4.4-8.5,11.6-12.1,14c-0.4,0.3-0.5,0.8-0.4,1.2c0.2,0.4,0.5,0.6,0.9,0.6c0.1,0,0.1,0,0.2,0c0.9-0.2,21-4.6,18.9-16.4
		C184.6,98,180.1,96.5,176.6,96.5L176.6,96.5z"/>
	<path class="st5" d="M162.8,118.3c0.1-0.4-0.1-0.8-0.4-1l-4.8-3.4c-0.2-0.2-0.5-0.2-0.8-0.1c0,0-5.1,1.3-12.4,2.2
		c-2.9,0.3-6.2,0.5-9.4,0.5c-7.3,0-12.1-0.9-12.8-1.5c-0.1-0.2-0.1-0.3,0-0.3c0.1-0.4,0.8-0.8,1.2-0.9c0.5-0.2,0.7-0.7,0.6-1.2
		c-0.2-0.5-0.7-0.8-1.2-0.7c-4.8,1.2-7.2,2.8-7,4.9c0.3,3.6,8.7,5.5,15.9,6c1,0.1,2.1,0.1,3.3,0.1h0c11.9,0,27.1-3.7,27.2-3.8
		C162.4,119,162.7,118.7,162.8,118.3L162.8,118.3z"/>
	<path class="st5" d="M126.3,126.1c0.4-0.2,0.5-0.7,0.4-1.1c-0.1-0.4-0.5-0.7-1-0.7c-0.6,0-6.4,0.3-6.8,3.9
		c-0.1,1.1,0.2,2.1,0.9,2.9c2,2.4,7.6,3.9,16.9,4.4c1.1,0.1,2.2,0.1,3.3,0.1c11.9,0,19.8-3.7,20.2-3.9c0.3-0.2,0.5-0.5,0.6-0.8
		c0-0.4-0.2-0.7-0.5-0.9l-6.1-3.7c-0.2-0.1-0.5-0.2-0.7-0.1c0,0-3.9,0.8-9.8,1.6c-1.1,0.2-2.5,0.2-4.1,0.2c-5.8,0-12.3-1-13.6-1.6
		C126.1,126.4,126.2,126.3,126.3,126.1L126.3,126.1z"/>
	<path class="st5" d="M134.7,146.9c27.1,0,41.7-4.9,44.5-7.9c1-1.1,1.1-2.1,1-2.8c-0.2-1.6-1.7-2.6-1.9-2.7c-0.4-0.3-1-0.2-1.3,0.2
		c-0.3,0.4-0.3,0.9,0,1.3c0.2,0.2,0.3,0.6-0.2,1.1c-1.1,1-12.4,4.2-31.3,5.2c-2.6,0.1-5.3,0.2-8,0.2c-16.9,0-29.2-2.3-30.8-3.7
		c0.6-0.9,5-2.3,9.6-3.1c0.5-0.1,0.9-0.6,0.8-1.1c-0.1-0.5-0.6-0.9-1.1-0.8c-0.1,0-0.6,0-1.1,0.1c-7.7,0.5-16.5,1.5-17,5.5
		c-0.1,1.2,0.2,2.3,1.1,3.2C101,143.8,107,146.9,134.7,146.9C134.7,146.9,134.7,146.9,134.7,146.9L134.7,146.9z"/>
	<path class="st5" d="M184.5,139.9c-0.4-0.2-0.8-0.1-1.1,0.2c0,0-4.1,4.3-16.4,6.8c-4.7,0.9-13.5,1.4-26.2,1.4
		c-12.7,0-24.8-0.5-24.9-0.5c-0.5,0-0.9,0.3-1,0.8c-0.1,0.5,0.3,1,0.7,1.1c0.1,0,12.8,3,30.2,3c8.3,0,16.4-0.7,24.1-2
		c14.3-2.5,15.3-9.6,15.3-9.9C185.1,140.5,184.9,140.1,184.5,139.9L184.5,139.9z"/>
</g>
</svg>
