<?xml version="1.0" encoding="utf-8"?>
<!-- Generator: Adobe Illustrator 21.1.0, SVG Export Plug-In . SVG Version: 6.00 Build 0)  -->
<svg version="1.1" id="Layer_1" xmlns="http://www.w3.org/2000/svg" xmlns:xlink="http://www.w3.org/1999/xlink" x="0px" y="0px"
	 viewBox="0 0 200 200" style="enable-background:new 0 0 200 200;" xml:space="preserve">
<style type="text/css">
	.st0{fill:#D4D4D4;}
	.st1{fill:#242F64;}
	.st2{fill:#2AB59C;}
	.st3{fill:none;stroke:#242F64;stroke-width:0.5;stroke-miterlimit:10;}
	.st4{opacity:0.1;}
	.st5{fill:#FFFFFF;}
	.st6{fill:#233065;}
	.st7{fill:#E0E1E0;}
	.st8{fill:#C1C0C0;}
	.st9{fill:#11846E;}
	.st10{fill:#E9E8E8;}
	.st11{opacity:0.1;fill:#FFFFFF;enable-background:new    ;}
	.st12{opacity:3.000000e-02;fill:#010101;enable-background:new    ;}
	.st13{enable-background:new    ;}
	.st14{fill:#353635;}
	.st15{fill:#EBEBEB;}
	.st16{fill:#CCDEF2;}
	.st17{fill:#E5904A;}
	.st18{fill:#9E9E9E;}
	.st19{fill:#149179;}
	.st20{fill:#262626;}
	.st21{fill:#F79D89;}
	.st22{clip-path:url(#SVGID_2_);fill:#F9D4C6;}
	.st23{fill:#245187;}
	.st24{fill:#1C3968;}
	.st25{fill:#1B967E;}
	.st26{fill:#BAE4FA;}
	.st27{fill:#9AC8E0;}
	.st28{fill:#16967E;}
	.st29{fill:#010101;}
	.st30{fill:#3C8FCD;}
</style>
<circle class="st2" cx="100" cy="100" r="90"/>
<g class="st4">
	<path class="st5" d="M129,135.8l-2.8-0.3c-0.3-1.2-0.8-2.3-1.4-3.3l1.8-2.1c0.3-0.3,0.3-0.8-0.1-1.1l-3.3-3.2
		c-0.3-0.3-0.8-0.3-1.1-0.1l-2.2,1.8c-1.1-0.6-2.2-1.1-3.4-1.4l-0.3-2.8c0-0.4-0.4-0.8-0.8-0.7h-4.6c-0.4,0-0.8,0.3-0.8,0.7
		l-0.3,2.8c-1.2,0.3-2.3,0.8-3.4,1.4l-2.2-1.8c-0.3-0.3-0.8-0.2-1.1,0.1l-3.3,3.2c-0.3,0.3-0.3,0.8-0.1,1.1l1.8,2.1
		c-0.6,1-1.1,2.1-1.4,3.3l-2.8,0.3c-0.4,0-0.8,0.4-0.8,0.8v4.5c0,0.4,0.3,0.8,0.8,0.8l2.8,0.3c0.3,1.2,0.8,2.3,1.4,3.3l-1.8,2.1
		c-0.3,0.3-0.3,0.8,0.1,1.1l3.3,3.2c0.3,0.3,0.8,0.3,1.1,0.1l2.2-1.8c1.1,0.6,2.2,1.1,3.4,1.4l0.3,2.8c0,0.4,0.4,0.8,0.8,0.7h4.6
		c0.4,0,0.8-0.3,0.8-0.7l0.3-2.8c1.2-0.3,2.3-0.8,3.4-1.4l2.2,1.8c0.3,0.3,0.8,0.2,1.1-0.1l3.3-3.2c0.3-0.3,0.3-0.8,0.1-1.1
		l-1.8-2.1c0.6-1,1.1-2.1,1.4-3.3l2.8-0.3c0.4,0,0.8-0.4,0.8-0.8v-4.5C129.8,136.2,129.5,135.8,129,135.8L129,135.8z M128.1,140.4
		l-2.7,0.2c-0.4,0-0.7,0.3-0.7,0.7c-0.3,1.4-0.9,2.7-1.6,3.9c-0.2,0.3-0.2,0.7,0.1,1l1.7,2l-2.2,2.1l-2.1-1.7
		c-0.3-0.2-0.7-0.2-1-0.1c-1.2,0.8-2.6,1.3-4,1.6c-0.4,0.1-0.6,0.4-0.7,0.7l-0.2,2.6h-3.1l-0.2-2.6c0-0.4-0.3-0.7-0.7-0.7
		c-1.4-0.3-2.7-0.8-4-1.6c-0.3-0.2-0.7-0.2-1,0.1l-2.1,1.7l-2.2-2.1l1.7-2c0.2-0.3,0.3-0.7,0.1-1c-0.8-1.2-1.3-2.5-1.6-3.9
		c-0.1-0.4-0.4-0.6-0.7-0.7l-2.7-0.2v-3l2.7-0.2c0.4,0,0.7-0.3,0.7-0.7c0.3-1.4,0.9-2.7,1.6-3.9c0.2-0.3,0.2-0.7-0.1-1l-1.7-2
		l2.2-2.1l2.1,1.7c0.3,0.2,0.7,0.2,1,0.1c1.2-0.8,2.6-1.3,4-1.6c0.4-0.1,0.6-0.4,0.7-0.7l0.2-2.6h3.1l0.2,2.6c0,0.4,0.3,0.7,0.7,0.7
		c1.4,0.3,2.7,0.8,4,1.6c0.3,0.2,0.7,0.2,1-0.1l2.1-1.7l2.2,2.1l-1.7,2c-0.2,0.3-0.3,0.7-0.1,1c0.8,1.2,1.3,2.5,1.6,3.9
		c0.1,0.4,0.4,0.6,0.7,0.7l2.7,0.2V140.4z"/>
	<path class="st5" d="M113.2,134.1c-2.7,0-4.8,2.1-4.8,4.7c0,2.6,2.2,4.7,4.8,4.7c2.7,0,4.8-2.1,4.8-4.7
		C118,136.2,115.9,134.1,113.2,134.1L113.2,134.1z M113.2,141.9c-1.7,0-3.2-1.4-3.2-3.1c0-1.7,1.4-3.1,3.2-3.1
		c1.7,0,3.2,1.4,3.2,3.1C116.4,140.5,114.9,141.9,113.2,141.9L113.2,141.9z"/>
</g>
<g class="st4">
	<path class="st5" d="M70,151.6l-1.8-0.2c-0.2-0.7-0.5-1.4-0.9-2.1l1.1-1.3c0.2-0.2,0.2-0.5,0-0.7l-2-2c-0.2-0.2-0.5-0.2-0.7,0
		l-1.4,1.1c-0.7-0.4-1.4-0.7-2.1-0.9l-0.2-1.7c0-0.3-0.2-0.5-0.5-0.5h-2.9c-0.3,0-0.5,0.2-0.5,0.5l-0.2,1.7
		c-0.7,0.2-1.5,0.5-2.1,0.9l-1.4-1.1c-0.2-0.2-0.5-0.2-0.7,0l-2,2c-0.2,0.2-0.2,0.5,0,0.7l1.1,1.3c-0.4,0.6-0.7,1.3-0.9,2.1
		l-1.8,0.2c-0.3,0-0.5,0.2-0.5,0.5v2.8c0,0.3,0.2,0.5,0.5,0.5l1.8,0.2c0.2,0.7,0.5,1.4,0.9,2.1l-1.1,1.3c-0.2,0.2-0.2,0.5,0,0.7l2,2
		c0.2,0.2,0.5,0.2,0.7,0l1.4-1.1c0.7,0.4,1.4,0.7,2.1,0.9l0.2,1.7c0,0.3,0.2,0.5,0.5,0.5h2.9c0.3,0,0.5-0.2,0.5-0.5l0.2-1.7
		c0.7-0.2,1.5-0.5,2.1-0.9l1.4,1.1c0.2,0.2,0.5,0.2,0.7,0l2-2c0.2-0.2,0.2-0.5,0-0.7l-1.1-1.3c0.4-0.6,0.7-1.3,0.9-2.1l1.8-0.2
		c0.3,0,0.5-0.2,0.5-0.5v-2.8C70.5,151.9,70.3,151.6,70,151.6L70,151.6z M69.5,154.5l-1.7,0.2c-0.2,0-0.4,0.2-0.5,0.4
		c-0.2,0.9-0.5,1.7-1,2.4c-0.1,0.2-0.1,0.4,0,0.6l1.1,1.2l-1.4,1.3l-1.3-1.1c-0.2-0.1-0.4-0.2-0.6,0c-0.8,0.5-1.6,0.8-2.5,1
		c-0.2,0-0.4,0.2-0.4,0.5l-0.2,1.6h-1.9L59,161c0-0.2-0.2-0.4-0.4-0.5c-0.9-0.2-1.7-0.5-2.5-1c-0.2-0.1-0.4-0.1-0.6,0l-1.3,1.1
		l-1.4-1.3l1.1-1.2c0.1-0.2,0.2-0.4,0-0.6c-0.5-0.7-0.8-1.6-1-2.4c0-0.2-0.2-0.4-0.5-0.4l-1.7-0.2v-1.9l1.7-0.2
		c0.2,0,0.4-0.2,0.5-0.4c0.2-0.9,0.5-1.7,1-2.4c0.1-0.2,0.1-0.4,0-0.6l-1.1-1.2l1.4-1.3l1.3,1.1c0.2,0.1,0.4,0.2,0.6,0
		c0.8-0.5,1.6-0.8,2.5-1c0.2,0,0.4-0.2,0.4-0.5l0.2-1.6h1.9l0.2,1.6c0,0.2,0.2,0.4,0.4,0.5c0.9,0.2,1.7,0.5,2.5,1
		c0.2,0.1,0.4,0.1,0.6,0l1.3-1.1l1.4,1.3l-1.1,1.2c-0.1,0.2-0.2,0.4,0,0.6c0.5,0.7,0.8,1.6,1,2.4c0,0.2,0.2,0.4,0.5,0.4l1.7,0.2
		V154.5z"/>
	<path class="st5" d="M60.1,150.6c-1.7,0-3,1.3-3,3c0,1.6,1.3,3,3,3c1.7,0,3-1.3,3-3C63.1,151.9,61.8,150.6,60.1,150.6L60.1,150.6z
		 M60.1,155.5c-1.1,0-2-0.9-2-1.9c0-1.1,0.9-1.9,2-1.9c1.1,0,2,0.9,2,1.9C62.1,154.6,61.2,155.5,60.1,155.5L60.1,155.5z"/>
</g>
<g class="st4">
	<path class="st5" d="M92.3,58.8l-5-0.4c-0.5-2-1.4-4-2.5-5.8l3.2-3.7c0.5-0.6,0.5-1.4-0.1-2l-5.7-5.6c-0.5-0.5-1.4-0.6-1.9-0.1
		l-3.8,3.1c-1.9-1.1-3.9-1.9-6-2.4L70,37c-0.1-0.7-0.7-1.3-1.4-1.3h-8.1c-0.8,0-1.4,0.6-1.4,1.3l-0.5,4.8c-2.1,0.5-4.1,1.3-6,2.4
		l-3.8-3.1c-0.6-0.5-1.4-0.4-1.9,0.1L41,46.9c-0.5,0.5-0.6,1.4-0.1,2l3.2,3.7c-1.1,1.8-1.9,3.8-2.5,5.8l-5,0.4
		c-0.8,0.1-1.3,0.7-1.3,1.4v8c0,0.8,0.6,1.4,1.3,1.4l5,0.4c0.5,2,1.4,4,2.5,5.8l-3.2,3.7c-0.5,0.6-0.5,1.4,0.1,2l5.7,5.6
		c0.5,0.5,1.4,0.6,1.9,0.1l3.8-3.1c1.9,1.1,3.9,1.9,6,2.4l0.5,4.8c0.1,0.7,0.7,1.3,1.5,1.3h8.1c0.7,0,1.4-0.6,1.4-1.3l0.5-4.8
		c2.1-0.5,4.1-1.3,6-2.4l3.8,3.1c0.6,0.5,1.4,0.4,1.9-0.1l5.7-5.6c0.5-0.5,0.6-1.4,0.1-2l-3.2-3.7c1.1-1.8,1.9-3.8,2.5-5.8l5-0.4
		c0.8-0.1,1.3-0.7,1.3-1.4v-8C93.6,59.5,93,58.9,92.3,58.8L92.3,58.8z M90.7,66.9L86,67.3c-0.6,0.1-1.2,0.5-1.3,1.1
		c-0.5,2.4-1.5,4.7-2.9,6.8c-0.4,0.5-0.3,1.3,0.1,1.7l3,3.5l-3.8,3.8l-3.6-3c-0.5-0.4-1.2-0.4-1.7-0.1c-2.1,1.4-4.5,2.3-6.9,2.8
		c-0.6,0.1-1.1,0.6-1.2,1.3l-0.4,4.6h-5.5l-0.4-4.6c-0.1-0.6-0.5-1.2-1.2-1.3c-2.5-0.5-4.8-1.5-6.9-2.8c-0.5-0.3-1.2-0.3-1.7,0.1
		l-3.6,3L44,80.5l3-3.5c0.4-0.5,0.5-1.2,0.1-1.7c-1.4-2.1-2.3-4.4-2.9-6.8c-0.1-0.6-0.7-1.1-1.3-1.1l-4.7-0.4v-5.3l4.7-0.4
		c0.6-0.1,1.2-0.5,1.3-1.1c0.5-2.4,1.5-4.7,2.9-6.8c0.4-0.5,0.3-1.3-0.1-1.7L44,48l3.8-3.8l3.6,3c0.5,0.4,1.2,0.4,1.7,0.1
		c2.1-1.4,4.5-2.3,6.9-2.8c0.6-0.1,1.1-0.6,1.2-1.3l0.4-4.6h5.5l0.4,4.6c0.1,0.6,0.5,1.2,1.2,1.3c2.5,0.5,4.8,1.5,6.9,2.8
		c0.5,0.3,1.2,0.3,1.7-0.1l3.6-3l3.8,3.8l-3,3.5c-0.4,0.5-0.5,1.2-0.1,1.7c1.4,2.1,2.3,4.4,2.9,6.8c0.1,0.6,0.7,1.1,1.3,1.1l4.7,0.4
		V66.9z"/>
	<path class="st5" d="M64.5,56c-4.7,0-8.4,3.7-8.4,8.3c0,4.6,3.8,8.3,8.4,8.3c4.7,0,8.5-3.7,8.5-8.3C72.9,59.7,69.1,56,64.5,56
		L64.5,56z M64.5,69.7c-3.1,0-5.5-2.4-5.5-5.4c0-3,2.5-5.4,5.5-5.4c3.1,0,5.5,2.4,5.5,5.4C70,67.2,67.5,69.7,64.5,69.7L64.5,69.7z"
		/>
</g>
<circle class="st6" cx="72.8" cy="102.1" r="46.1"/>
<circle class="st10" cx="145.4" cy="102.1" r="46.1"/>
<path class="st11" d="M72.8,148.2c-25.5,0-46.1-20.6-46.1-46.1C26.7,76.6,47.4,56,72.8,56"/>
<path class="st12" d="M145.4,148.2c-25.5,0-46.1-20.6-46.1-46.1S119.9,56,145.4,56c0,0,0,0,0,0"/>
<g class="st13">
	<path class="st5" d="M76,80.9v23.7c0,2.1-0.3,3.9-1,5.5c-0.7,1.6-1.6,2.9-2.9,4s-2.7,1.9-4.4,2.4c-1.7,0.5-3.5,0.8-5.5,0.8
		c-2,0-3.9-0.3-5.5-0.8c-1.7-0.5-3.1-1.3-4.4-2.4c-1.2-1.1-2.2-2.4-2.9-4c-0.7-1.6-1-3.4-1-5.5V80.9h7.4v23.7c0,2.4,0.6,4.1,1.7,5.1
		c1.1,1.1,2.7,1.6,4.7,1.6c2,0,3.6-0.5,4.7-1.6c1.1-1.1,1.7-2.8,1.7-5.1V80.9H76z"/>
	<path class="st5" d="M89.9,116.8h-7.4V80.9h7.4V116.8z"/>
</g>
<g class="st13">
	<path class="st14" d="M145.1,82.5v22c0,1.9-0.3,3.6-1,5.1c-0.6,1.5-1.5,2.7-2.7,3.7c-1.1,1-2.5,1.7-4,2.2c-1.6,0.5-3.3,0.8-5.1,0.8
		c-1.9,0-3.6-0.3-5.1-0.8c-1.6-0.5-2.9-1.3-4-2.2c-1.1-1-2-2.2-2.6-3.7c-0.6-1.5-0.9-3.2-0.9-5.1v-22h6.9v22c0,2.2,0.5,3.8,1.6,4.8
		c1,1,2.5,1.5,4.3,1.5c1.9,0,3.3-0.5,4.3-1.5c1-1,1.5-2.6,1.5-4.8v-22H145.1z"/>
	<path class="st14" d="M162.7,93.9l6.2-11.5h7.9L167.1,99l9.9,16.8h-8l-6.4-11.7l-6.4,11.7h-8l9.9-16.8l-9.7-16.5h7.9L162.7,93.9z"
		/>
</g>
</svg>
